<svg xmlns="http://www.w3.org/2000/svg" xmlns:xlink="http://www.w3.org/1999/xlink" width="486" height="324" viewBox="0 0 486 324">
    <defs>
        <path id="prefix__a" d="M3.32 4.143S-.57 10.363.491 15.484c1.061 5.12 10.608 27.437 17.682 47.922 7.073 20.487 5.659 42.802 5.659 49.387 0 6.586-.354 11.341 4.596 13.902 4.952 2.56 12.733 1.096 14.853-3.66 2.122-4.755 3.537-35.119-.354-53.41-3.89-18.29-17.681-50.484-21.218-57.8C19.218 6.67 17.603.064 12.292.064c-2.229 0-5.106 1.161-8.972 4.08"/>
        <path id="prefix__c" d="M3.32 4.143S-.57 10.363.491 15.484c1.061 5.12 10.608 27.437 17.682 47.922 7.073 20.487 5.659 42.802 5.659 49.387 0 6.586-.354 11.341 4.596 13.902 4.952 2.56 12.733 1.096 14.853-3.66 2.122-4.755 3.537-35.119-.354-53.41-3.89-18.29-17.681-50.484-21.218-57.8C19.218 6.67 17.603.064 12.292.064c-2.229 0-5.106 1.161-8.972 4.08"/>
        <path id="prefix__e" d="M71.149.024L5.54 2.095C2.496 2.192.108 4.737.204 7.78L.5 17.195c.096 3.042 2.642 5.431 5.685 5.335l65.61-2.07c3.043-.097 5.431-2.644 5.335-5.687l-.296-9.412C76.74 2.377 74.29.02 71.326.02l-.177.003"/>
        <path id="prefix__g" d="M71.149.024L5.54 2.095C2.496 2.192.108 4.737.204 7.78L.5 17.195c.096 3.042 2.642 5.431 5.685 5.335l65.61-2.07c3.043-.097 5.431-2.644 5.335-5.687l-.296-9.412C76.74 2.377 74.29.02 71.326.02l-.177.003"/>
    </defs>
    <g fill="none" fill-rule="evenodd">
        <path fill="#E2F5FC" d="M473.114 327.497c10.272-90.654-39.5-211.142-91.105-260.897C288.845-23.222 211.449-5.85 151.25 26.322 91.053 58.496 82.453 165.905 40.89 214.502c-41.566 48.599-65.21 113.964-2.145 179.034 63.063 65.07 113.94 32.006 179.87 27.883 65.93-4.124 153.359 28.366 200.66.114 33.027-19.729 49.298-53.968 53.839-94.036" transform="translate(0 -44)"/>
        <g fill="#FFF">
            <path d="M185.057 80.733c-8.287-4.52-12.053-.752-15.067-4.52-3.013-3.767 8.286-13.56-14.314-23.354 0 0-1.507-21.094-32.395-21.848-30.888-.753-22.6 21.095-30.888 26.37-8.286 5.272-10.547-3.016-18.834 2.259-8.288 5.274-4.52 15.82-11.3 17.327-6.78 1.507-15.82-6.78-24.107-1.508-8.287 5.274-8.287 9.796-12.055 9.796-3.766 0-11.3-3.015-15.82 0-4.521 3.013-9.794 6.78-9.794 6.78h190.601s2.26-6.78-6.027-11.302M307.858 20.59c-3.363-1.834-4.892-.305-6.114-1.834-1.225-1.529 3.362-5.504-5.81-9.478 0 0-.612-8.56-13.147-8.866-12.534-.306-9.171 8.56-12.534 10.7-3.365 2.14-4.281-1.222-7.644.918-3.364 2.14-1.835 6.42-4.586 7.032-2.752.61-6.42-2.751-9.783-.611-3.363 2.14-3.363 3.974-4.892 3.974-1.529 0-4.587-1.223-6.42 0-1.835 1.223-3.975 2.752-3.975 2.752h77.351s.917-2.752-2.446-4.586M199.108 179.302c-3.363-1.833-4.891-.304-6.113-1.833-1.225-1.53 3.361-5.504-5.81-9.478 0 0-.613-8.56-13.147-8.866-12.535-.307-9.172 8.56-12.535 10.7-3.363 2.14-4.28-1.222-7.644.917-3.363 2.141-1.834 6.42-4.585 7.033-2.752.61-6.42-2.752-9.784-.612-3.363 2.14-3.363 3.974-4.892 3.974-1.528 0-4.586-1.222-6.42 0-1.835 1.224-3.974 2.752-3.974 2.752h77.351s.917-2.752-2.447-4.587" transform="translate(0 -44) translate(52 68.16)"/>
        </g>
        <path fill="#1A2E35" d="M1.788 271.106L485.389 271.106 485.389 266.7 1.788 266.7z" transform="translate(0 -44)"/>
        <path fill="#FFF" d="M372.722 269.3V58.703v210.599z" transform="translate(0 -44)"/>
        <path stroke="#1A2E35" stroke-linecap="round" stroke-linejoin="round" stroke-width="1.3" d="M372.722 269.301L372.722 58.702" transform="translate(0 -44)"/>
        <path fill="#FFF" d="M154.322 269.3V26.636v242.666z" transform="translate(0 -44)"/>
        <path stroke="#1A2E35" stroke-linecap="round" stroke-linejoin="round" stroke-width="1.3" d="M154.322 269.301L154.322 26.635" transform="translate(0 -44)"/>
        <path fill="#FFF" d="M14.898 149.43h453.034H14.898z" transform="translate(0 -44)"/>
        <path stroke="#1A2E35" stroke-linecap="round" stroke-linejoin="round" stroke-width="1.3" d="M14.898 149.431L467.931 149.431" transform="translate(0 -44)"/>
        <g>
            <path fill="#1A2E35" d="M54.586 50.22H32.963V37.03c0-2.382 1.932-4.313 4.314-4.313h12.997c2.382 0 4.312 1.931 4.312 4.313v13.19z" transform="translate(0 -44) translate(201.5 1.56)"/>
            <path fill="#FFF" d="M53.572 66.35c0 5.563-4.511 10.074-10.075 10.074-5.564 0-10.075-4.51-10.075-10.075 0-5.564 4.51-10.075 10.075-10.075 5.564 0 10.075 4.511 10.075 10.075" transform="translate(0 -44) translate(201.5 1.56)"/>
            <path fill="#1A2E35" d="M86.617 66.824L0.934 66.824 33.071 49.321 54.409 49.321z" transform="translate(0 -44) translate(201.5 1.56)"/>
        </g>
        <g fill="#1A2E35">
            <path d="M3.058 15.28c1.357.593 4.676.518 4.678.518.034 0-.713-2.173-.776-2.304-.73-1.524-3.031-4.038-4.905-3.786C.705 9.89-.047 11.242.26 12.513c.31 1.298 1.642 2.262 2.798 2.767" transform="translate(0 -44) translate(385.8 166.96)"/>
            <path d="M25.717 54.49c-1.136 2.617-2.182 4.75-2.932 6.232-.152.298-.289.564-.415.807h-.126c-.037-.29-.077-.606-.128-.96-.227-1.666-.588-4.04-1.149-6.863-.175-.893-.38-1.842-.6-2.817.22-.087 1.475-.596 2.585-1.216.968 1.048 3.447 2.275 3.768 2.431-.337.83-.674 1.633-1.003 2.387M46.532 3.983c-1.88-.202-4.113 2.374-4.801 3.917-.06.133-.748 2.325-.713 2.325l.04-.002c-.357.405-.732.841-1.134 1.328-.736.903-1.559 1.931-2.378 3.11-.823 1.176-1.683 2.476-2.466 3.927-.786 1.454-1.54 3.023-2.106 4.74l-.018.062c.01-.555-.013-2.104-.029-2.223-.217-1.675-1.62-4.782-3.48-5.126-1.339-.247-2.474.802-2.58 2.105-.11 1.33.855 2.66 1.796 3.502 1.06.946 4.004 1.864 4.238 1.937-.524 1.64-.928 3.367-1.244 5.136-.18 1.011-.33 2.036-.468 3.065-.006-.48-.017-.907-.025-.967-.217-1.674-1.62-4.782-3.478-5.126-1.342-.248-2.476.802-2.582 2.105-.11 1.33.857 2.661 1.796 3.5.955.854 3.45 1.687 4.111 1.899-.048.394-.101.789-.148 1.184-.228 1.897-.445 3.792-.716 5.644-.094.653-.212 1.292-.328 1.931-.007-.425-.016-.784-.022-.838-.217-1.675-1.62-4.782-3.48-5.125-1.34-.248-2.474.801-2.58 2.104-.11 1.33.855 2.662 1.795 3.502.91.812 3.205 1.603 3.993 1.858-.139.65-.274 1.305-.438 1.93-.12.424-.208.841-.354 1.261-.135.419-.269.832-.4 1.243-.285.78-.573 1.588-.868 2.342-.203.527-.406 1.025-.607 1.527.101-.65.275-1.922.278-2.031.024-1.12-.372-2.944-1.166-4.226.005-.165-.004-.33-.03-.494-.208-1.291-1.42-2.25-2.737-1.898-1.828.486-2.985 3.693-3.072 5.38-.006.098.06 1.183.112 1.869-.09-.398-.177-.786-.277-1.194-.19-.807-.405-1.608-.634-2.471l-.378-1.25c-.117-.42-.296-.848-.441-1.277-.362-.99-.776-1.972-1.216-2.954.708-.17 3.21-.807 4.216-1.58 1-.766 2.062-2.022 2.052-3.357-.01-1.308-1.062-2.44-2.417-2.291-1.88.204-3.511 3.198-3.853 4.852-.02.104-.132 1.317-.18 1.985-.269-.588-.534-1.175-.825-1.763-.84-1.691-1.743-3.377-2.637-5.065-.274-.516-.54-1.035-.81-1.55.253-.058 3.244-.753 4.37-1.617 1-.767 2.062-2.022 2.051-3.358-.009-1.307-1.06-2.438-2.415-2.29-1.881.204-3.511 3.198-3.853 4.851-.026.125-.184 1.872-.2 2.318-.593-1.14-1.173-2.281-1.698-3.43-.728-1.582-1.354-3.176-1.846-4.765.118-.026 3.242-.737 4.396-1.621 1-.768 2.062-2.024 2.052-3.36-.01-1.306-1.062-2.437-2.417-2.29-1.88.206-3.511 3.2-3.852 4.853-.027.13-.196 2.01-.203 2.352-.028-.094-.069-.189-.097-.284-.503-1.703-.778-3.415-.956-5.032-.105-.938-.153-1.842-.182-2.722.597-.073 3.315-.434 4.44-1.117 1.079-.652 2.272-1.785 2.41-3.112.133-1.3-.79-2.54-2.152-2.543-1.891-.002-3.841 2.795-4.361 4.4-.027.088-.218 1.007-.347 1.679-.005-.396-.02-.807-.017-1.188.003-1.43.092-2.74.18-3.898.058-.657.122-1.253.188-1.808.547-.376 2.732-1.92 3.406-3.022.656-1.078 1.193-2.632.703-3.873-.48-1.216-1.87-1.892-3.08-1.266-1.68.868-2.121 4.25-1.844 5.915.024.144.659 2.351.687 2.332l.034-.022c-.074.533-.148 1.106-.214 1.733-.115 1.16-.234 2.47-.268 3.905-.038 1.434-.038 2.994.11 4.636.146 1.647.384 3.372.86 5.117.005.019.011.039.018.058-.296-.467-1.173-1.745-1.252-1.836-1.104-1.277-3.988-3.095-5.729-2.355-1.255.532-1.621 2.033-.99 3.178.642 1.17 2.18 1.749 3.427 1.93 1.408.206 4.371-.654 4.605-.723.47 1.659 1.083 3.321 1.797 4.97.407.945.847 1.88 1.3 2.815-.27-.395-.514-.747-.554-.793-1.105-1.276-3.99-3.094-5.73-2.355-1.255.533-1.622 2.033-.992 3.178.642 1.17 2.182 1.749 3.43 1.93 1.266.185 3.807-.496 4.475-.686.178.357.352.715.53 1.07.858 1.709 1.721 3.409 2.517 5.103.28.597.534 1.195.793 1.793-.242-.353-.447-.647-.484-.687-1.103-1.278-3.988-3.095-5.729-2.355-1.254.531-1.62 2.033-.99 3.178.642 1.169 2.18 1.749 3.428 1.93 1.209.176 3.56-.432 4.356-.653.243.62.49 1.24.7 1.85.132.422.29.819.4 1.248l.351 1.258c.194.809.4 1.64.57 2.434.12.55.226 1.077.335 1.606-.273-.596-.83-1.755-.888-1.846-.898-1.43-3.475-3.663-5.307-3.196-1.32.336-1.91 1.764-1.462 2.992.459 1.253 1.893 2.058 3.098 2.427 1.327.406 4.268.035 4.634-.014.177.879.34 1.734.48 2.545.495 2.807.8 5.164.992 6.815.034.293.062.555.088.802h-5.69l2.079 40.543h9.695l2.078-40.543h-5.302l.118-.243c.728-1.516 1.736-3.695 2.827-6.36.345-.84.7-1.745 1.053-2.68.356.075 3.265.665 4.621.36 1.23-.278 2.72-.974 3.271-2.19.54-1.19.057-2.66-1.234-3.093-1.792-.602-4.529 1.434-5.531 2.792-.059.08-.603 1.022-.938 1.621.142-.382.286-.751.427-1.146.287-.78.55-1.567.834-2.412l.375-1.252c.134-.414.222-.87.338-1.309.242-1.023.44-2.072.615-3.134.684.25 3.124 1.097 4.386 1.009 1.258-.089 2.837-.55 3.563-1.67.714-1.094.46-2.62-.751-3.243-1.68-.867-4.692.73-5.89 1.921-.075.074-.836 1.026-1.246 1.556.1-.638.204-1.275.285-1.924.233-1.875.41-3.78.595-5.68.056-.582.12-1.16.18-1.74.243.091 3.121 1.162 4.537 1.062 1.258-.087 2.835-.55 3.563-1.668.714-1.096.459-2.62-.751-3.245-1.681-.865-4.695.732-5.89 1.923-.09.09-1.186 1.46-1.448 1.823.136-1.278.281-2.55.476-3.798.268-1.722.625-3.396 1.09-4.993.113.043 3.112 1.175 4.561 1.073 1.259-.089 2.837-.55 3.565-1.67.712-1.094.459-2.62-.753-3.243-1.68-.867-4.692.73-5.889 1.921-.093.094-1.271 1.57-1.466 1.852.028-.095.047-.197.076-.292.52-1.697 1.235-3.278 1.978-4.724.43-.841.888-1.621 1.35-2.371.537.268 3.005 1.466 4.32 1.518 1.259.051 2.879-.235 3.726-1.267.828-1.01.742-2.553-.391-3.306-1.576-1.047-4.745.21-6.066 1.264-.071.057-.738.718-1.215 1.209.214-.336.429-.686.64-1.001.79-1.191 1.588-2.234 2.303-3.152.41-.517.79-.979 1.153-1.405.663-.012 3.338-.094 4.507-.642 1.141-.536 2.448-1.537 2.723-2.842.27-1.28-.516-2.61-1.87-2.755" transform="translate(0 -44) translate(385.8 166.96)"/>
            <path d="M36.627 16.01c.028.018.603-2.206.622-2.35.234-1.672-.3-5.04-2.003-5.862-1.226-.593-2.597.12-3.043 1.348-.457 1.253.122 2.793.807 3.852.805 1.243 3.614 3.01 3.617 3.012" transform="translate(0 -44) translate(385.8 166.96)"/>
        </g>
        <path fill="#2B2D3A" d="M145.176 218.67L134.694 249.592 124.476 319.455 86.597 413.704 98.493 413.704 153.598 323.716 170.572 268.147 194.364 326.231 198.563 414.404 211.129 414.404 218.858 320.632 203.457 248.082 200.173 232.679z" transform="translate(0 -44)"/>
        <path stroke="#1A2E35" stroke-linecap="round" stroke-linejoin="round" stroke-width="1.3" d="M145.176 218.67L134.694 249.592 124.476 319.455 86.597 413.704 98.493 413.704 153.598 323.716 170.572 268.147 194.364 326.231 198.563 414.404 211.129 414.404 218.858 320.632 203.457 248.082 200.173 232.679z" transform="translate(0 -44)"/>
        <g>
            <path fill="#14B4F0" d="M134.902 33.177s-19.164-3.194-36.587.58c-17.421 3.776-40.592 11.174-57.589 23.214-4.703 3.332-9.56 8.498-9.56 8.498l12.701 9.529s20.544-5.586 27.312-5.634c5.079-.034 11.748-1.052 11.748-1.052l-16.75 47.098s-.872 11.325 11.324 16.261c12.195 4.936 34.876 7.662 43.972.665 4.79-3.685 27.658-62.863 27.658-62.863s6.701 34.79 8.734 40.016c2.034 5.226 6.097 9.583 6.097 9.583l12.778-9.583s-6.993-34.208-9.607-45.533c-2.613-11.325-12.485-29.037-32.23-30.78" transform="translate(0 -44) translate(79 103.26)"/>
            <path stroke="#1A2E35" stroke-linecap="round" stroke-linejoin="round" stroke-width="1.3" d="M134.902 33.177s-19.164-3.194-36.587.58c-17.421 3.776-40.592 11.174-57.589 23.214-4.703 3.332-9.56 8.498-9.56 8.498l12.701 9.529s20.544-5.586 27.312-5.634c5.079-.034 11.748-1.052 11.748-1.052l-16.75 47.098s-.872 11.325 11.324 16.261c12.195 4.936 34.876 7.662 43.972.665 4.79-3.685 27.658-62.863 27.658-62.863s6.701 34.79 8.734 40.016c2.034 5.226 6.097 9.583 6.097 9.583l12.778-9.583s-6.993-34.208-9.607-45.533c-2.613-11.325-12.485-29.037-32.23-30.78z" transform="translate(0 -44) translate(79 103.26)"/>
            <path stroke="#1A2E35" stroke-linecap="round" stroke-linejoin="round" stroke-width="1.3" d="M102.962 65.698L82.926 68.311 98.607 72.376M102.38 36.952s6.97 11.615.582 23.52" transform="translate(0 -44) translate(79 103.26)"/>
            <g>
                <path fill="#FFF" d="M0.631 2.173L13.988 0.141" transform="translate(0 -44) translate(79 103.26) translate(148.5 67.3)"/>
                <path stroke="#1A2E35" stroke-linecap="round" stroke-linejoin="round" stroke-width="1.3" d="M0.631 2.173L13.988 0.141" transform="translate(0 -44) translate(79 103.26) translate(148.5 67.3)"/>
            </g>
            <g>
                <path fill="#FFF" d="M0.211 0.434L17.924 3.049" transform="translate(0 -44) translate(79 103.26) translate(149.5 70.2)"/>
                <path stroke="#1A2E35" stroke-linecap="round" stroke-linejoin="round" stroke-width="1.3" d="M0.211 0.434L17.924 3.049" transform="translate(0 -44) translate(79 103.26) translate(149.5 70.2)"/>
            </g>
            <path fill="#14B4F0" d="M133.45 29.693s-9.29 2.902-11.615 5.807c-2.322 2.904-2.322 30.489-2.322 30.489l11.906-2.613 10.162 7.84s-.58-16.552-2.323-27.876c-1.742-11.324-5.807-13.647-5.807-13.647" transform="translate(0 -44) translate(79 103.26)"/>
            <path stroke="#1A2E35" stroke-linecap="round" stroke-linejoin="round" stroke-width="1.3" d="M133.45 29.693s-9.29 2.902-11.615 5.807c-2.322 2.904-2.322 30.489-2.322 30.489l11.906-2.613 10.162 7.84s-.58-16.552-2.323-27.876c-1.742-11.324-5.807-13.647-5.807-13.647z" transform="translate(0 -44) translate(79 103.26)"/>
            <path fill="#FFF" d="M137.806 22.433s-7.55 10.744-9.29 13.067c-1.744 2.323-.582 14.808.29 19.164.87 4.357 2.612 8.712 2.612 8.712l11.906-12.487s-4.647-5.516-3.776-12.485c.871-6.97 4.647-14.519 4.355-16.552-.29-2.032-6.097.581-6.097.581" transform="translate(0 -44) translate(79 103.26)"/>
            <path stroke="#1A2E35" stroke-linecap="round" stroke-linejoin="round" stroke-width="1.3" d="M137.806 22.433s-7.55 10.744-9.29 13.067c-1.744 2.323-.582 14.808.29 19.164.87 4.357 2.612 8.712 2.612 8.712l11.906-12.487s-4.647-5.516-3.776-12.485c.871-6.97 4.647-14.519 4.355-16.552-.29-2.032-6.097.581-6.097.581z" transform="translate(0 -44) translate(79 103.26)"/>
            <path fill="#FFF" d="M137.516 27.37s-5.228 12.776-4.066 17.422c1.163 4.646 13.358 15.39 19.165 13.647 5.807-1.742 6.678-12.486 6.678-12.486s2.613 1.16 3.484.58c.872-.58 1.162-7.84 1.162-7.84s2.613-2.902 3.776-4.644c1.162-1.744 2.031-3.776 2.031-3.776s9.584-.29 8.713-9C177.587 12.56 161.326.073 149.711.073c-11.614 0-15.97 13.358-15.97 17.423 0 4.065 3.775 9.872 3.775 9.872" transform="translate(0 -44) translate(79 103.26)"/>
            <path stroke="#1A2E35" stroke-linecap="round" stroke-linejoin="round" stroke-width="1.3" d="M137.516 27.37s-5.228 12.776-4.066 17.422c1.163 4.646 13.358 15.39 19.165 13.647 5.807-1.742 6.678-12.486 6.678-12.486s2.613 1.16 3.484.58c.872-.58 1.162-7.84 1.162-7.84s2.613-2.902 3.776-4.644c1.162-1.744 2.031-3.776 2.031-3.776s9.584-.29 8.713-9C177.587 12.56 161.326.073 149.711.073c-11.614 0-15.97 13.358-15.97 17.423 0 4.065 3.775 9.872 3.775 9.872z" transform="translate(0 -44) translate(79 103.26)"/>
            <g>
                <path fill="#FFF" d="M7.025 4.141S4.17.881.095.881" transform="translate(0 -44) translate(79 103.26) translate(152.1 32.5)"/>
                <path stroke="#1A2E35" stroke-linecap="round" stroke-linejoin="round" stroke-width="1.3" d="M7.025 4.141S4.17.881.095.881" transform="translate(0 -44) translate(79 103.26) translate(152.1 32.5)"/>
            </g>
            <g>
                <path fill="#FFF" d="M4.508.455L3.476 2.213S1.03 2.85.099 1.36" transform="translate(0 -44) translate(79 103.26) translate(152.1 37.7)"/>
                <path stroke="#1A2E35" stroke-linecap="round" stroke-linejoin="round" stroke-width="1.3" d="M4.508.455L3.476 2.213S1.03 2.85.099 1.36" transform="translate(0 -44) translate(79 103.26) translate(152.1 37.7)"/>
            </g>
            <path fill="#1A2E35" d="M153.196 49.728c4.356-.58 4.356 1.161 4.356 1.161-1.583 3.671-2.323 2.904-3.775 2.323-1.452-.58-4.936-2.904-.581-3.484m25.263-28.457C177.586 12.56 161.326.075 149.712.075c-11.616 0-15.97 13.357-15.97 17.422 0 4.064 3.773 9.873 3.773 9.873s-5.226 12.776-4.064 17.422c1.161 4.645 13.356 15.39 19.164 13.648 4.583-1.376 6.087-8.339 6.52-11.222-4.132-4.453-10.305.28-13.78 1.348-3.775 1.162-7.549-4.065-7.549-6.968 0-2.904 3.774-10.744 4.646-12.197.871-1.45 5.516-.29 8.13-.58 2.614-.29-1.16-4.646-.58-7.26.58-2.613 9.292 6.39 12.776 8.422 3.484 2.033 6.97.29 6.97.29s9.582-.29 8.71-9.002" transform="translate(0 -44) translate(79 103.26)"/>
            <path stroke="#1A2E35" stroke-linecap="round" stroke-linejoin="round" stroke-width="1.3" d="M153.196 49.728c4.356-.58 4.356 1.161 4.356 1.161-1.583 3.671-2.323 2.904-3.775 2.323-1.452-.58-4.936-2.904-.581-3.484zm25.263-28.457C177.586 12.56 161.326.075 149.712.075c-11.616 0-15.97 13.357-15.97 17.422 0 4.064 3.773 9.873 3.773 9.873s-5.226 12.776-4.064 17.422c1.161 4.645 13.356 15.39 19.164 13.648 4.583-1.376 6.087-8.339 6.52-11.222-4.132-4.453-10.305.28-13.78 1.348-3.775 1.162-7.549-4.065-7.549-6.968 0-2.904 3.774-10.744 4.646-12.197.871-1.45 5.516-.29 8.13-.58 2.614-.29-1.16-4.646-.58-7.26.58-2.613 9.292 6.39 12.776 8.422 3.484 2.033 6.97.29 6.97.29s9.582-.29 8.71-9.002z" transform="translate(0 -44) translate(79 103.26)"/>
            <g>
                <path fill="#FFF" d="M7.077 6.583S7.948.775 4.464.194C.98-.386.69 4.551.69 7.744c0 3.195 3.775 3.195 5.517 2.614" transform="translate(0 -44) translate(79 103.26) translate(131.6 23.4)"/>
                <path stroke="#1A2E35" stroke-linecap="round" stroke-linejoin="round" stroke-width="1.3" d="M7.077 6.583S7.948.775 4.464.194C.98-.386.69 4.551.69 7.744c0 3.195 3.775 3.195 5.517 2.614" transform="translate(0 -44) translate(79 103.26) translate(131.6 23.4)"/>
            </g>
            <path stroke="#FFF" stroke-linecap="round" stroke-linejoin="round" stroke-width=".65" d="M136.488 13.733c-.744.478-1.353 1.064-1.779 1.704M159.856 24.7s-5.824-2.117-11.117-8.205c-3.105-3.571-6.666-4.41-9.507-3.852M147.944 26.29s-2.647-9-13.5-6.09" transform="translate(0 -44) translate(79 103.26)"/>
            <path fill="#14B4F0" d="M28.687 79.988s3.856-6.15 8.793-4.409c4.936 1.742 9.581 6.097 9.581 6.097l4.356-6.969s.871-7.26-6.969-11.033c-7.84-3.775-12.195-.581-12.195-.581-2.986.556-6.747 15.218-3.566 16.895" transform="translate(0 -44) translate(79 103.26)"/>
            <path stroke="#1A2E35" stroke-linecap="round" stroke-linejoin="round" stroke-width="1.3" d="M28.687 79.988s3.856-6.15 8.793-4.409c4.936 1.742 9.581 6.097 9.581 6.097l4.356-6.969s.871-7.26-6.969-11.033c-7.84-3.775-12.195-.581-12.195-.581-2.986.556-6.747 15.218-3.566 16.895z" transform="translate(0 -44) translate(79 103.26)"/>
            <path fill="#14B4F0" d="M177.901 103.681s-7.55 2.034-12.776 5.809c-5.228 3.774-6.099 8.71-6.099 8.71s6.679 7.259 8.13 7.259c1.454 0 12.487-12.195 13.648-13.356 1.162-1.162-2.903-8.422-2.903-8.422" transform="translate(0 -44) translate(79 103.26)"/>
            <path stroke="#1A2E35" stroke-linecap="round" stroke-linejoin="round" stroke-width="1.3" d="M177.901 103.681s-7.55 2.034-12.776 5.809c-5.228 3.774-6.099 8.71-6.099 8.71s6.679 7.259 8.13 7.259c1.454 0 12.487-12.195 13.648-13.356 1.162-1.162-2.903-8.422-2.903-8.422z" transform="translate(0 -44) translate(79 103.26)"/>
            <path fill="#FFF" d="M229.006 136.494s-.29 4.065-1.452 4.936c-1.162.87-6.388 0-6.388 0s-3.484-4.936-2.033-6.968c1.452-2.033 4.065-1.454 5.808-.871 1.742.58 4.065 2.903 4.065 2.903" transform="translate(0 -44) translate(79 103.26)"/>
            <path stroke="#1A2E35" stroke-linecap="round" stroke-linejoin="round" stroke-width="1.3" d="M229.006 136.494s-.29 4.065-1.452 4.936c-1.162.87-6.388 0-6.388 0s-3.484-4.936-2.033-6.968c1.452-2.033 4.065-1.454 5.808-.871 1.742.58 4.065 2.903 4.065 2.903z" transform="translate(0 -44) translate(79 103.26)"/>
            <path fill="#FFF" d="M180.805 112.102l31.068 15.97 11.325 1.453s13.938 6.97 13.938 8.13c0 1.162-1.452 1.742-2.614 1.45-1.16-.288-9.581-3.773-11.324-3.773-1.741 0-3.194.58-2.903 2.033.29 1.452 4.356 7.55 2.032 7.55-2.323 0-4.645-5.81-5.806-6.389-1.162-.581-5.227-4.936-5.227-4.936s-26.715-5.517-32.812-6.388c-6.099-.871-9.583-3.484-9.583-3.484l11.906-11.616z" transform="translate(0 -44) translate(79 103.26)"/>
            <path stroke="#1A2E35" stroke-linecap="round" stroke-linejoin="round" stroke-width="1.3" d="M180.805 112.102l31.068 15.97 11.325 1.453s13.938 6.97 13.938 8.13c0 1.162-1.452 1.742-2.614 1.45-1.16-.288-9.581-3.773-11.324-3.773-1.741 0-3.194.58-2.903 2.033.29 1.452 4.356 7.55 2.032 7.55-2.323 0-4.645-5.81-5.806-6.389-1.162-.581-5.227-4.936-5.227-4.936s-26.715-5.517-32.812-6.388c-6.099-.871-9.583-3.484-9.583-3.484l11.906-11.616z" transform="translate(0 -44) translate(79 103.26)"/>
            <path fill="#FFF" d="M34.82 127.343s-3.89 6.22-2.829 11.341c1.061 5.12 10.608 27.437 17.682 47.922 7.073 20.487 5.658 42.803 5.658 49.387 0 6.586-.353 11.341 4.597 13.902 4.952 2.56 12.731 1.096 14.853-3.66 2.123-4.755 3.537-35.119-.354-53.41-3.89-18.29-17.681-50.484-21.217-57.8-3.537-7.317-5.305-17.56-18.39-7.682" transform="translate(0 -44) translate(79 103.26)"/>
        </g>
        <g transform="translate(0 -44) translate(110.5 226.46)">
            <mask id="prefix__b" fill="#fff">
                <use xlink:href="#prefix__a"/>
            </mask>
            <path fill="#000" d="M3.32 4.143S-.57 10.363.491 15.484c1.061 5.12 10.608 27.437 17.682 47.922 7.073 20.487 5.658 42.803 5.658 49.387 0 6.586-.353 11.341 4.597 13.902 4.952 2.56 12.731 1.096 14.853-3.66 2.123-4.755 3.537-35.119-.354-53.41-3.89-18.29-17.681-50.484-21.217-57.8-3.537-7.317-5.305-17.56-18.39-7.682" mask="url(#prefix__b)"/>
            <g>
                <mask id="prefix__d" fill="#fff">
                    <use xlink:href="#prefix__c"/>
                </mask>
                <path fill="#000" d="M-1.88 8.043s-3.89 6.22-2.829 11.341c1.061 5.12 10.608 27.437 17.682 47.922 7.073 20.487 5.658 42.803 5.658 49.387 0 6.586-.353 11.341 4.597 13.902 4.952 2.56 12.731 1.096 14.853-3.66 2.123-4.755 3.537-35.119-.354-53.41-3.89-18.29-17.681-50.484-21.217-57.8-3.537-7.317-5.305-17.56-18.39-7.682" mask="url(#prefix__d)"/>
            </g>
        </g>
        <g>
            <path stroke="#1A2E35" stroke-linecap="round" stroke-linejoin="round" stroke-width="1.3" d="M7.22 60.043s-3.89 6.22-2.829 11.341C5.452 76.504 15 98.821 22.073 119.306c7.073 20.487 5.658 42.803 5.658 49.387 0 6.586-.353 11.341 4.597 13.902 4.952 2.56 12.731 1.096 14.853-3.66 2.123-4.755 3.537-35.119-.354-53.41-3.89-18.29-17.681-50.484-21.217-57.8-3.537-7.317-5.305-17.56-18.39-7.682z" transform="translate(0 -44) translate(106.6 170.56)"/>
            <path fill="#FFF" d="M1.749 8.57S.732 17.997 4.627 28.621C6.907 34.84 19.03 54.44 19.03 54.44S8.868 58.215 5.964 60.828C3.059 63.44-.425 71.862 1.317 72.153c1.742.29 8.13-6.97 9.583-7.55 1.452-.581 9.872-1.162 9.872-1.162s-1.737 2.388-3.086 4.576c-.858 1.39-1.559 2.7-1.559 3.264 0 1.452 2.032 1.161 3.194-1.162 1.161-2.322 4.645-2.032 5.806-7.26 1.162-5.225-.58-11.032-.58-11.032l-5.085-37.45S14.189 3.834 1.749 8.568" transform="translate(0 -44) translate(106.6 170.56)"/>
            <path stroke="#1A2E35" stroke-linecap="round" stroke-linejoin="round" stroke-width="1.3" d="M1.749 8.57S.732 17.997 4.627 28.621C6.907 34.84 19.03 54.44 19.03 54.44S8.868 58.215 5.964 60.828C3.059 63.44-.425 71.862 1.317 72.153c1.742.29 8.13-6.97 9.583-7.55 1.452-.581 9.872-1.162 9.872-1.162s-1.737 2.388-3.086 4.576c-.858 1.39-1.559 2.7-1.559 3.264 0 1.452 2.032 1.161 3.194-1.162 1.161-2.322 4.645-2.032 5.806-7.26 1.162-5.225-.58-11.032-.58-11.032l-5.085-37.45S14.189 3.834 1.749 8.568zM1.317 72.153s4.026-8.668 8.457-10.145M2.39 67.176s3.323-4.8 6.646-7.014" transform="translate(0 -44) translate(106.6 170.56)"/>
            <path fill="#FFF" d="M77.415 224.05L82.161 224.05 82.161 178.322 77.415 178.322z" transform="translate(0 -44) translate(106.6 170.56)"/>
            <path stroke="#1A2E35" stroke-linecap="round" stroke-linejoin="round" stroke-width="1.3" d="M77.415 224.05L82.161 224.05 82.161 178.322 77.415 178.322z" transform="translate(0 -44) translate(106.6 170.56)"/>
            <path fill="#FFF" d="M67.924 192.924L91.654 192.924 91.654 178.323 67.924 178.323z" transform="translate(0 -44) translate(106.6 170.56)"/>
            <path stroke="#1A2E35" stroke-linecap="round" stroke-linejoin="round" stroke-width="1.3" d="M67.924 192.924L91.654 192.924 91.654 178.323 67.924 178.323z" transform="translate(0 -44) translate(106.6 170.56)"/>
            <path fill="#FFF" d="M94.91 100.2s32.07-5.051 35.1-5.554c3.03-.506 8.84 3.533 11.617 5.555 2.777 2.02 15.404 9.595 13.888 10.1-1.514.505-6.566-1.515-9.847-2.777-3.283-1.263-5.809-2.273-5.809-2.273s2.778 3.788 4.04 4.797c1.263 1.012.759 1.77-2.777.254s-6.315-4.04-7.576-6.062c-1.263-2.02-3.283-5.555-3.283-5.555s-27.777 10.354-32.324 11.869c-4.546 1.516-11.615 1.516-11.363-3.284.252-4.797 8.333-7.07 8.333-7.07" transform="translate(0 -44) translate(106.6 170.56)"/>
            <path stroke="#1A2E35" stroke-linecap="round" stroke-linejoin="round" stroke-width="1.3" d="M94.91 100.2s32.07-5.051 35.1-5.554c3.03-.506 8.84 3.533 11.617 5.555 2.777 2.02 15.404 9.595 13.888 10.1-1.514.505-6.566-1.515-9.847-2.777-3.283-1.263-5.809-2.273-5.809-2.273s2.778 3.788 4.04 4.797c1.263 1.012.759 1.77-2.777.254s-6.315-4.04-7.576-6.062c-1.263-2.02-3.283-5.555-3.283-5.555s-27.777 10.354-32.324 11.869c-4.546 1.516-11.615 1.516-11.363-3.284.252-4.797 8.333-7.07 8.333-7.07z" transform="translate(0 -44) translate(106.6 170.56)"/>
            <path fill="#FFF" d="M141.627 100.2c-2.779-2.02-8.586-6.06-11.617-5.554-1.606.268-11.364 1.81-20.185 3.202l1.124 7.996c9.065-3.34 19.314-7.16 19.314-7.16s2.02 3.537 3.283 5.556c1.262 2.021 4.04 4.546 7.575 6.062 3.536 1.516 4.042.758 2.778-.254-1.262-1.009-4.04-4.797-4.04-4.797s2.525 1.01 5.808 2.273c3.282 1.262 8.334 3.282 9.849 2.778 1.516-.506-11.111-8.081-13.89-10.101" transform="translate(0 -44) translate(106.6 170.56)"/>
            <path stroke="#1A2E35" stroke-linecap="round" stroke-linejoin="round" stroke-width="1.3" d="M141.627 100.2c-2.779-2.02-8.586-6.06-11.617-5.554-1.606.268-11.364 1.81-20.185 3.202l1.124 7.996c9.065-3.34 19.314-7.16 19.314-7.16s2.02 3.537 3.283 5.556c1.262 2.021 4.04 4.546 7.575 6.062 3.536 1.516 4.042.758 2.778-.254-1.262-1.009-4.04-4.797-4.04-4.797s2.525 1.01 5.808 2.273c3.282 1.262 8.334 3.282 9.849 2.778 1.516-.506-11.111-8.081-13.89-10.101zM143.394 102.978L155.515 110.301" transform="translate(0 -44) translate(106.6 170.56)"/>
            <path fill="#1A2E35" d="M119.967 20.634s7.07-4.547 5.809-9.597C124.513 5.987 103.553-1.589 93.452.684 83.35 2.956 80.068 13.31 77.29 20.886c-2.776 7.575-14.141 40.152-14.141 40.152s8.334 9.343 18.94 4.546c10.606-4.8 20.202-30.809 25-36.112 4.798-5.304 12.88-8.838 12.88-8.838" transform="translate(0 -44) translate(106.6 170.56)"/>
            <path stroke="#1A2E35" stroke-linecap="round" stroke-linejoin="round" stroke-width="1.3" d="M119.967 20.634s7.07-4.547 5.809-9.597C124.513 5.987 103.553-1.589 93.452.684 83.35 2.956 80.068 13.31 77.29 20.886c-2.776 7.575-14.141 40.152-14.141 40.152s8.334 9.343 18.94 4.546c10.606-4.8 20.202-30.809 25-36.112 4.798-5.304 12.88-8.838 12.88-8.838z" transform="translate(0 -44) translate(106.6 170.56)"/>
            <path stroke="#FFF" stroke-linecap="round" stroke-linejoin="round" stroke-width=".65" d="M112.668 4.253s4.5 3.176 5.823 6.088c1.324 2.912-.264 4.5-.264 4.5" transform="translate(0 -44) translate(106.6 170.56)"/>
            <path stroke="#FFF" stroke-linecap="round" stroke-linejoin="round" stroke-width=".65" d="M116.109 7.165s-7.94 8.735-18.794 13.5C86.462 25.428 79.05 29.4 75.61 33.37M72.054 40.055c-.558 1.26-1.053 2.56-1.473 3.904" transform="translate(0 -44) translate(106.6 170.56)"/>
            <path stroke="#FFF" stroke-linecap="round" stroke-linejoin="round" stroke-width=".65" d="M102.952 8.298c-1.772 1.734-4.208 3.866-7.49 6.28-7.357 5.408-16.482 12.587-21.882 22.4M107.11 3.46s-.418.71-1.487 1.98" transform="translate(0 -44) translate(106.6 170.56)"/>
            <path fill="#FFF" d="M81.078 47.148s-18.182 7.829-23.484 10.607c-5.304 2.778-6.314 8.333-6.314 13.131 0 4.797 6.818 40.91 6.818 40.91h29.799s5.302-10.607 9.09-14.141c3.787-3.536 6.818-10.608 5.303-15.405-1.516-4.797-3.03-7.323-3.03-12.122 0-4.798-1.01-10.858-4.798-14.647-3.789-3.787-5.807-9.848-13.384-8.333" transform="translate(0 -44) translate(106.6 170.56)"/>
            <path stroke="#1A2E35" stroke-linecap="round" stroke-linejoin="round" stroke-width="1.3" d="M81.078 47.148s-18.182 7.829-23.484 10.607c-5.304 2.778-6.314 8.333-6.314 13.131 0 4.797 6.818 40.91 6.818 40.91h29.799s5.302-10.607 9.09-14.141c3.787-3.536 6.818-10.608 5.303-15.405-1.516-4.797-3.03-7.323-3.03-12.122 0-4.798-1.01-10.858-4.798-14.647-3.789-3.787-5.807-9.848-13.384-8.333z" transform="translate(0 -44) translate(106.6 170.56)"/>
            <path fill="#FFF" d="M143.822 184.573c.64 3.295 3.283 7.394 4.589 10.53 2.645 6.351 7.385 16.419 10.26 22.68 4.097 8.916 7.164 20.46 6.616 21.247-.546.786-1.91 4.72-1.91 6.294 0 1.573 1.091 14.95 1.091 14.95h1.913l1.363-7.867s4.37.262 5.736 1.574c1.365 1.31 3.004 4.195 5.462 5.507 2.457 1.311 13.654 1.837 13.654 1.837s1.911-1.05-.546-3.15c-2.458-2.096-6.281-4.982-8.465-8.13-2.186-3.148-8.467-10.753-8.467-10.753s-14.2-77.882-15.292-81.291c-1.092-3.41-4.644-10.754-7.92-11.54-3.277-.788-14.474-1.836-14.474-1.836L136.886 158s2.58-.522 5.586 5.512c1.84 3.695-.54 11.34 1.35 21.06" transform="translate(0 -44) translate(106.6 170.56)"/>
            <path stroke="#1A2E35" stroke-linecap="round" stroke-linejoin="round" stroke-width="1.3" d="M143.822 184.573c.64 3.295 3.283 7.394 4.589 10.53 2.645 6.351 7.385 16.419 10.26 22.68 4.097 8.916 7.164 20.46 6.616 21.247-.546.786-1.91 4.72-1.91 6.294 0 1.573 1.091 14.95 1.091 14.95h1.913l1.363-7.867s4.37.262 5.736 1.574c1.365 1.31 3.004 4.195 5.462 5.507 2.457 1.311 13.654 1.837 13.654 1.837s1.911-1.05-.546-3.15c-2.458-2.096-6.281-4.982-8.465-8.13-2.186-3.148-8.467-10.753-8.467-10.753s-14.2-77.882-15.292-81.291c-1.092-3.41-4.644-10.754-7.92-11.54-3.277-.788-14.474-1.836-14.474-1.836L136.886 158s2.58-.522 5.586 5.512c1.84 3.695-.54 11.34 1.35 21.06z" transform="translate(0 -44) translate(106.6 170.56)"/>
            <path fill="#FFF" d="M151.988 141.341s11.906 3.328 11.162 5.888c-.745 2.56-18.603 56.032-25.299 68.576-6.696 12.546-9.177 22.53-8.433 25.604.745 3.072 6.944 13.056 8.93 14.592 1.983 1.537 6.944 4.096 6.2 4.353-.744.254-11.41.51-15.874 0-1.22-.14-8.185-8.45-9.425-8.961l-1.24-.513v9.217h-2.729l-.992-14.08s1.24-4.354 3.721-7.17c2.48-2.815 4.96-5.887 7.193-13.569 2.232-7.68 10.417-47.071 11.657-55.007 1.24-7.937 4.464-14.85 4.464-14.85l10.665-14.08z" transform="translate(0 -44) translate(106.6 170.56)"/>
            <path stroke="#1A2E35" stroke-linecap="round" stroke-linejoin="round" stroke-width="1.3" d="M151.988 141.341s11.906 3.328 11.162 5.888c-.745 2.56-18.603 56.032-25.299 68.576-6.696 12.546-9.177 22.53-8.433 25.604.745 3.072 6.944 13.056 8.93 14.592 1.983 1.537 6.944 4.096 6.2 4.353-.744.254-11.41.51-15.874 0-1.22-.14-8.185-8.45-9.425-8.961l-1.24-.513v9.217h-2.729l-.992-14.08s1.24-4.354 3.721-7.17c2.48-2.815 4.96-5.887 7.193-13.569 2.232-7.68 10.417-47.071 11.657-55.007 1.24-7.937 4.464-14.85 4.464-14.85l10.665-14.08z" transform="translate(0 -44) translate(106.6 170.56)"/>
            <path fill="#00335D" d="M58.098 111.795s-2.273 28.031-2.525 37.122c-.253 9.09 7.322 17.93 17.677 18.94 10.353 1.008 71.97-7.325 71.97-7.325l10.102-18.432s-29.8-7.578-39.9-10.355c-10.101-2.778-19.698-4.545-19.698-4.545l-7.828-15.405H58.098z" transform="translate(0 -44) translate(106.6 170.56)"/>
            <path stroke="#1A2E35" stroke-linecap="round" stroke-linejoin="round" stroke-width="1.3" d="M58.098 111.795s-2.273 28.031-2.525 37.122c-.253 9.09 7.322 17.93 17.677 18.94 10.353 1.008 71.97-7.325 71.97-7.325l10.102-18.432s-29.8-7.578-39.9-10.355c-10.101-2.778-19.698-4.545-19.698-4.545l-7.828-15.405H58.098z" transform="translate(0 -44) translate(106.6 170.56)"/>
            <g>
                <path fill="#004B84" d="M1.694 6.148l5.05 8.838S4.978 5.642 3.968 2.36C2.957-.92.179.087.179 1.855c0 1.768 1.042 5.147 1.042 5.147" transform="translate(0 -44) translate(106.6 170.56) translate(91 55.9)"/>
                <path stroke="#1A2E35" stroke-linecap="round" stroke-linejoin="round" stroke-width="1.3" d="M1.694 6.148l5.05 8.838S4.978 5.642 3.968 2.36C2.957-.92.179.087.179 1.855c0 1.768 1.042 5.147 1.042 5.147" transform="translate(0 -44) translate(106.6 170.56) translate(91 55.9)"/>
            </g>
            <path fill="#FFF" d="M93.383 31.252L84.67 45.189l7.55 17.713s4.646-10.744 6.969-13.357c2.323-2.613 6.388-6.388 6.388-6.388s-7.26-8.711-7.84-11.034c-.582-2.323-3.774-3.194-4.355-.871" transform="translate(0 -44) translate(106.6 170.56)"/>
            <path stroke="#1A2E35" stroke-linecap="round" stroke-linejoin="round" stroke-width="1.3" d="M93.383 31.252L84.67 45.189l7.55 17.713s4.646-10.744 6.969-13.357c2.323-2.613 6.388-6.388 6.388-6.388s-7.26-8.711-7.84-11.034c-.582-2.323-3.774-3.194-4.355-.871z" transform="translate(0 -44) translate(106.6 170.56)"/>
            <path fill="#004B84" d="M83.098 42.603L78.552 47.148 86.634 70.381 92.695 62.048z" transform="translate(0 -44) translate(106.6 170.56)"/>
            <path stroke="#1A2E35" stroke-linecap="round" stroke-linejoin="round" stroke-width="1.3" d="M83.098 42.603L78.552 47.148 86.634 70.381 92.695 62.048z" transform="translate(0 -44) translate(106.6 170.56)"/>
            <g>
                <path fill="#FFF" d="M.468 20.924s13.131 29.547 15.91 35.607c2.776 6.061 8.838 7.322 14.393 7.322 5.555 0 40.404-1.009 40.404-1.009s19.192.757 22.474 0c3.284-.758 8.587-5.304 9.597-5.304 1.01 0 6.566 5.052 7.829 5.052 1.262 0 2.019-.758 1.01-2.526-1.01-1.768-5.05-9.595-7.829-9.849-2.777-.252-14.646 7.575-14.646 7.575s-19.697-2.776-30.05-5.554c-10.355-2.779-26.517-9.091-26.517-9.091S26.478 31.025 23.7 23.703c-2.778-7.325-3.282-17.172-8.334-21.214-5.05-4.039-11.363.506-11.363.506" transform="translate(0 -44) translate(106.6 170.56) translate(54.6 58.8)"/>
                <path stroke="#1A2E35" stroke-linecap="round" stroke-linejoin="round" stroke-width="1.3" d="M.468 20.924s13.131 29.547 15.91 35.607c2.776 6.061 8.838 7.322 14.393 7.322 5.555 0 40.404-1.009 40.404-1.009s19.192.757 22.474 0c3.284-.758 8.587-5.304 9.597-5.304 1.01 0 6.566 5.052 7.829 5.052 1.262 0 2.019-.758 1.01-2.526-1.01-1.768-5.05-9.595-7.829-9.849-2.777-.252-14.646 7.575-14.646 7.575s-19.697-2.776-30.05-5.554c-10.355-2.779-26.517-9.091-26.517-9.091S26.478 31.025 23.7 23.703c-2.778-7.325-3.282-17.172-8.334-21.214-5.05-4.039-11.363.506-11.363.506" transform="translate(0 -44) translate(106.6 170.56) translate(54.6 58.8)"/>
            </g>
            <path fill="#FFF" d="M158.857 109.018c-2.778-.252-14.647 7.575-14.647 7.575s-9.871-1.392-19.312-3.192l.25 8.262.628-.018s19.19.756 22.474 0c3.282-.758 8.585-5.304 9.597-5.304 1.01 0 6.565 5.051 7.827 5.051 1.263 0 2.02-.757 1.01-2.525-1.01-1.768-5.05-9.597-7.827-9.85" transform="translate(0 -44) translate(106.6 170.56)"/>
            <path stroke="#1A2E35" stroke-linecap="round" stroke-linejoin="round" stroke-width="1.3" d="M158.857 109.018c-2.778-.252-14.647 7.575-14.647 7.575s-9.871-1.392-19.312-3.192l.25 8.262.628-.018s19.19.756 22.474 0c3.282-.758 8.585-5.304 9.597-5.304 1.01 0 6.565 5.051 7.827 5.051 1.263 0 2.02-.757 1.01-2.525-1.01-1.768-5.05-9.597-7.827-9.85zM158.351 113.563s6.818 4.798 8.333 7.07M159.108 111.29L165.169 116.341" transform="translate(0 -44) translate(106.6 170.56)"/>
            <path fill="#FFF" d="M119.225 14.701s1.63 5.883 1.92 8.496c.291 2.613-1.742 4.065-.87 5.517.87 1.452 3.107 5.998 1.945 6.578-1.16.58-3.194.58-3.194.58s-5.318 9.898-6.479 11.641c-1.162 1.742-9.292-2.323-13.066-4.065-3.776-1.743-4.065-10.163-4.065-10.163l-.292-5.808s18.294-6.679 24.101-12.776" transform="translate(0 -44) translate(106.6 170.56)"/>
            <path stroke="#1A2E35" stroke-linecap="round" stroke-linejoin="round" stroke-width="1.3" d="M119.225 14.701s1.63 5.883 1.92 8.496c.291 2.613-1.742 4.065-.87 5.517.87 1.452 3.107 5.998 1.945 6.578-1.16.58-3.194.58-3.194.58s-5.318 9.898-6.479 11.641c-1.162 1.742-9.292-2.323-13.066-4.065-3.776-1.743-4.065-10.163-4.065-10.163l-.292-5.808s18.294-6.679 24.101-12.776z" transform="translate(0 -44) translate(106.6 170.56)"/>
            <g>
                <path fill="#FFF" d="M.563 2.172c3.764-4.57 3.716.484 3.716.484" transform="translate(0 -44) translate(106.6 170.56) translate(114.4 22.1)"/>
                <path stroke="#1A2E35" stroke-linecap="round" stroke-linejoin="round" stroke-width="1.3" d="M.563 2.172c3.764-4.57 3.716.484 3.716.484" transform="translate(0 -44) translate(106.6 170.56) translate(114.4 22.1)"/>
            </g>
            <path fill="#1A2E35" d="M116.76 29.701c-.334 1.062-.95 1.815-1.374 1.68-.426-.134-.498-1.103-.164-2.165.334-1.06.95-1.815 1.375-1.68.424.135.497 1.103.163 2.165" transform="translate(0 -44) translate(106.6 170.56)"/>
            <g>
                <path fill="#FFF" d="M7.457 6.1S5.425-1.16 3.102.293C.779 1.743-.384 7.263 1.94 10.165c2.323 2.903 6.098 1.162 6.098 1.162" transform="translate(0 -44) translate(106.6 170.56) translate(89.7 23.7)"/>
                <path stroke="#1A2E35" stroke-linecap="round" stroke-linejoin="round" stroke-width="1.3" d="M7.457 6.1S5.425-1.16 3.102.293C.779 1.743-.384 7.263 1.94 10.165c2.323 2.903 6.098 1.162 6.098 1.162" transform="translate(0 -44) translate(106.6 170.56) translate(89.7 23.7)"/>
            </g>
            <path fill="#FFF" d="M114.394 182.959l-65.61 2.07c-3.043.097-5.588-2.292-5.683-5.336l-.298-9.413c-.096-3.043 2.294-5.589 5.337-5.685l65.608-2.07c3.045-.097 5.589 2.292 5.685 5.336l.298 9.413c.096 3.043-2.293 5.589-5.337 5.685" transform="translate(0 -44) translate(106.6 170.56)"/>
        </g>
        <g transform="translate(0 -44) translate(149.2 333.06)">
            <mask id="prefix__f" fill="#fff">
                <use xlink:href="#prefix__e"/>
            </mask>
            <path fill="#000" d="M71.794 20.459l-65.61 2.07c-3.043.097-5.588-2.292-5.683-5.336L.203 7.78C.107 4.737 2.497 2.191 5.54 2.095L71.148.025c3.045-.097 5.589 2.292 5.685 5.336l.298 9.413c.096 3.043-2.293 5.589-5.337 5.685" mask="url(#prefix__f)"/>
            <g>
                <mask id="prefix__h" fill="#fff">
                    <use xlink:href="#prefix__g"/>
                </mask>
                <path fill="#000" d="M71.794 25.896l-65.61 2.071c-3.043.096-5.588-2.293-5.683-5.336l-.298-9.414C.107 10.174 2.497 7.63 5.54 7.533l65.608-2.071c3.045-.097 5.589 2.293 5.685 5.336l.298 9.413c.096 3.044-2.293 5.59-5.337 5.685" mask="url(#prefix__h)"/>
            </g>
        </g>
        <g>
            <path stroke="#1A2E35" stroke-linecap="round" stroke-linejoin="round" stroke-width="1.3" d="M79.294 51.659l-65.61 2.07c-3.043.097-5.588-2.292-5.683-5.336l-.298-9.413c-.096-3.043 2.294-5.589 5.337-5.685l65.608-2.07c3.045-.097 5.589 2.292 5.685 5.336l.298 9.413c.096 3.043-2.293 5.589-5.337 5.685z" transform="translate(0 -44) translate(141.7 301.86)"/>
            <path fill="#FFF" d="M58.744 44.194c-.34 0-.683-.066-1.014-.203-1.35-.561-1.99-2.11-1.43-3.459 4.263-10.27 9.157-28.601 4.144-34.07-1.17-.808-8.216-2.51-46.193.97-1.296.119-2.249.205-2.765.245-2.654.203-4.918 3.583-5.501 4.75-.654 1.307-2.247 1.837-3.552 1.186C1.125 12.96.596 11.368 1.25 10.06c.368-.733 3.765-7.197 9.832-7.66.5-.04 1.427-.124 2.688-.24 40.464-3.712 48.222-1.846 50.578.725 8.917 9.726-1.896 36.64-3.158 39.676-.422 1.02-1.408 1.633-2.445 1.633" transform="translate(0 -44) translate(141.7 301.86)"/>
            <path stroke="#1A2E35" stroke-linecap="round" stroke-linejoin="round" stroke-width="1.3" d="M58.744 44.194c-.34 0-.683-.066-1.014-.203-1.35-.561-1.99-2.11-1.43-3.459 4.263-10.27 9.157-28.601 4.144-34.07-1.17-.808-8.216-2.51-46.193.97-1.296.119-2.249.205-2.765.245-2.654.203-4.918 3.583-5.501 4.75-.654 1.307-2.247 1.837-3.552 1.186C1.125 12.96.596 11.368 1.25 10.06c.368-.733 3.765-7.197 9.832-7.66.5-.04 1.427-.124 2.688-.24 40.464-3.712 48.222-1.846 50.578.725 8.917 9.726-1.896 36.64-3.158 39.676-.422 1.02-1.408 1.633-2.445 1.633z" transform="translate(0 -44) translate(141.7 301.86)"/>
        </g>
        <path fill="#004B84" d="M223.777 309.47L432.171 309.47 432.171 294.867 223.777 294.867z" transform="translate(0 -44)"/>
        <path stroke="#1A2E35" stroke-linecap="round" stroke-linejoin="round" stroke-width="1.3" d="M223.777 309.47L432.171 309.47 432.171 294.867 223.777 294.867z" transform="translate(0 -44)"/>
        <path fill="#FFF" d="M263.136 298.859L308.504 298.859 308.504 288.981 263.136 288.981z" transform="translate(0 -44)"/>
        <path stroke="#1A2E35" stroke-linecap="round" stroke-linejoin="round" stroke-width="1.3" d="M263.136 298.859L308.504 298.859 308.504 288.981 263.136 288.981z" transform="translate(0 -44)"/>
        <path fill="#FFF" d="M351.129 286.968L396.497 286.968 396.497 279.651 351.129 279.651z" transform="translate(0 -44)"/>
        <path stroke="#1A2E35" stroke-linecap="round" stroke-linejoin="round" stroke-width="1.3" d="M351.129 286.968L396.497 286.968 396.497 279.651 351.129 279.651z" transform="translate(0 -44)"/>
        <path fill="#FFF" d="M352.958 279.651L398.327 279.651 398.327 272.334 352.958 272.334z" transform="translate(0 -44)"/>
        <path stroke="#1A2E35" stroke-linecap="round" stroke-linejoin="round" stroke-width="1.3" d="M352.958 279.651L398.327 279.651 398.327 272.334 352.958 272.334z" transform="translate(0 -44)"/>
        <path fill="#FFF" d="M353.874 298.859L399.242 298.859 399.242 286.785 353.874 286.785z" transform="translate(0 -44)"/>
        <path stroke="#1A2E35" stroke-linecap="round" stroke-linejoin="round" stroke-width="1.3" d="M353.874 298.859L399.242 298.859 399.242 286.785 353.874 286.785z" transform="translate(0 -44)"/>
        <path fill="#1A2E35" d="M223.777 302.152L432.171 302.152 432.171 295.2 223.777 295.2z" transform="translate(0 -44)"/>
        <path stroke="#1A2E35" stroke-linecap="round" stroke-linejoin="round" stroke-width="1.3" d="M223.777 302.152L432.171 302.152 432.171 295.2 223.777 295.2z" transform="translate(0 -44)"/>
        <g>
            <path fill="#004B84" d="M6.521 213.228c-.797 0-1.443-.642-1.45-1.44L4.124 77.54H8.92L7.97 211.79c-.006.797-.652 1.439-1.449 1.439" transform="translate(0 -44) translate(218.4 217.66)"/>
            <path stroke="#1A2E35" stroke-linecap="round" stroke-linejoin="round" stroke-width="1.3" d="M6.521 213.228h0c-.797 0-1.443-.642-1.45-1.44L4.124 77.54H8.92L7.97 211.79c-.006.797-.652 1.439-1.449 1.439z" transform="translate(0 -44) translate(218.4 217.66)"/>
            <path fill="#004B84" d="M212.51 213.228c-.796 0-1.443-.642-1.449-1.44l-.95-134.248h4.798l-.95 134.249c-.005.797-.653 1.439-1.448 1.439" transform="translate(0 -44) translate(218.4 217.66)"/>
            <path stroke="#1A2E35" stroke-linecap="round" stroke-linejoin="round" stroke-width="1.3" d="M212.51 213.228h0c-.796 0-1.443-.642-1.449-1.44l-.95-134.248h4.798l-.95 134.249c-.005.797-.653 1.439-1.448 1.439z" transform="translate(0 -44) translate(218.4 217.66)"/>
            <path fill="#FFF" d="M118.054 75.141H95.593c-.899 0-1.625-.728-1.625-1.625s.726-1.625 1.625-1.625h22.46c1.08 0 2.117-.459 2.844-1.257.893-.984 1.214-2.336.857-3.615l-7.97-28.556c-.241-.865.265-1.76 1.13-2.002.86-.242 1.76.264 2.001 1.128l7.97 28.556c.658 2.363.067 4.858-1.584 6.676-1.342 1.475-3.254 2.32-5.247 2.32" transform="translate(0 -44) translate(218.4 217.66)"/>
            <path stroke="#1A2E35" stroke-linecap="round" stroke-linejoin="round" stroke-width="1.3" d="M118.054 75.141H95.593c-.899 0-1.625-.728-1.625-1.625s.726-1.625 1.625-1.625h22.46c1.08 0 2.117-.459 2.844-1.257.893-.984 1.214-2.336.857-3.615l-7.97-28.556c-.241-.865.265-1.76 1.13-2.002.86-.242 1.76.264 2.001 1.128l7.97 28.556c.658 2.363.067 4.858-1.584 6.676-1.342 1.475-3.254 2.32-5.247 2.32z" transform="translate(0 -44) translate(218.4 217.66)"/>
            <path fill="#FFF" d="M107.385 66.661L102.299 66.051 110.182 0.298 115.268 0.908z" transform="translate(0 -44) translate(218.4 217.66)"/>
            <path stroke="#1A2E35" stroke-linecap="round" stroke-linejoin="round" stroke-width="1.3" d="M107.385 66.661L102.299 66.051 110.182 0.298 115.268 0.908z" transform="translate(0 -44) translate(218.4 217.66)"/>
            <path fill="#1A2E35" d="M115.269.908s9.032 32.238-7.884 65.752L115.27.908z" transform="translate(0 -44) translate(218.4 217.66)"/>
            <path stroke="#1A2E35" stroke-linecap="round" stroke-linejoin="round" stroke-width="1.3" d="M115.269.908s9.032 32.238-7.884 65.752L115.27.908z" transform="translate(0 -44) translate(218.4 217.66)"/>
            <path fill="#FFF" d="M72.333 71.344c-.862 0-1.791-.237-2.699-.709-1.961-1.02-4.153-3.397-3.876-6.739.12-1.442.74-2.601 1.792-3.356 2.248-1.607 5.655-.822 6.039-.725.695.175 1.12.88.944 1.576-.173.697-.882 1.113-1.573.946-.671-.163-2.821-.453-3.9.319-.27.195-.637.556-.711 1.456-.17 2.068 1.232 3.565 2.484 4.217.935.488 1.877.553 2.34.164.554-.46 1.371-.385 1.832.166.458.552.384 1.372-.166 1.832-.682.567-1.554.853-2.506.853" transform="translate(0 -44) translate(218.4 217.66)"/>
            <path stroke="#1A2E35" stroke-linecap="round" stroke-linejoin="round" stroke-width="1.3" d="M72.333 71.344c-.862 0-1.791-.237-2.699-.709-1.961-1.02-4.153-3.397-3.876-6.739.12-1.442.74-2.601 1.792-3.356 2.248-1.607 5.655-.822 6.039-.725.695.175 1.12.88.944 1.576-.173.697-.882 1.113-1.573.946-.671-.163-2.821-.453-3.9.319-.27.195-.637.556-.711 1.456-.17 2.068 1.232 3.565 2.484 4.217.935.488 1.877.553 2.34.164.554-.46 1.371-.385 1.832.166.458.552.384 1.372-.166 1.832-.682.567-1.554.853-2.506.853z" transform="translate(0 -44) translate(218.4 217.66)"/>
            <path fill="#FFF" d="M84.25 73.57c-1.691 1.4-7.09 1.4-8.781 0-3.023-2.503-2.928-15.421-2.928-15.421h14.637s.095 12.918-2.928 15.42" transform="translate(0 -44) translate(218.4 217.66)"/>
            <path stroke="#1A2E35" stroke-linecap="round" stroke-linejoin="round" stroke-width="1.3" d="M84.25 73.57c-1.691 1.4-7.09 1.4-8.781 0-3.023-2.503-2.928-15.421-2.928-15.421h14.637s.095 12.918-2.928 15.42z" transform="translate(0 -44) translate(218.4 217.66)"/>
            <path fill="#004B84" d="M0.259 80.401L218.888 80.401 218.888 74.347 0.259 74.347z" transform="translate(0 -44) translate(218.4 217.66)"/>
            <path stroke="#1A2E35" stroke-linecap="round" stroke-linejoin="round" stroke-width="1.3" d="M0.259 80.401L218.888 80.401 218.888 74.347 0.259 74.347z" transform="translate(0 -44) translate(218.4 217.66)"/>
        </g>
    </g>
</svg>
