<svg xmlns="http://www.w3.org/2000/svg" width="36" height="32" viewBox="0 0 36 32">
    <g fill="#2B2D3A">
        <path d="M29.681 23.643c-.373-.93-.561-1.91-.561-2.912v-7.234c0-5.018-3.34-9.226-7.897-10.646C20.952 1.268 19.579.057 17.92.057c-1.66 0-3.032 1.211-3.303 2.794C10.06 4.271 6.72 8.48 6.72 13.497v7.234c0 1.002-.188 1.982-.561 2.912l-1.6 3.998c-.137.346-.094.735.114 1.044.208.308.555.492.927.492h8.514c.794 1.35 2.21 2.24 3.806 2.24s3.012-.89 3.806-2.24h8.514c.372 0 .719-.184.927-.492.208-.309.251-.698.113-1.044l-1.599-3.998zM7.254 26.937l.985-2.463c.478-1.194.721-2.454.721-3.743v-7.234c0-4.942 4.02-8.96 8.96-8.96 4.94 0 8.96 4.018 8.96 8.96v7.234c0 1.288.243 2.549.72 3.743l.986 2.463H7.254zM2.11 7.304C.73 9.89 0 12.806 0 15.737s.73 5.847 2.11 8.433l1.975-1.055c-1.224-2.294-1.845-4.777-1.845-7.378 0-2.6.621-5.084 1.845-7.378L2.11 7.304zM33.73 7.304L31.755 8.36c1.224 2.294 1.845 4.777 1.845 7.378 0 2.6-.621 5.084-1.845 7.378l1.975 1.055c1.38-2.586 2.11-5.502 2.11-8.433s-.73-5.847-2.11-8.433z"/>
    </g>
</svg>
