<svg xmlns="http://www.w3.org/2000/svg" width="33" height="36" viewBox="0 0 33 36">
    <path fill="#14B4F0" d="M15.05 34.44c0 .773-.627 1.4-1.4 1.4H5.6c-3.088 0-5.6-2.512-5.6-5.6V5.6C0 2.512 2.512 0 5.6 0h17.212c3.088 0 5.6 2.512 5.6 5.6v14.84c0 .773-.627 1.4-1.4 1.4-.773 0-1.4-.627-1.4-1.4V5.6c0-1.544-1.256-2.8-2.8-2.8H5.6c-1.544 0-2.8 1.256-2.8 2.8v24.64c0 1.544 1.256 2.8 2.8 2.8h8.05c.773 0 1.4.627 1.4 1.4zm16.495-11.638c-.629-.45-1.503-.305-1.953.323l-6.901 9.64c-.188.218-.425.265-.551.273-.13.009-.383-.008-.6-.214l-4.468-4.29c-.557-.535-1.443-.518-1.98.04-.535.558-.517 1.444.041 1.98l4.472 4.294c.67.637 1.564.992 2.484.992.079 0 .158-.003.237-.008 1.002-.067 1.937-.554 2.567-1.337.016-.02.032-.04.047-.062l6.928-9.678c.45-.629.306-1.503-.323-1.953zM21.412 8.4H6.992c-.773 0-1.4.627-1.4 1.4 0 .773.627 1.4 1.4 1.4h14.42c.773 0 1.4-.627 1.4-1.4 0-.773-.627-1.4-1.4-1.4zm1.4 7c0-.773-.627-1.4-1.4-1.4H6.992c-.773 0-1.4.627-1.4 1.4 0 .773.627 1.4 1.4 1.4h14.42c.773 0 1.4-.627 1.4-1.4zm-15.82 4.2c-.773 0-1.4.627-1.4 1.4 0 .773.627 1.4 1.4 1.4h8.758c.773 0 1.4-.627 1.4-1.4 0-.773-.627-1.4-1.4-1.4H6.992z"/>
</svg>
