<svg xmlns="http://www.w3.org/2000/svg" width="33" height="28" viewBox="0 0 33 28">
    <path fill="#FFF" d="M25.12.02H7.136L0 9.69l16.128 18.137L32.256 9.69 25.12.02zm-.053 3.116l4.097 5.552h-5.506l1.41-5.552zm-1.642-1.224L22.02 7.448l-4.032-5.536h5.437zm-2.843 6.776h-8.908l4.454-6.115 4.454 6.115zm-6.314-6.776l-4.032 5.536L8.83 1.912h5.437zM7.189 3.136l1.409 5.552H3.092l4.097-5.552zM3.325 10.58h5.834l4.285 11.38L3.325 10.58zm12.803 13.137L11.18 10.58h9.893l-4.946 13.137zm2.684-1.757l4.285-11.38h5.834L18.812 21.96z"/>
</svg>
