<svg xmlns="http://www.w3.org/2000/svg" width="66" height="66" viewBox="0 0 66 66">
    <g fill="#14B4F0">
        <path d="M65.74 25.198c0-.023-.012-.043-.013-.065-.007-.076-.022-.15-.045-.224-.016-.064-.036-.128-.063-.189-.031-.058-.068-.113-.11-.164-.043-.063-.093-.121-.148-.173-.018-.016-.026-.037-.044-.05l-10.534-8.185V7.667c0-1.816-1.472-3.287-3.287-3.287H39.622L34.868.688c-1.175-.915-2.821-.915-3.996 0L26.117 4.38H14.243c-1.816 0-3.287 1.471-3.287 3.287v8.481L.423 24.332c-.019.014-.026.035-.044.05-.056.053-.106.11-.149.174-.042.05-.078.106-.11.164-.026.061-.047.124-.062.19-.023.07-.038.144-.045.219 0 .022-.013.041-.013.064v37.258c.004.353.066.702.183 1.035-.251.38-.24.875.03 1.242.269.367.738.527 1.175.402.554.395 1.218.608 1.898.608h59.167c.683-.002 1.349-.217 1.903-.617.093.029.19.044.288.047.4.002.77-.216.96-.567.191-.352.174-.78-.046-1.115.116-.333.178-.682.182-1.035V25.198zM32.212 2.418c.382-.305.924-.305 1.307 0l2.528 1.962h-6.355l2.52-1.963zM3.558 63.545L32.212 41.29c.383-.302.923-.302 1.306 0l28.663 22.257H3.558zm59.99-1.711L34.866 39.559c-1.174-.914-2.819-.914-3.993 0L2.19 61.835V26.866L20.145 40.81c.479.37 1.167.284 1.538-.195.371-.478.284-1.167-.194-1.538L3.248 24.912l7.708-5.99v8.467c0 .605.49 1.096 1.095 1.096.606 0 1.096-.491 1.096-1.096V7.667c0-.605.49-1.096 1.096-1.096h37.253c.605 0 1.095.49 1.095 1.096v19.722c0 .605.49 1.096 1.096 1.096.605 0 1.096-.491 1.096-1.096v-8.466l7.708 5.989-18.274 14.19c-.478.371-.564 1.06-.193 1.538.371.478 1.06.564 1.538.193l17.986-13.967v34.969z"/>
        <path d="M21.912 14.24h21.914c.605 0 1.096-.49 1.096-1.095s-.49-1.095-1.096-1.095H21.912c-.605 0-1.095.49-1.095 1.095s.49 1.096 1.095 1.096zM44.922 19.72c0-.606-.49-1.096-1.096-1.096H21.912c-.605 0-1.095.49-1.095 1.095s.49 1.096 1.095 1.096h21.914c.605 0 1.096-.49 1.096-1.096zM44.922 26.293c0-.605-.49-1.095-1.096-1.095h-9.861c-.605 0-1.096.49-1.096 1.095 0 .606.49 1.096 1.096 1.096h9.861c.605 0 1.096-.49 1.096-1.096z"/>
    </g>
</svg>
