<svg xmlns="http://www.w3.org/2000/svg" width="21" height="33" viewBox="0 0 21 33">
    <path fill="#FFF" d="M19.876 13.293h-7.825l6.757-11.88c.166-.293.164-.652-.005-.943-.169-.291-.48-.47-.817-.47H6.646c-.407 0-.768.26-.896.647L.08 17.72c-.096.288-.048.605.13.851s.463.392.766.392h8.02L3.887 30.94c-.182.427-.028.922.364 1.17.392.247.906.174 1.213-.172l15.12-17.073c.538-.609.106-1.572-.708-1.572zM7.911 26.323l3.385-7.934c.265-.622-.192-1.316-.87-1.316h-8.14L7.328 1.89h9.034L9.605 13.77c-.357.629.097 1.413.821 1.413h7.351l-9.866 11.14z"/>
</svg>
