<svg xmlns="http://www.w3.org/2000/svg" width="52" height="32" viewBox="0 0 52 32">
    <g fill="#14B4F0">
        <path d="M40.427 21.941c-1.005-2.095-4.6-5.003-8.073-7.812-1.937-1.566-3.767-3.047-4.934-4.214-.292-.294-.73-.388-1.116-.25-.719.261-1.163.462-1.512.617-.534.24-.713.32-1.432.393-.318.032-.604.203-.78.467-1.509 2.255-3.07 2.063-4.114 1.713-.333-.11-.392-.254-.424-.39-.224-.937.9-3.117 2.357-4.574 3.467-3.469 5.254-4.337 9.03-2.65 4.284 1.916 8.576 3.416 8.62 3.43.56.195 1.164-.1 1.358-.656.192-.557-.1-1.165-.657-1.36-.043-.014-4.25-1.484-8.448-3.364-4.892-2.186-7.576-.746-11.41 3.09-1.458 1.459-3.44 4.411-2.928 6.577.22.921.868 1.604 1.832 1.922 2.417.798 4.623.034 6.266-2.146.678-.105 1.047-.259 1.602-.508.2-.09.435-.194.747-.32 1.22 1.145 2.867 2.479 4.601 3.88 3.136 2.537 6.693 5.413 7.493 7.077.394.82-.03 1.356-.318 1.602-.423.362-1 .478-1.314.258-.346-.237-.796-.252-1.152-.039-.359.214-.56.617-.515 1.03.073.68-.548 1.068-.817 1.202-.682.346-1.395.286-1.662.038-.298-.277-.727-.358-1.107-.217-.38.143-.644.493-.682.898-.064.7-.583 1.372-1.26 1.634-.326.124-.8.198-1.224-.19-.264-.239-.631-.33-.975-.247-.347.085-.627.337-.748.672-.04.106-.133.362-1.131.362-.71 0-1.988-.48-2.613-.894-.75-.492-5.445-3.995-9.5-7.392-.57-.48-1.555-1.508-2.426-2.417-.772-.806-1.478-1.538-1.84-1.845-.455-.384-1.127-.326-1.505.126-.38.45-.324 1.124.126 1.504.33.28.97.956 1.677 1.692.951.994 1.935 2.022 2.596 2.577 3.973 3.326 8.747 6.916 9.698 7.54C22.598 31.275 24.29 32 25.6 32c1.052 0 1.86-.242 2.421-.713.751.292 1.605.294 2.426-.026.97-.375 1.768-1.132 2.22-2.05.841.18 1.803.054 2.678-.386.856-.43 1.474-1.09 1.781-1.86.85.045 1.724-.256 2.447-.877 1.225-1.047 1.562-2.677.854-4.147z"/>
        <path d="M21.333 4.266h-9.6c-.588 0-1.066.478-1.066 1.067S11.145 6.4 11.733 6.4h9.6c.59 0 1.067-.478 1.067-1.067s-.478-1.067-1.067-1.067zM43.552 19.671c-.33-.488-.992-.623-1.48-.29l-3.12 2.095c-.488.328-.618.992-.29 1.48.207.306.545.472.888.472.203 0 .41-.058.593-.181l3.119-2.095c.488-.329.619-.992.29-1.48zM36.93 24.761c-.764-.601-4.18-4.098-6.291-6.3-.408-.426-1.084-.441-1.508-.031-.427.407-.44 1.083-.032 1.508.548.572 5.384 5.613 6.508 6.5.195.154.43.229.66.229.313 0 .627-.141.84-.408.365-.46.286-1.133-.177-1.498zM32.668 26.901c-1.278-1.022-4.489-4.433-5.214-5.222-.401-.436-1.073-.461-1.508-.064-.434.399-.463 1.075-.064 1.508.038.04 3.87 4.177 5.452 5.444.197.156.433.233.666.233.311 0 .623-.139.834-.4.367-.46.292-1.132-.166-1.499zM28.422 29.05c-1.52-1.283-4.633-4.596-5.241-5.247-.403-.43-1.08-.454-1.508-.05-.431.402-.453 1.077-.052 1.508.875.936 3.853 4.093 5.425 5.42.2.169.444.252.687.252.303 0 .606-.13.817-.38.38-.452.323-1.124-.128-1.504z"/>
        <path d="M12.467 2.425C10.64.693 3.328.132 1.131.002.828-.013.548.087.335.29.122.49 0 .772 0 1.066v19.2c0 .59.478 1.067 1.067 1.067h6.4c.46 0 .87-.296 1.013-.736.156-.478 3.832-11.759 4.316-17.306.028-.324-.092-.644-.329-.866zM6.688 19.2H2.133V2.21c3.429.27 7.128.86 8.472 1.512C10.04 8.394 7.482 16.695 6.688 19.2zM50.133 2.133c-8.375 0-13.022 2.144-13.216 2.234-.277.13-.484.37-.57.663-.085.292-.042.606.118.866 1.318 2.123 5.446 13.912 6.24 16.787.128.463.548.783 1.028.783h6.4c.59 0 1.067-.478 1.067-1.066V3.2c0-.591-.478-1.067-1.067-1.067zm-1.066 19.2H44.53C43.52 18.039 40.533 9.45 38.867 5.901c1.628-.553 5.125-1.502 10.2-1.622v17.054z"/>
    </g>
</svg>
