<svg xmlns="http://www.w3.org/2000/svg" width="29" height="20" viewBox="0 0 29 20">
    <g fill="#FFF">
        <path d="M25.098 0H7.178c-.99 0-1.792.802-1.792 1.792s.802 1.792 1.792 1.792h17.92c.99 0 1.792-.802 1.792-1.792S26.088 0 25.098 0zM3.594 1.792c-.002-.474-.192-.929-.529-1.263-.698-.695-1.827-.695-2.526 0C.202.863.012 1.318.01 1.792c-.013.116-.013.233 0 .35.02.116.053.23.099.34.048.106.105.208.17.305.064.1.14.193.224.277.081.082.172.154.269.215.094.07.196.126.304.17.12.062.246.107.377.135.116.013.233.013.35 0 .472 0 .926-.186 1.262-.52.085-.084.16-.177.224-.277.066-.097.123-.199.17-.305.058-.108.103-.222.135-.34.013-.117.013-.234 0-.35zM3.594 9.856c.013-.116.013-.233 0-.35-.03-.115-.076-.226-.134-.331-.046-.11-.104-.215-.17-.314-.063-.099-.138-.19-.225-.268-.698-.695-1.827-.695-2.526 0-.337.334-.527.789-.529 1.263.004.236.05.47.134.69.045.106.1.208.162.305.068.097.146.187.233.268.079.087.17.162.269.224.094.07.196.126.304.17.11.047.224.08.34.1.115.025.233.037.35.035.116.013.233.013.35 0 .114-.02.225-.053.331-.099.111-.044.216-.1.314-.17.099-.062.19-.137.268-.224.087-.079.162-.17.224-.269.07-.094.126-.196.17-.304.062-.12.107-.246.135-.377.014-.116.014-.233 0-.349zM3.594 17.92c.013-.116.013-.233 0-.35-.03-.118-.076-.232-.134-.34-.048-.106-.105-.208-.17-.305-.063-.099-.138-.19-.225-.268-.698-.695-1.827-.695-2.526 0-.087.079-.162.17-.224.268-.065.097-.122.199-.17.305-.047.11-.08.224-.1.34-.024.115-.036.233-.035.35.002.474.192.929.529 1.263.079.087.17.162.269.224.094.07.196.126.304.17.11.047.224.08.34.1.115.025.233.037.35.035.116.013.233.013.35 0 .114-.02.225-.053.331-.099.111-.044.216-.1.314-.17.099-.062.19-.137.268-.224.087-.079.162-.17.224-.269.07-.094.127-.196.17-.304.062-.12.107-.246.135-.377.014-.116.014-.233 0-.349zM26.89 8.064H7.178c-.99 0-1.792.802-1.792 1.792s.802 1.792 1.792 1.792H26.89c.99 0 1.792-.802 1.792-1.792s-.802-1.792-1.792-1.792zM18.826 16.128H7.178c-.99 0-1.792.802-1.792 1.792s.802 1.792 1.792 1.792h11.648c.99 0 1.792-.802 1.792-1.792s-.802-1.792-1.792-1.792z"/>
    </g>
</svg>
