<svg xmlns="http://www.w3.org/2000/svg" width="36" height="36" viewBox="0 0 36 36">
    <g fill="#14B4F0">
        <path d="M9.205 33.04H4.249c-.598 0-.959-.334-1.12-.532-.28-.344-.388-.79-.297-1.227 1.454-6.983 7.617-12.083 14.731-12.248.119.004.238.007.357.007.12 0 .24-.003.36-.007 1.74.04 3.439.366 5.056.974.724.272 1.531-.095 1.803-.819s-.094-1.53-.818-1.803c-.232-.087-.465-.168-.7-.245 2.317-1.739 3.819-4.507 3.819-7.62 0-5.25-4.27-9.52-9.52-9.52S8.4 4.27 8.4 9.52c0 3.116 1.504 5.886 3.825 7.624-2.126.7-4.121 1.788-5.867 3.225C3.157 23.002.931 26.675.091 30.71c-.263 1.264.052 2.563.865 3.563.81.995 2.01 1.566 3.293 1.566h4.956c.773 0 1.4-.627 1.4-1.4 0-.773-.627-1.4-1.4-1.4zM11.2 9.52c0-3.705 3.015-6.72 6.72-6.72 3.705 0 6.72 3.015 6.72 6.72 0 3.596-2.839 6.54-6.393 6.712-.109-.002-.218-.004-.327-.004-.11 0-.219.002-.328.004-3.554-.172-6.392-3.117-6.392-6.712z"/>
        <path d="M34.768 24.122c-.599-1.34-1.949-2.209-3.442-2.212H26.95c-1.574 0-2.949.928-3.501 2.366-.074.192-.164.433-.258.714h-9.166c-.379 0-.74.153-1.005.425l-2.404 2.477c-.53.546-.528 1.414.005 1.956l2.45 2.493c.264.268.623.419.999.419h4.55c.773 0 1.4-.627 1.4-1.4 0-.773-.627-1.4-1.4-1.4h-3.963l-1.08-1.099 1.04-1.071h9.624c.645 0 1.207-.44 1.36-1.067.113-.463.256-.907.461-1.442.136-.352.476-.571.892-.571h4.369c.396 0 .736.214.889.555.376.841.825 2.143.828 3.57.003 1.436-.445 2.768-.822 3.632-.152.348-.495.573-.879.573h-4.422c-.386 0-.75-.25-.902-.62-.164-.397-.305-.85-.434-1.386-.18-.752-.935-1.215-1.687-1.036-.752.18-1.216.936-1.036 1.688.163.679.349 1.268.569 1.802.588 1.425 1.956 2.348 3.488 2.352h4.428c1.494 0 2.845-.884 3.442-2.254.484-1.11 1.06-2.836 1.055-4.758-.005-1.918-.585-3.617-1.072-4.706z"/>
        <circle cx="30.17" cy="28.84" r="1.4"/>
    </g>
</svg>
