<svg xmlns="http://www.w3.org/2000/svg" width="32" height="41" viewBox="0 0 32 41">
    <g fill="#14B4F0">
        <path d="M31.25 9.953L21.647.352c-.225-.226-.53-.352-.85-.352H1.2C.537 0 0 .537 0 1.2v38.56c0 .663.537 1.2 1.2 1.2h29.2c.663 0 1.2-.537 1.2-1.2V10.801c0-.318-.126-.623-.35-.848zM22 4.097l5.503 5.504h-5.504V4.097zM2.4 38.56V2.4h17.199v8.4c0 .663.537 1.2 1.2 1.2H29.2v26.56H2.4z"/>
        <path d="M5.533 8.613c.61.259 1.314-.027 1.572-.637.2-.472.66-.777 1.172-.777.7 0 1.27.57 1.27 1.271 0 .7-.57 1.27-1.27 1.27-.663 0-1.2.538-1.2 1.2v1.85c0 .663.537 1.2 1.2 1.2.663 0 1.2-.537 1.2-1.2v-.85c1.437-.499 2.471-1.866 2.471-3.47 0-2.024-1.647-3.671-3.671-3.671-1.479 0-2.806.88-3.382 2.241-.258.61.027 1.315.638 1.573zM7.428 16.742c-.223.223-.351.532-.351.848 0 .316.128.625.351.848.224.224.533.352.849.352.316 0 .626-.128.849-.352.223-.223.35-.531.35-.848 0-.316-.127-.625-.35-.848-.224-.224-.533-.352-.85-.352-.315 0-.624.128-.848.352zM25.6 14.482H12.88c-.662 0-1.2.537-1.2 1.2 0 .663.538 1.2 1.2 1.2H25.6c.663 0 1.2-.537 1.2-1.2 0-.663-.537-1.2-1.2-1.2zM25.6 19.282H12.88c-.662 0-1.2.537-1.2 1.2 0 .663.538 1.2 1.2 1.2H25.6c.663 0 1.2-.537 1.2-1.2 0-.663-.537-1.2-1.2-1.2zM25.6 24.082H6.2c-.662 0-1.2.537-1.2 1.2 0 .663.538 1.2 1.2 1.2h19.4c.663 0 1.2-.537 1.2-1.2 0-.663-.537-1.2-1.2-1.2zM25.6 28.882H6.2c-.662 0-1.2.537-1.2 1.2 0 .663.538 1.2 1.2 1.2h19.4c.663 0 1.2-.537 1.2-1.2 0-.663-.537-1.2-1.2-1.2zM25.6 33.682H6.2c-.662 0-1.2.537-1.2 1.2 0 .663.538 1.2 1.2 1.2h19.4c.663 0 1.2-.537 1.2-1.2 0-.663-.537-1.2-1.2-1.2z"/>
    </g>
</svg>
