<svg xmlns="http://www.w3.org/2000/svg" width="36" height="36" viewBox="0 0 36 36">
    <path fill="#2B2D3A" d="M32.224 23.638l2.452-2.453c1.552-1.552 1.552-4.077 0-5.63-.476-.476-1.048-.81-1.66-.996.5-.679.77-1.496.77-2.355 0-1.064-.413-2.064-1.166-2.816-.751-.751-1.751-1.166-2.815-1.166l-.134.002c.035-1.062-.352-2.137-1.162-2.947-.81-.81-1.885-1.197-2.947-1.162.002-.044.002-.089.002-.133 0-1.064-.414-2.064-1.166-2.816-1.552-1.552-4.077-1.552-5.63 0l-.848.848-.847-.848C16.32.414 15.32 0 14.257 0c-1.063 0-2.063.414-2.815 1.166-.81.81-1.196 1.885-1.161 2.948l-.135-.003c-1.063 0-2.063.414-2.815 1.166-.81.81-1.196 1.885-1.161 2.949-.045-.002-.09-.004-.135-.004-1.064 0-2.064.415-2.815 1.166-.752.752-1.166 1.752-1.166 2.816 0 .858.27 1.676.77 2.354-.62.187-1.189.526-1.66.997-1.548 1.549-1.552 4.067-.01 5.62l.011.011 2.456 2.455.01.011c.147.148.305.281.47.403l-.726.726c-.707.706-1.066 1.668-1.013 2.71.05.999.48 1.95 1.21 2.68l4.154 4.154c.77.77 1.782 1.155 2.794 1.155s2.024-.385 2.794-1.155l1.93-1.93c.881.188 1.779.284 2.677.284.897 0 1.794-.095 2.675-.284l1.93 1.93c.77.77 1.782 1.155 2.794 1.155 1.011 0 2.024-.385 2.794-1.155l4.154-4.154c1.54-1.54 1.715-3.872.39-5.198l-.885-.885.436-.436.015-.014zM12.96 2.686c.347-.346.807-.537 1.296-.537.49 0 .95.19 1.296.537l3.289 3.288c.714.715.714 1.878 0 2.592-.346.346-.807.537-1.296.537-.49 0-.95-.19-1.296-.537l-.001-.001-3.287-3.287-.008-.008c-.707-.715-.705-1.873.007-2.584zM8.845 9.384c-.71-.715-.707-1.875.005-2.587.347-.346.807-.537 1.296-.537.49 0 .949.19 1.295.536l.004.004 3.285 3.285.007.006.816.817c.346.346.537.806.537 1.296s-.19.95-.537 1.295c-.346.347-.806.537-1.296.537s-.95-.19-1.295-.537l-.013-.012-.806-.806-.003-.004-3.29-3.289-.005-.004zM4.74 10.908c.346-.346.806-.537 1.295-.537.49 0 .95.19 1.296.537l3.292 3.292c.711.715.71 1.875-.003 2.589-.346.345-.807.536-1.296.536-.49 0-.95-.19-1.296-.537l-.012-.012L4.75 13.51l-.01-.01c-.347-.347-.537-.807-.537-1.296 0-.49.19-.95.537-1.296zm-2.045 8.77c-.004-.005-.008-.01-.013-.013-.713-.715-.712-1.877.002-2.59.346-.347.806-.537 1.296-.537s.95.19 1.296.537l2.466 2.466c.715.714.715 1.877 0 2.592-.346.346-.806.536-1.295.536-.09 0-.18-.006-.267-.019l-.02-.003c-.377-.059-.725-.233-1.002-.506l-.008-.01-2.455-2.454zm12.491 10.494l-.027-.005-.064-.014-.048-.007-.054-.006-.056-.003h-.046l-.06.003-.044.004-.058.008-.046.009-.053.013-.05.014-.046.016-.052.022-.042.019c-.018.008-.035.017-.052.027-.014.007-.027.016-.041.024l-.046.03-.045.033-.036.028c-.018.015-.035.03-.051.046l-.02.018-2.354 2.354c-.703.703-1.847.703-2.55 0l-4.153-4.153c-.353-.353-.56-.804-.584-1.271-.021-.426.116-.81.387-1.08l1.483-1.484.069.001c1.063 0 2.063-.414 2.815-1.166 1.15-1.151 1.447-2.837.891-4.265.747-.158 1.434-.527 1.987-1.079.631-.632 1.006-1.425 1.123-2.248.321.082.654.125.994.125 1.064 0 2.063-.414 2.816-1.166.752-.752 1.166-1.752 1.166-2.815 0-.34-.043-.672-.125-.993.848-.12 1.631-.509 2.247-1.126 1.553-1.552 1.553-4.077 0-5.63l-.922-.922.848-.847c.715-.715 1.878-.715 2.592 0 .346.346.537.806.537 1.295 0 .49-.191.95-.537 1.296-.21.21-.315.485-.315.76s.105.55.315.76c.42.42 1.1.42 1.52 0 .714-.715 1.876-.715 2.59 0 .715.714.715 1.877 0 2.591-.21.21-.314.485-.314.76s.105.55.315.76c.42.42 1.1.42 1.52 0 .345-.346.806-.537 1.295-.537.49 0 .95.19 1.296.537.346.346.537.806.537 1.296 0 .483-.186.937-.523 1.281l-.015.015-1.54 1.541c-.384.384-.422.993-.088 1.42l.055.072c.333.426.932.539 1.397.262.72-.43 1.639-.315 2.232.279.715.715.715 1.877 0 2.592l-2.466 2.466-.014.015-5.293 5.293c-2.656 2.656-6.563 3.703-10.197 2.732zm15.952-3.68c.471.472.29 1.481-.39 2.16l-4.153 4.153c-.703.703-1.847.703-2.55 0l-1.143-1.143c1.486-.634 2.847-1.549 4-2.703l3.351-3.351.885.885z"/>
</svg>
