<svg xmlns="http://www.w3.org/2000/svg" width="28" height="42" viewBox="0 0 28 42">
    <g fill="#14B4F0">
        <path d="M1.23 9.84c.68 0 1.23-.55 1.23-1.23 0-3.391 2.759-6.15 6.15-6.15 3.391 0 6.15 2.759 6.15 6.15 0 .68.55 1.23 1.23 1.23.68 0 1.23-.55 1.23-1.23C17.22 3.862 13.358 0 8.61 0 3.862 0 0 3.862 0 8.61c0 .68.55 1.23 1.23 1.23z"/>
        <path d="M5.6 41.854c.17.086.359.13.55.13h17.22c.326 0 .639-.13.87-.36 1.818-1.819 2.82-4.237 2.82-6.809V23.534c0-2.035-1.655-3.69-3.69-3.69-.48 0-.939.093-1.36.26-.427-1.565-1.86-2.72-3.56-2.72-.48 0-.939.093-1.36.26-.427-1.565-1.86-2.72-3.56-2.72-.431 0-.845.075-1.23.212V8.61c0-2.035-1.655-3.69-3.69-3.69S4.92 6.575 4.92 8.61v13.694H3.69c-2.035 0-3.69 1.655-3.69 3.69v6.8c0 1.882.523 3.724 1.513 5.325.99 1.602 2.403 2.893 4.087 3.735zm-3.14-15.86c0-.678.552-1.23 1.23-1.23h1.23v5.288c0 .68.55 1.23 1.23 1.23.68 0 1.23-.55 1.23-1.23V8.61c0-.678.552-1.23 1.23-1.23.678 0 1.23.552 1.23 1.23v17.384c0 .68.55 1.23 1.23 1.23.68 0 1.23-.55 1.23-1.23v-7.38c0-.678.552-1.23 1.23-1.23.678 0 1.23.552 1.23 1.23v7.38c0 .68.55 1.23 1.23 1.23.68 0 1.23-.55 1.23-1.23v-4.92c0-.678.552-1.23 1.23-1.23.678 0 1.23.552 1.23 1.23v4.92c0 .68.55 1.23 1.23 1.23.68 0 1.23-.55 1.23-1.23v-2.46c0-.678.552-1.23 1.23-1.23.678 0 1.23.552 1.23 1.23v11.281c0 1.75-.623 3.404-1.763 4.709H6.452c-2.47-1.347-3.992-3.9-3.992-6.73v-6.8z"/>
    </g>
</svg>
