<svg xmlns="http://www.w3.org/2000/svg" width="29" height="33" viewBox="0 0 29 33">
    <g fill="#2B2D3A">
        <path d="M20.567 13.86c0-.696-.564-1.26-1.26-1.26H6.329c-.696 0-1.26.564-1.26 1.26 0 .696.564 1.26 1.26 1.26h12.978c.696 0 1.26-.564 1.26-1.26zM6.329 17.64c-.696 0-1.26.564-1.26 1.26 0 .696.564 1.26 1.26 1.26h7.882c.696 0 1.26-.564 1.26-1.26 0-.696-.564-1.26-1.26-1.26H6.329z"/>
        <path d="M9.29 29.736H5.076c-1.39 0-2.52-1.13-2.52-2.52V5.04c0-1.39 1.13-2.52 2.52-2.52h15.49c1.39 0 2.52 1.13 2.52 2.52v7.749c0 .696.565 1.26 1.26 1.26.697 0 1.26-.564 1.26-1.26V5.04c0-2.78-2.26-5.04-5.04-5.04H5.077C2.296 0 .036 2.26.036 5.04v22.176c0 2.78 2.26 5.04 5.04 5.04H9.29c.696 0 1.26-.564 1.26-1.26 0-.696-.564-1.26-1.26-1.26z"/>
        <path d="M27.839 18.243c-1.474-1.474-3.872-1.474-5.345-.001l-6.918 6.902c-.147.147-.255.327-.315.526l-1.507 4.96c-.133.44-.017.917.304 1.246.24.246.567.38.902.38.112 0 .225-.015.336-.046l5.086-1.409c.21-.058.4-.169.554-.322l6.903-6.89c1.474-1.474 1.474-3.872 0-5.346zm-8.45 10.218l-2.558.71.75-2.466 4.667-4.657 1.782 1.782-4.64 4.631zm6.669-6.655l-.244.244-1.782-1.782.243-.243c.491-.491 1.29-.491 1.782 0 .491.491.491 1.29 0 1.781zM19.307 7.56H6.329c-.696 0-1.26.564-1.26 1.26 0 .696.564 1.26 1.26 1.26h12.978c.696 0 1.26-.564 1.26-1.26 0-.696-.564-1.26-1.26-1.26z"/>
    </g>
</svg>
