<?xml version="1.0" standalone="no"?>
<!DOCTYPE svg PUBLIC "-//W3C//DTD SVG 1.1//EN" "http://www.w3.org/Graphics/SVG/1.1/DTD/svg11.dtd" >
<svg xmlns="http://www.w3.org/2000/svg">
<metadata>Generated by IcoMoon</metadata>
<defs>
<font id="icomoon" horiz-adv-x="1024">
<font-face units-per-em="1024" ascent="960" descent="-64" />
<missing-glyph horiz-adv-x="1024" />
<glyph unicode="&#x20;" horiz-adv-x="512" d="" />
<glyph unicode="&#xe900;" glyph-name="nav-dots" d="M597.333 448c0-47.128-38.205-85.333-85.333-85.333s-85.333 38.205-85.333 85.333c0 47.128 38.205 85.333 85.333 85.333s85.333-38.205 85.333-85.333zM896 448c0-47.128-38.205-85.333-85.333-85.333s-85.333 38.205-85.333 85.333c0 47.128 38.205 85.333 85.333 85.333s85.333-38.205 85.333-85.333zM298.667 448c0-47.128-38.205-85.333-85.333-85.333s-85.333 38.205-85.333 85.333c0 47.128 38.205 85.333 85.333 85.333s85.333-38.205 85.333-85.333z" />
<glyph unicode="&#xe901;" glyph-name="add-circle" d="M874.075 810.075c-96.031 96.031-226.358 149.925-362.075 149.925-282.702 0-512-229.298-512-512s229.298-512 512-512 512 229.298 512 512c0 135.717-53.895 266.044-149.925 362.075zM651.636 401.455h-93.091v-93.091c0-25.478-21.068-46.545-46.545-46.545s-46.545 21.068-46.545 46.545v93.091h-93.091c-25.478 0-46.545 21.068-46.545 46.545s21.068 46.545 46.545 46.545h93.091v93.091c0 25.478 21.068 46.545 46.545 46.545s46.545-21.068 46.545-46.545v-93.091h93.091c25.478 0 46.545-21.068 46.545-46.545s-21.068-46.545-46.545-46.545z" />
<glyph unicode="&#xe902;" glyph-name="alert" d="M492.627 708.314c16.605 17.257 44.281 17.908 61.538 0.977 17.257-16.605 17.908-44.281 0.977-61.538-16.605-17.257-44.281-17.908-61.538-0.977-17.257 16.605-17.582 43.955-0.977 61.538zM512.163-64c-282.617 0-512.163 229.545-512.163 511.837s229.545 512.163 512.163 512.163 512.163-229.545 512.163-512.163-229.871-511.837-512.163-511.837zM512.163 894.555c-246.151 0-446.718-200.242-446.718-446.718s200.242-446.718 446.718-446.718 446.718 200.242 446.718 446.718-200.567 446.718-446.718 446.718zM559.7 197.454v358.156c0 17.908-14.652 32.56-32.56 32.56s-32.56-14.652-32.56-32.56v-358.156c0-17.908 14.652-32.56 32.56-32.56s32.56 14.652 32.56 32.56z" />
<glyph unicode="&#xe903;" glyph-name="arrow-left" horiz-adv-x="1170" d="M1170.603 447.63c0 40.723-32.578 73.302-73.302 73.302h-867.031l265.070 319.121c11.847 14.808 17.77 34.059 16.289 53.31s-11.106 37.021-25.915 49.608c-13.328 11.106-29.617 17.030-46.646 17.030-21.472 0-42.204-9.625-56.272-26.655l-365.767-436.847c-2.221-3.702-4.443-7.404-6.664-11.106-1.481-3.702-5.183-5.923-5.183-9.625-3.702-8.885-5.183-17.77-5.183-26.655 0-9.625 2.221-18.51 5.183-26.655 1.481-3.702 5.183-5.923 5.183-9.625 2.221-3.702 4.443-7.404 6.664-11.106l365.767-439.069c25.915-31.098 71.821-35.54 102.918-9.625s35.54 71.821 9.625 102.918l-265.070 319.121h867.031c40.723 0 73.302 31.838 73.302 72.561z" />
<glyph unicode="&#xe904;" glyph-name="arrow-right" horiz-adv-x="1170" d="M73.302 375.069h867.031l-265.070-319.121c-25.915-31.098-21.472-77.004 9.625-102.918s77.004-21.472 102.918 9.625l365.767 439.069c2.221 3.702 4.443 7.404 6.664 11.106 0 3.702 3.702 5.923 5.183 9.625 2.962 8.145 5.183 17.030 5.183 26.655 0 8.885-1.481 17.77-5.183 26.655 0 3.702-3.702 5.923-5.183 9.625-2.221 3.702-4.443 7.404-6.664 11.106l-365.767 436.847c-14.068 17.030-34.8 26.655-56.272 26.655-17.030 0-33.319-5.923-46.646-17.030-14.808-12.587-24.434-30.357-25.915-49.608s4.443-38.502 16.289-53.31l265.070-319.121h-867.031c-40.723 0-73.302-32.578-73.302-73.302s32.578-72.561 73.302-72.561z" />
<glyph unicode="&#xe905;" glyph-name="bell" horiz-adv-x="921" d="M896.488 283.658l-92.076 92.634v228.238c2.511 175.224-124.722 325.615-297.992 352.122-98.494 12.835-197.546-17.020-272.323-82.59s-117.746-159.878-117.746-258.93v-239.119l-92.076-92.634c-23.717-23.996-30.692-59.989-17.578-91.239 12.835-31.25 43.248-51.619 77.009-51.619h172.155v-17.299c5.022-108.259 96.541-191.965 204.8-187.501 108.259-4.743 199.778 79.241 204.8 187.501v17.299h171.597c33.761 0.279 64.174 20.647 77.009 51.619 13.114 31.808 6.138 67.523-17.578 91.518zM562.781 123.501c-5.859-51.060-51.060-88.728-102.4-85.101-51.34-3.627-96.541 33.761-102.4 85.101v17.299h204.8v-17.299zM128.070 243.479l60.547 60.547c19.252 19.252 30.134 45.48 30.134 72.824v239.119c0 69.755 30.413 136.44 82.869 182.199 51.898 47.154 121.931 68.918 191.407 59.989 122.489-19.81 211.496-126.954 208.985-250.838v-230.47c-0.279-27.344 10.603-53.293 29.576-72.824l60.826-60.547h-664.344z" />
<glyph unicode="&#xe906;" glyph-name="block" d="M512 960c-282.398 0-512-229.602-512-512s229.602-512 512-512c282.398 0 512 229.602 512 512s-229.602 512-512 512zM104.978 448c0 224.691 182.331 407.022 407.022 407.022 92.086 0 177.42-31.309 245.564-82.878l-569.094-569.094c-52.182 67.53-83.492 152.863-83.492 244.95zM512 40.978c-96.998 0-185.4 33.765-255.386 90.859l572.163 571.549c56.48-69.986 90.859-159.002 90.859-255.386-0.614-224.691-182.945-407.022-407.635-407.022z" />
<glyph unicode="&#xe907;" glyph-name="calender" horiz-adv-x="922" d="M768 857.6h-51.2v51.2c0 28.27-22.93 51.2-51.2 51.2s-51.2-22.93-51.2-51.2v-51.2h-307.2v51.2c0 28.27-22.93 51.2-51.2 51.2s-51.2-22.93-51.2-51.2v-51.2h-51.2c-84.81 0-153.6-68.79-153.6-153.6v-614.4c0-84.81 68.79-153.6 153.6-153.6h614.4c84.81 0 153.6 68.79 153.6 153.6v614.4c0 84.81-68.79 153.6-153.6 153.6zM153.6 755.2h51.2v-51.2c0-28.27 22.93-51.2 51.2-51.2s51.2 22.93 51.2 51.2v51.2h307.2v-51.2c0-28.27 22.93-51.2 51.2-51.2s51.2 22.93 51.2 51.2v51.2h51.2c28.27 0 51.2-22.93 51.2-51.2v-204.8h-716.8v204.8c0 28.27 22.93 51.2 51.2 51.2zM768 38.4h-614.4c-28.27 0-51.2 22.93-51.2 51.2v307.2h716.8v-307.2c0-28.27-22.93-51.2-51.2-51.2zM256 294.4c28.27 0 51.2-22.93 51.2-51.2s-22.93-51.2-51.2-51.2-51.2 22.93-51.2 51.2 22.93 51.2 51.2 51.2zM665.6 294.4h-204.8c-28.27 0-51.2-22.93-51.2-51.2s22.93-51.2 51.2-51.2h204.8c28.27 0 51.2 22.93 51.2 51.2s-22.93 51.2-51.2 51.2z" />
<glyph unicode="&#xe908;" glyph-name="check-circle" d="M784.519 687.663c17.888 0 32.856-14.602 32.856-32.856s-14.602-32.856-32.856-32.856c-17.888 0-32.856 14.602-32.856 32.856s14.602 32.856 32.856 32.856zM512.183-64c-282.558 0-512.183 229.624-512.183 511.817s229.624 512.183 512.183 512.183 512.183-229.624 512.183-512.183-229.989-511.817-512.183-511.817zM512.183 894.654c-246.417 0-446.471-200.419-446.471-446.471s200.419-446.471 446.471-446.471 446.471 200.419 446.471 446.471-200.419 446.471-446.471 446.471zM474.946 248.858l265.035 305.192c11.682 13.507 10.222 34.316-3.286 45.998s-34.316 10.222-45.998-3.286l-243.497-280.368-146.025 126.312c-13.507 11.682-34.316 10.222-45.998-3.286s-10.222-34.316 3.286-45.998l170.849-147.485c6.206-5.476 13.872-8.031 21.539-8.031 8.396-0.365 17.523 3.651 24.094 10.952z" />
<glyph unicode="&#xe909;" glyph-name="close-outline" d="M762.686 731.35c18.147 0 32.664-14.517 32.664-32.664s-14.517-32.664-32.664-32.664-32.664 14.517-32.664 32.664c0 18.147 14.517 32.664 32.664 32.664zM512.259-64c-282.572 0-512.259 229.687-512.259 511.741s229.687 512.259 512.259 512.259 512.259-229.687 512.259-512.259-230.206-511.741-512.259-511.741zM512.259 894.671c-246.278 0-446.412-200.134-446.412-446.412s200.134-446.412 446.412-446.412 446.412 200.134 446.412 446.412-200.652 446.412-446.412 446.412zM360.863 245.533l353.604 353.604c12.962 12.962 12.962 33.701 0 46.145-12.962 12.962-33.701 12.962-46.145 0l-353.604-353.604c-12.962-12.962-12.962-33.701 0-46.145 6.222-6.222 14.517-9.333 23.332-9.333s16.591 2.592 22.813 9.333zM714.467 245.533c12.962 12.962 12.962 33.701 0 46.145l-353.604 353.604c-12.962 12.962-33.701 12.962-46.145 0-12.962-12.962-12.962-33.701 0-46.145l353.604-353.604c6.222-6.222 14.517-9.333 23.332-9.333 8.296-0.518 16.591 2.592 22.813 9.333z" />
<glyph unicode="&#xe90a;" glyph-name="download" horiz-adv-x="964" d="M903.878 176.985c33.367 0 60.061-26.694 60.061-60.061v-120.863c0-31.143-22.986-56.353-53.387-60.061l-6.673-0.741h-843.818c-33.367 0-60.061 26.694-60.061 60.061v120.863c0 33.367 26.694 60.061 60.061 60.061s60.061-26.694 60.061-60.061v-60.061h722.954v60.061c0.741 33.367 27.435 60.802 60.802 60.802zM542.030 417.228l144.591 108.999c26.694 20.020 64.51 14.83 84.53-11.864s14.83-64.51-11.864-84.53l-240.985-180.924c-10.381-8.156-22.986-11.864-36.333-11.864-12.605 0-24.469 3.707-34.85 11.122l-240.985 169.802c-26.694 19.279-33.367 56.353-14.83 83.789 8.898 13.347 22.986 22.245 39.299 24.469s31.884-0.741 45.231-10.381l146.074-102.326c0 1.483 0 2.224 0 3.707v481.97c0 34.109 26.694 60.802 60.061 60.802s60.061-26.694 60.061-60.061v-482.711z" />
<glyph unicode="&#xe90b;" glyph-name="folder-circle-outline" d="M784.495 687.696c17.925 0 32.799-14.492 32.799-32.799s-14.492-32.799-32.799-32.799-32.799 14.492-32.799 32.799 14.492 32.799 32.799 32.799zM512.191-64c-282.601 0-512.191 229.59-512.191 511.809s229.59 512.191 512.191 512.191 512.191-229.59 512.191-512.191-229.971-511.809-512.191-511.809zM512.191 894.784c-246.37 0-446.594-200.223-446.594-446.594s200.223-446.594 446.594-446.594 446.594 200.223 446.594 446.594-200.605 446.594-446.594 446.594zM675.42 262.841h-326.841c-29.747-0.381-54.156 23.264-54.537 53.012v264.295c0.381 29.747 24.79 53.393 54.537 53.012h100.302c6.483 0 12.585-3.051 16.781-8.009l56.825-69.411h152.551c14.492 0.381 28.222-4.958 38.519-14.874s16.399-23.645 16.399-38.138v-187.257c-0.381-29.366-24.79-53.012-54.537-52.63zM337.52 409.672v-93.819c0-2.67 1.526-5.339 3.432-6.865 1.907-1.907 4.577-2.67 7.246-2.288h326.841c2.67-0.381 5.339 0.763 7.246 2.288 1.907 1.907 3.432 4.195 3.432 6.865v187.257c0 2.67-1.526 5.339-3.432 6.865-1.907 1.907-4.577 2.67-7.246 2.288h-163.23c-6.483 0-12.585 3.051-16.781 8.009l-56.444 69.411h-90.005c-2.67 0.381-5.339-0.763-7.246-2.288s-3.432-4.195-3.432-6.865v-170.857z" />
<glyph unicode="&#xe90c;" glyph-name="funnel" horiz-adv-x="910" d="M902.205 932.293c-10.39 17.317-28.861 27.707-49.064 27.707h-795.995c-20.203 0-38.674-10.39-49.064-27.13s-10.967-38.097-1.732-55.991l273.028-524.699v-185.867c0-17.894 8.081-34.634 21.935-45.601l227.427-173.745c9.813-7.504 21.935-11.545 34.056-11.545 8.081 0 16.162 2.309 23.089 5.772 19.048 9.813 31.17 29.439 31.17 51.373v358.458l284.573 524.122c10.967 17.894 10.967 39.251 0.577 57.145zM513.732 362.57c-4.041-8.081-5.772-16.162-5.772-24.821v-258.598l-113.714 87.161-1.154 170.859c0 9.236-2.309 17.894-6.349 25.975l-240.703 477.366h623.982l-256.289-477.944z" />
<glyph unicode="&#xe90d;" glyph-name="list-outline" horiz-adv-x="819" d="M489.536 960c14.411 0 28.397-6.358 37.722-16.954v0l278.464-307.285c8.477-9.325 13.139-21.616 13.139-34.331v0-537.854c-0.424-34.331-14.411-66.967-38.993-91.126s-57.642-37.298-91.974-36.874v0h-556.927c-34.331-0.424-67.391 12.715-91.974 36.874s-38.57 56.795-38.993 91.126v0 768.424c0.424 34.331 14.411 66.967 38.993 91.126s57.642 37.298 91.974 36.874v0h358.57zM409.854 857.43h-278.887c-7.205 0.424-14.411-2.119-19.497-6.781-5.51-4.662-8.477-11.444-8.901-18.649v0-768c0.424-7.205 3.815-13.987 8.901-18.649 5.51-4.662 12.291-7.205 19.497-6.781v0h556.927c7.205-0.424 14.411 2.119 19.497 6.781 5.51 4.662 8.477 11.444 8.901 18.649v0 486.146h-168.265c-78.411 2.119-140.291 67.391-138.596 145.801v0 161.483zM563.285 243.285c28.397 0 51.285-22.887 51.285-51.285s-22.887-51.285-51.285-51.285v0h-307.285c-28.397 0-51.285 22.887-51.285 51.285s22.887 51.285 51.285 51.285v0h307.285zM409.854 448c28.397 0 51.285-22.887 51.285-51.285s-22.887-51.285-51.285-51.285v0h-153.854c-28.397 0-51.285 22.887-51.285 51.285s22.887 51.285 51.285 51.285v0h153.854zM512 806.57v-110.199c-0.848-11.020 2.543-21.616 9.748-29.669s17.377-13.139 27.974-13.987v0h102.57l-140.291 153.854z" />
<glyph unicode="&#xe90e;" glyph-name="note-list" horiz-adv-x="852" d="M810.905 921.028h-192.358c-1.073 21.453-18.95 38.972-40.76 38.972h-303.553c-21.81 0-39.687-17.52-40.76-38.972h-192.715c-22.525 0-40.76-18.592-40.76-41.117v-903.151c0-22.525 18.235-40.76 40.76-40.76h770.145c22.525 0 40.76 18.235 40.76 40.76v903.151c0.358 22.525-18.235 41.117-40.76 41.117zM314.994 878.123h221.676v-81.877h-221.676v81.877zM81.877 17.877v821.274h151.598v-83.665c0-22.525 18.235-40.76 40.76-40.76h303.553c22.525 0 40.76 18.235 40.76 40.76v83.665h151.598v-821.274h-688.268zM361.117 622.123h-130.86c-22.525 0-40.76-18.235-40.76-40.76v-130.86c0-22.525 18.235-40.76 40.76-40.76h130.86c22.525 0 40.76 18.235 40.76 40.76v130.503c0 22.525-18.235 41.117-40.76 41.117zM320 491.263h-48.983v48.983h48.983v-48.983zM621.765 556.693h-147.307c-22.525 0-40.76-18.235-40.76-40.76s18.235-40.76 40.76-40.76h147.307c22.525 0 40.76 18.235 40.76 40.76 0 22.168-18.235 40.76-40.76 40.76zM361.117 327.508h-130.86c-22.525 0-40.76-18.235-40.76-40.76v-130.86c0-22.525 18.235-40.76 40.76-40.76h130.86c22.525 0 40.76 18.235 40.76 40.76v130.86c0 22.525-18.235 40.76-40.76 40.76zM320 196.648h-48.983v48.983h48.983v-48.983zM621.765 262.078h-147.307c-22.525 0-40.76-18.235-40.76-40.76s18.235-40.76 40.76-40.76h147.307c22.525 0 40.76 18.235 40.76 40.76s-18.235 40.76-40.76 40.76z" />
<glyph unicode="&#xe90f;" glyph-name="pencil" horiz-adv-x="1028" d="M989.576 749.311l-175.851 175.851c-47.695 44.792-121.105 46.451-170.874 4.562l-578.151-578.151c-20.737-20.737-33.594-48.525-36.497-77.557l-27.788-267.924c-1.659-19.078 4.977-37.742 18.663-51.428 12.028-12.028 28.617-18.663 45.622-18.663h5.806l267.924 24.47c29.447 2.903 56.82 15.76 77.557 36.497l578.151 578.151c46.866 49.354 44.792 127.326-4.562 174.192zM326.817 88.625l-192.855-17.834 17.419 192.855 362.9 358.338 173.362-173.362-360.826-359.997zM771.007 534.474l-172.118 172.118 125.252 128.57 175.436-175.436-128.57-125.252z" />
<glyph unicode="&#xe910;" glyph-name="people-outline" horiz-adv-x="1138" d="M398.281 504.771c125.568 0 227.438 101.869 227.438 227.438s-101.869 227.791-227.438 227.791-227.438-101.869-227.438-227.438 101.869-227.791 227.438-227.791zM398.281 846.104c62.961 0 113.896-50.935 113.896-113.896s-50.935-113.896-113.896-113.896-113.896 51.288-113.896 114.249 50.935 113.542 113.896 113.542zM853.51 391.229c94.088 0 170.844 76.402 170.844 170.49s-76.402 170.844-170.844 170.844-170.844-76.402-170.844-170.844 76.402-170.49 170.844-170.49zM853.51 618.667c31.48 0 56.948-25.467 56.948-56.948s-25.467-56.948-56.948-56.948-56.948 25.467-56.948 56.948 25.467 56.948 56.948 56.948zM853.51 334.281c-62.961 0-124.153-21.223-174.027-59.778-113.896 113.542-285.093 147.145-433.653 85.599s-245.477-206.215-245.831-367.154c0-31.48 25.467-56.948 56.948-56.948s56.948 25.467 56.948 56.948c0 157.049 127.337 284.385 284.385 284.385s284.385-127.337 284.385-284.385c0-31.48 25.467-56.948 56.948-56.948s56.948 25.467 56.948 56.948c0 66.498-16.625 132.289-48.812 190.651 51.288 40.677 121.324 48.105 180.040 19.808s96.21-88.075 96.21-153.512c0-31.48 25.467-56.948 56.948-56.948s56.948 25.467 56.948 56.948c0 157.049-127.337 284.385-284.385 284.385v0z" />
<glyph unicode="&#xe911;" glyph-name="plus-circle" d="M512 960c-282.844 0-512-229.156-512-512s229.156-512 512-512 512 229.156 512 512c0 135.748-54.124 265.821-150.152 361.848s-226.101 150.152-361.848 150.152zM512 38.575c-226.101 0-409.425 183.325-409.425 409.425s183.325 409.425 409.425 409.425 409.425-183.325 409.425-409.425c0-108.685-43.212-213.006-120.034-289.828-76.822-76.385-180.706-119.598-289.391-119.598zM665.644 499.069h-102.575v102.575c0 28.372-23.134 51.069-51.069 51.069-28.372 0-51.069-23.134-51.069-51.069v-102.575h-102.575c-28.372 0-51.069-23.134-51.069-51.069 0-28.372 23.134-51.069 51.069-51.069h102.575v-102.575c0-28.372 23.134-51.069 51.069-51.069 28.372 0 51.069 23.134 51.069 51.069v102.575h102.575c28.372 0 51.069 23.134 51.069 51.069 0 28.372-22.697 51.069-51.069 51.069z" />
<glyph unicode="&#xe912;" glyph-name="power-off" horiz-adv-x="976" d="M487.787 374.48c26.855 0 48.867 22.012 48.867 48.867v487.787c0 26.855-22.012 48.867-48.867 48.867s-48.867-22.012-48.867-48.867v-487.787c0-26.855 22.012-48.867 48.867-48.867zM711.869 856.984c-23.773 12.327-53.269 3.082-66.036-21.132-12.327-23.773-3.082-53.269 21.132-66.036 159.807-82.765 242.573-263.704 200.31-438.92-42.703-174.776-198.989-298.043-379.047-298.043s-336.784 123.267-379.047 298.043 40.062 356.155 200.31 438.92c15.408 7.924 25.534 23.773 26.414 40.942 0.88 17.61-7.924 33.899-22.452 43.584-14.528 9.245-33.458 10.126-48.867 2.201-200.75-102.576-303.766-329.3-250.937-548.1s249.176-372.444 474.139-372.444 420.87 154.084 474.139 372.444-50.187 445.524-250.057 548.54v0z" />
<glyph unicode="&#xe913;" glyph-name="question-mark-circle" d="M512.241 960c-282.865 0-512.241-229.376-512.241-512.241s229.376-512.241 512.241-512.241 512.241 229.376 512.241 512.241c0 135.891-53.971 265.999-149.865 361.894s-226.967 150.347-362.376 150.347zM512.241 38.159c-226.003 0-409.6 183.597-409.6 409.6s183.597 409.6 409.6 409.6 409.6-183.597 409.6-409.6c0-108.424-43.369-212.992-119.989-289.611s-181.188-119.989-289.611-119.989zM512.241 755.2c-98.786 0-179.26-80.474-179.26-179.26 0-28.431 23.13-51.080 51.080-51.080s51.080 23.13 51.080 51.080c0 42.406 34.214 76.619 76.619 76.619s76.619-34.214 76.619-76.619-34.214-76.619-76.619-76.619c-28.431 0-51.080-23.13-51.080-51.080v-102.641c0-28.431 23.13-51.080 51.080-51.080s51.080 23.13 51.080 51.080v59.272c85.775 25.058 139.746 109.387 126.735 197.572s-88.666 153.239-177.333 152.757zM512.241 242.959c28.431 0 51.080-23.13 51.080-51.080s-23.13-51.080-51.080-51.080-51.080 23.13-51.080 51.080 22.648 51.080 51.080 51.080z" />
<glyph unicode="&#xe914;" glyph-name="refresh" d="M981.239 490.761c-23.462 0-42.761-18.921-42.761-42.761 0-235.376-191.48-426.856-426.856-426.856s-426.477 191.48-426.477 426.856 191.48 426.856 426.856 426.856c128.662 0 247.486-56.763 328.467-154.016h-147.205c-23.462 0-42.761-18.921-42.761-42.761s18.921-42.761 42.761-42.761h239.539c23.462 0 42.761 18.921 42.761 42.761v239.16c0 23.462-18.921 42.761-42.761 42.761-23.462 0-42.761-18.921-42.761-42.761v-123.364c-96.497 105.2-232.349 166.126-378.040 166.126-282.3 0-512-229.7-512-512s229.7-512 512-512 512 229.7 512 512c0 23.462-18.921 42.761-42.761 42.761z" />
<glyph unicode="&#xe915;" glyph-name="sort" horiz-adv-x="575" d="M242.792-45.354c24.862-24.862 64.874-24.862 89.736 0l224.146 224.146c24.862 24.862 24.862 64.874 0 89.736s-64.874 24.862-89.736 0l-115.375-115.375-63.32-62.932-64.486 62.543-115.375 115.763c-24.862 24.862-64.874 24.862-89.736 0s-24.862-64.874 0-89.736l224.146-224.146zM351.951 742.847l115.375-115.375c24.862-24.862 64.874-24.862 89.736 0s24.862 64.874 0 89.736l-224.534 224.146c-24.862 24.862-64.874 24.862-89.736 0l-224.146-224.146c-24.862-24.862-24.862-64.874 0-89.736s64.874-24.862 89.736 0l115.763 115.763 62.932 63.709 64.874-64.097z" />
<glyph unicode="&#xe916;" glyph-name="support" d="M58.958 579.103c22.109-8.533 46.545 2.327 55.079 24.048 64.776 164.848 220.703 271.515 397.964 271.515s333.188-106.667 397.576-271.515c6.594-16.679 22.885-27.152 39.952-27.152 5.042 0 10.473 0.776 15.515 3.103 22.109 8.533 32.97 33.358 24.048 55.079-77.188 197.818-264.533 325.818-477.091 325.818s-399.903-128-477.091-325.818c-8.533-22.109 2.327-46.545 24.048-55.079v0zM851.006 486.788c-19.394 169.891-163.685 302.545-339.006 302.545s-319.612-132.655-339.006-302.545c-98.521-19.006-172.994-105.503-172.994-209.455 0-117.527 95.806-213.333 213.333-213.333 23.661 0 42.667 19.006 42.667 42.667v341.333c0 141.188 114.812 256 256 256s256-114.812 256-256v-384c0-23.661-19.006-42.667-42.667-42.667h-85.333c-23.661 0-42.667 19.006-42.667 42.667s-19.006 42.667-42.667 42.667-42.667-19.006-42.667-42.667c0-70.594 57.406-128 128-128h85.333c70.594 0 128 57.406 128 128v4.267c97.358 19.782 170.667 105.891 170.667 209.067 0 103.952-74.473 190.448-172.994 209.455zM85.333 277.333c0 55.467 35.685 102.788 85.333 120.63v-240.873c-49.648 17.455-85.333 64.776-85.333 120.242v0zM853.333 156.703v240.873c49.648-17.455 85.333-64.776 85.333-120.63s-35.685-102.4-85.333-120.242z" />
<glyph unicode="&#xe917;" glyph-name="trash" d="M972.986 755.2h-256.186v85.644c-2.607 68.143-59.578 121.763-128.093 119.156h-153.786c-68.143 2.234-125.487-51.014-128.093-119.156v-85.644h-255.441c-28.3 0-51.386-23.087-51.386-51.386s23.087-51.386 51.386-51.386h51.014v-563.386c0-84.899 68.887-153.786 153.786-153.786h512c84.899 0 153.786 68.887 153.786 153.786v563.759h51.014c28.3 0 51.386 23.087 51.386 51.386-0.372 27.927-23.459 51.014-51.386 51.014zM409.6 840.471c0 8.192 10.799 16.756 25.693 16.756h153.786c14.895 0 25.693-8.564 25.693-16.756v-85.644h-204.8v85.644zM819.2 89.414c0-28.3-23.087-51.386-51.014-51.386h-512c-28.3 0-51.386 23.087-51.386 51.386v563.386h614.4v-563.386zM358.586 191.814c28.3 0 51.386 23.087 51.386 51.386v204.8c0 28.3-23.087 51.386-51.386 51.386s-51.386-23.087-51.386-51.386v-204.8c0-28.3 23.087-51.386 51.386-51.386zM665.786 191.814c28.3 0 51.386 23.087 51.386 51.386v204.8c0 28.3-23.087 51.386-51.386 51.386s-51.386-23.087-51.386-51.386v-204.8c0-28.3 23.087-51.386 51.386-51.386z" />
<glyph unicode="&#xe918;" glyph-name="user-checked" horiz-adv-x="1241" d="M1236.437 386.56c9.719-21.521 0.694-37.489-13.885-52.068-68.035-68.035-136.765-136.071-204.8-204.8-56.927-56.927-113.161-113.855-170.088-170.088-30.546-30.546-52.762-29.852-83.308 0.694-70.118 70.118-140.236 139.542-210.354 208.965-15.967 15.273-24.993 31.935-13.191 54.151 13.885 26.381 43.737 29.158 67.341 6.248 59.704-59.010 119.409-118.715 179.113-179.113 5.554-5.554 9.025-13.191 13.885-20.133 3.471-0.694 6.942-1.388 11.108-2.083 4.86 8.331 9.025 18.050 15.967 24.993 111.772 112.466 224.239 224.933 336.705 337.399 25.687 26.381 57.622 24.298 71.506-4.165zM780.323 719.1c6.248-96.499-18.050-178.419-88.168-247.843-12.496-12.496-9.025-42.348-8.331-63.87 0-6.248 15.273-13.885 24.993-18.744 39.572-17.356 79.143-33.323 118.715-49.985 27.075-11.802 36.1-30.546 26.381-53.456s-30.546-32.629-56.233-22.216c-55.539 22.216-110.384 45.82-165.923 69.424-20.133 8.331-29.852 23.604-29.852 45.82 0 17.356 0 34.018 0 51.374v0c0 10.414 0.694 21.521 0 31.935-2.777 30.546 8.331 50.679 33.323 70.118 102.747 81.92 82.614 273.529-32.629 329.763-107.607 52.068-235.346-19.439-244.372-138.847-2.777-35.406 1.388-72.895 8.331-108.301 7.637-37.489 30.546-67.341 63.176-89.557 18.050-11.802 25.687-27.769 24.993-49.291-0.694-27.769 0-54.845 0-82.614 0-39.572-6.942-49.985-42.348-64.564-79.143-31.935-155.509-64.564-233.264-95.805-65.258-26.381-97.887-74.283-97.193-145.096 0-12.496 0.694-24.298 0-36.795-2.083-24.298-18.050-40.266-40.96-39.572-22.91 0-38.183 15.273-39.572 40.266-9.025 132.599 41.654 213.131 165.228 263.116 61.787 24.993 122.88 51.374 183.973 75.672 15.273 6.248 21.521 13.885 22.216 31.935 1.388 27.769-6.248 47.208-27.075 68.035-125.657 128.434-90.945 408.212 117.326 460.974 157.592 39.572 306.159-68.729 317.266-231.875z" />
<glyph unicode="&#xe919;" glyph-name="home" d="M1013.11 543.872l-485.392 355.394c-9.36 6.852-22.076 6.852-31.432 0l-485.396-355.394c-11.856-8.682-14.432-25.33-5.75-37.186s25.332-14.428 37.186-5.75l469.674 343.888 469.674-343.886c4.736-3.47 10.24-5.14 15.696-5.14 8.192 0 16.276 3.77 21.488 10.89 8.684 11.854 6.108 28.502-5.748 37.184zM884.492 494.914c-14.692 0-26.606-11.912-26.606-26.606v-423.498h-212.844v231.172c0 73.36-59.684 133.040-133.040 133.040s-133.040-59.684-133.040-133.040v-231.174h-212.846v423.498c0 14.694-11.914 26.606-26.606 26.606s-26.606-11.912-26.606-26.606v-450.106c0-14.694 11.914-26.606 26.606-26.606h266.058c13.992 0 25.442 10.81 26.502 24.534 0.064 0.622 0.104 1.302 0.104 2.072v257.78c0 44.018 35.81 79.828 79.828 79.828s79.828-35.812 79.828-79.828v-257.78c0-0.766 0.040-1.434 0.104-2.048 1.048-13.734 12.502-24.558 26.502-24.558h266.058c14.694 0 26.606 11.912 26.606 26.606v450.106c-0.002 14.696-11.914 26.608-26.608 26.608z" />
<glyph unicode="&#xe91a;" glyph-name="activity-outline" horiz-adv-x="1280" d="M789.221-64h-13.431c-55.874 5.373-101.003 46.204-112.823 101.003l-171.383 795.131-176.756-409.385c-10.208-23.639-33.31-38.682-59.098-38.682h-191.799c-35.459 0-63.933 29.012-63.933 64.47s28.474 63.933 63.933 63.933h149.893l160.638 370.703c28.474 64.47 103.689 94.556 168.697 66.082 38.145-16.655 65.545-50.502 74.141-90.795l171.383-794.594 176.756 408.311c9.671 23.639 33.31 39.757 59.098 39.757h192.336c35.459 0 63.933-28.474 63.933-63.933s-28.474-63.933-63.933-63.933h-149.893l-160.638-370.703c-20.416-46.204-66.082-76.827-117.121-77.364z" />
<glyph unicode="&#xe91b;" glyph-name="clipboard-outline" horiz-adv-x="922" d="M768.11 806.29v51.090c0 56.815-45.805 102.62-102.62 102.62h-409.6c-56.375 0-102.18-45.805-102.18-102.62v-51.090c-85.003 0-153.71-68.707-153.71-153.71v-563.31c0-85.003 68.707-153.71 153.71-153.71h614.4c85.003 0 153.71 68.707 153.71 153.71v563.31c0 85.003-69.148 153.71-153.71 153.71zM255.89 857.38h409.6v-204.8h-409.6v204.8zM819.2 89.71c0-28.188-22.902-51.090-51.090-51.090h-614.4c-28.188 0-51.090 22.902-51.090 51.090v562.87c0 28.188 22.902 51.090 51.090 51.090v-51.090c0-56.375 45.805-102.18 102.18-102.18h409.6c56.375 0 102.62 45.805 102.62 102.62v51.090c28.188 0 51.090-22.902 51.090-51.090v-563.31z" />
<glyph unicode="&#xe91c;" glyph-name="folder-outline" horiz-adv-x="1204" d="M1053.793-64h-903.172c-82.207-1.103-149.517 64.552-150.621 146.207v731.586c1.103 81.655 68.414 147.31 150.621 146.207h276.966c18.207 0 34.759-8.276 46.345-22.069l156.69-191.448h421.517c82.207 2.207 150.621-62.897 152.276-145.103 0-0.552 0-1.103 0-1.103v-517.517c-1.103-82.207-68.414-147.862-150.621-146.759zM120.276 342.069v-259.862c1.103-15.448 14.345-27.034 29.241-25.931 0 0 0.552 0 0.552 0h903.724c15.448-1.103 28.69 9.931 29.793 25.379 0 0 0 0.552 0 0.552v517.517c-1.103 15.448-14.345 27.034-29.241 25.931 0 0-0.552 0-0.552 0h-451.862c-18.207 0-34.759 8.276-46.345 22.069l-156.138 192h-248.828c-15.448 1.103-28.69-9.931-29.793-25.379 0 0 0-0.552 0-0.552v-471.724z" />
<glyph unicode="&#xe91d;" glyph-name="settings-outline" d="M560.175-64h-96.724c-47.428 0-85.894 38.465-85.894 85.894v0 55.644c-0.747 6.722-4.855 12.324-11.204 14.938-6.349 4.108-14.565 4.108-20.913 0l-37.718-41.080c-33.237-33.611-87.387-33.611-120.998-0.373 0 0-0.373 0.373-0.373 0.373l-70.582 69.088c-16.432 16.058-25.768 38.092-25.768 60.872 0 23.154 9.336 45.561 25.768 61.993l37.718 37.718c3.735 5.602 3.735 13.071 0 19.046-2.988 7.842-8.216 13.444-15.311 13.444h-52.283c-47.428 0-85.894 38.839-85.894 86.267v96.724c0 47.428 38.465 85.894 85.894 85.894v0h56.018c6.722 0.747 12.324 4.855 14.938 11.204 4.108 6.349 4.108 14.565 0 20.913l-41.080 38.092c-33.611 33.237-33.611 87.387-0.373 120.998 0 0 0.373 0.373 0.373 0.373l68.341 70.209c15.685 16.432 37.718 25.395 60.499 25.768 23.527 0 45.934-8.963 62.366-25.768l37.718-37.718c5.602-3.735 13.071-3.735 19.046 0 7.842 2.988 13.444 8.216 13.444 15.311v52.283c0.373 47.428 38.839 85.894 86.64 85.894h99.338c47.428 0 85.894-38.465 85.894-85.894v0-56.018c0.747-6.722 4.855-12.324 11.204-14.938 6.349-4.108 14.565-4.108 20.913 0l35.478 41.080c33.237 33.611 87.387 33.611 120.998 0.373 0 0 0.373-0.373 0.373-0.373l70.209-68.715c16.432-16.058 25.395-38.092 25.768-60.872 0.373-23.154-8.963-45.934-25.768-61.993l-38.092-37.718c-3.735-5.602-3.735-13.071 0-19.046 2.988-7.842 8.216-13.444 15.311-13.444h55.644c46.308-2.241 82.532-40.333 82.532-86.64v-99.338c0-47.428-38.465-85.894-85.894-85.894v0h-55.644c-6.722-0.747-12.324-4.855-14.938-11.204-3.735-5.602-3.735-13.071 0-19.046l39.586-39.586c33.611-33.237 33.611-87.387 0.373-120.998 0 0-0.373-0.373-0.373-0.373l-67.221-67.968c-15.685-16.432-37.718-25.395-60.499-25.768-22.78 0.373-44.814 9.336-60.872 25.768l-39.212 38.465c-5.602 3.735-13.071 3.735-19.046 0-7.842-2.988-13.444-8.216-13.444-15.311v-55.644c-1.867-46.681-40.333-82.906-86.267-82.906zM479.51 38.325h64.607v39.586c0.373 48.175 29.876 91.495 74.69 109.421 44.814 19.793 97.47 10.083 132.575-23.901l27.635-27.635 45.187 45.187-27.635 28.009c-33.984 34.731-43.694 86.267-24.648 131.081 18.299 44.441 61.246 73.943 109.421 74.317h39.959v66.101h-39.586c-48.175 0.373-91.495 29.876-109.421 74.69-19.793 44.814-10.083 97.47 23.901 132.575l27.635 27.635-45.187 45.187-28.009-27.635c-50.042-45.561-127.346-42.2-172.907 7.842-19.419 21.287-30.623 48.922-31.743 77.678v39.212h-66.474v-39.586c-0.373-48.175-29.876-91.495-74.69-109.421-44.814-19.793-97.47-10.083-132.575 23.901l-27.635 27.635-44.814-44.814 27.635-28.009c45.561-50.042 42.2-127.346-7.842-172.907-21.287-19.419-48.922-30.623-77.678-31.743h-39.586v-64.607h39.586c48.175-0.373 91.495-29.876 109.421-74.69 19.793-44.814 10.083-97.47-23.901-132.575l-27.635-27.635 45.187-45.187 28.009 27.635c50.042 45.561 127.346 42.2 172.907-7.842 19.419-21.287 30.623-48.922 31.743-77.678l1.867-41.826zM512 268.744c-98.964 0-179.256 80.292-179.256 179.256s80.292 179.256 179.256 179.256 179.256-80.292 179.256-179.256-80.292-179.256-179.256-179.256zM512 524.931c-42.573 0-76.931-34.357-76.931-76.931s34.357-76.931 76.931-76.931c42.573 0 76.931 34.357 76.931 76.931-0.373 42.573-34.731 76.931-76.931 76.931z" />
</font>
</defs>
</svg>
