<?xml version="1.0" encoding="utf-8"?>
<!-- Generator: Adobe Illustrator 22.0.1, SVG Export Plug-In . SVG Version: 6.00 Build 0)  -->
<svg version="1.1" id="Layer_1" xmlns="http://www.w3.org/2000/svg" xmlns:xlink="http://www.w3.org/1999/xlink" x="0px" y="0px"
	 viewBox="0 0 50 57" style="enable-background:new 0 0 50 57;" xml:space="preserve">
<style type="text/css">
	.st0{fill:#FFFFFF;}
</style>
<path id="Combined-Shape" class="st0" d="M35.2,28c1.7,0,3.3,0.3,4.6,0.9c1.4,0.6,2.5,1.4,3.4,2.5c0.9,1.1,1.5,2.4,1.9,3.9l-6.9,1.3
	c-0.2-0.8-0.6-1.4-1.1-1.9s-1.2-0.7-2-0.7c-0.8,0-1.4,0.2-1.9,0.6c-0.5,0.4-0.8,0.9-0.8,1.5c0,0.5,0.1,0.8,0.4,1.2s0.7,0.6,1.3,0.8
	s1.4,0.4,2.4,0.6l0.8,0.2c2.7,0.5,4.8,1.5,6.2,3c1.5,1.5,2.2,3.2,2.2,5.4c0,1.3-0.3,2.5-0.8,3.6c-0.5,1.1-1.3,2.1-2.2,2.9
	s-2.1,1.4-3.4,1.9c-1.3,0.4-2.7,0.7-4.3,0.7c-1.8,0-3.5-0.3-5-0.9c-1.5-0.6-2.7-1.5-3.7-2.6c-1-1.1-1.7-2.5-2-4l7.1-1.3
	c0.3,0.8,0.7,1.5,1.4,2c0.7,0.5,1.5,0.8,2.4,0.8c0.9,0,1.6-0.2,2.2-0.6s0.8-0.9,0.8-1.6c0-0.5-0.1-0.9-0.4-1.3
	c-0.3-0.3-0.7-0.6-1.3-0.8s-1.5-0.4-2.5-0.7L33,45.1c-1.7-0.3-3.1-0.8-4.4-1.6s-2.1-1.7-2.8-2.8s-1-2.4-1-3.8c0-1.3,0.3-2.4,0.8-3.5
	c0.5-1.1,1.2-2,2.2-2.8c0.9-0.8,2-1.4,3.3-1.9C32.4,28.2,33.8,28,35.2,28z M12,28.6c2,0,3.7,0.3,5.1,0.9c1.4,0.6,2.5,1.4,3.3,2.5
	c0.8,1.1,1.2,2.3,1.2,3.8c0,1.2-0.3,2.4-0.9,3.3c-0.6,1-1.4,1.8-2.4,2.3c1.4,0.5,2.5,1.4,3.3,2.5c0.8,1.1,1.2,2.5,1.2,4
	c0,1.6-0.4,3-1.3,4.1c-0.8,1.2-2.1,2.1-3.6,2.7s-3.4,1-5.6,1H1.1V28.6H12z M12,44.5H8.2V50H12c1.1,0,1.9-0.2,2.4-0.7
	c0.6-0.5,0.8-1.2,0.8-2c0-0.9-0.3-1.6-0.8-2C13.9,44.7,13.1,44.5,12,44.5z M11.3,34.3h-3v4.9h3c1,0,1.7-0.2,2.2-0.6
	c0.5-0.4,0.7-1,0.7-1.8s-0.2-1.4-0.7-1.8C12.9,34.5,12.2,34.3,11.3,34.3z M38.4,0.3c1.6,0,3.2,0.3,4.6,0.8c1.4,0.5,2.6,1.3,3.7,2.2
	s1.9,2.1,2.5,3.5l-6.3,1.7c-1-1.7-2.5-2.6-4.5-2.6c-1.1,0-2.1,0.3-3,0.8c-0.9,0.5-1.5,1.3-2,2.2c-0.5,0.9-0.7,2-0.7,3.2
	c0,0.9,0.1,1.8,0.4,2.5s0.7,1.5,1.2,2c0.5,0.6,1.2,1,1.9,1.3c0.7,0.3,1.5,0.5,2.4,0.5c0.8,0,1.5-0.1,2.1-0.4
	c0.6-0.3,1.2-0.6,1.6-1.1c0.5-0.4,0.8-1,1-1.6h-4.5v-5.1H50v2.8c0,1.6-0.3,3.1-0.9,4.4c-0.6,1.3-1.4,2.5-2.4,3.5
	c-1,1-2.3,1.7-3.7,2.3c-1.4,0.5-3,0.8-4.7,0.8c-1.4,0-2.8-0.2-4-0.6c-1.2-0.4-2.4-0.9-3.4-1.6c-1-0.7-1.9-1.6-2.6-2.6
	c-0.7-1-1.3-2.1-1.7-3.3C26.2,15,26,13.7,26,12.4c0-1.4,0.2-2.7,0.6-3.9c0.4-1.2,1-2.3,1.7-3.3c0.7-1,1.6-1.9,2.6-2.6
	c1-0.7,2.2-1.3,3.4-1.7C35.6,0.5,36.9,0.3,38.4,0.3z M6.3,0.3l5.7,11.9l5.7-11.9H24v23h-6v-13l-3.9,8.2H9.9L6,10.4v12.9H0v-23H6.3z"
	/>
</svg>
