<?xml version="1.0" encoding="UTF-8"?>
<svg width="66px" height="46px" viewBox="0 0 66 46" version="1.1" xmlns="http://www.w3.org/2000/svg" xmlns:xlink="http://www.w3.org/1999/xlink">
    <!-- Generator: Sketch 61.2 (89653) - https://sketch.com -->
    <title>Group 4</title>
    <desc>Created with Sketch.</desc>
    <defs>
        <linearGradient x1="106.99099%" y1="-46.8161788%" x2="-3.02548784%" y2="105.592083%" id="linearGradient-1">
            <stop stop-color="#01C092" offset="15%"></stop>
            <stop stop-color="#04BEA3" offset="21%"></stop>
            <stop stop-color="#0ABABF" offset="33%"></stop>
            <stop stop-color="#0EB8D4" offset="46%"></stop>
            <stop stop-color="#12B6E4" offset="60%"></stop>
            <stop stop-color="#13B4ED" offset="77%"></stop>
            <stop stop-color="#14B4F0" offset="100%"></stop>
        </linearGradient>
        <linearGradient x1="120.556322%" y1="139.013944%" x2="32.7764203%" y2="27.4741154%" id="linearGradient-2">
            <stop stop-color="#01C092" offset="15%"></stop>
            <stop stop-color="#04BEA3" offset="21%"></stop>
            <stop stop-color="#0ABABF" offset="33%"></stop>
            <stop stop-color="#0EB8D4" offset="46%"></stop>
            <stop stop-color="#12B6E4" offset="60%"></stop>
            <stop stop-color="#13B4ED" offset="77%"></stop>
            <stop stop-color="#14B4F0" offset="100%"></stop>
        </linearGradient>
        <linearGradient x1="187.488651%" y1="128.746435%" x2="-106.22558%" y2="-119.816274%" id="linearGradient-3">
            <stop stop-color="#01C092" offset="15%"></stop>
            <stop stop-color="#04BEA3" offset="21%"></stop>
            <stop stop-color="#0ABABF" offset="33%"></stop>
            <stop stop-color="#0EB8D4" offset="46%"></stop>
            <stop stop-color="#12B6E4" offset="60%"></stop>
            <stop stop-color="#13B4ED" offset="77%"></stop>
            <stop stop-color="#14B4F0" offset="100%"></stop>
        </linearGradient>
    </defs>
    <g id="Page-1" stroke="none" stroke-width="1" fill="none" fill-rule="evenodd">
        <g id="Group-4" transform="translate(-8.000000, -12.000000)" fill-rule="nonzero">
            <g id="Asset-2" transform="translate(8.000000, 12.000000)">
                <g id="Group" opacity="0.3" fill="#2988B7">
                    <path d="M1.91180007,44.5280016 C1.91180007,44.5280016 5.01380018,46.3320017 7.54380028,39.8860015 C10.0738004,33.4400012 16.6078006,24.6180009 24.9018009,22.7920008 C33.1958012,20.9660008 32.4918012,14.4980005 30.8638011,14.4980005 C29.2358011,14.4980005 12.9998005,15.5760006 12.9998005,15.5760006 C12.9998005,15.5760006 8.44580031,16.0820006 6.79580025,20.7680008 C5.14580019,25.4540009 0.0418000015,41.8440015 0.0418000015,41.8440015 C0.0418000015,41.8440015 -0.220000008,44.1540016 1.91180007,44.5280016 Z" id="Path"></path>
                    <path d="M26.749801,37.5100014 C26.668401,37.0348014 26.587001,36.5750013 26.505601,36.1196013 C26.1605032,36.5809448 25.7490485,36.9886927 25.2846009,37.3296014 L25.2846009,37.5496014 C25.0775085,37.4322499 24.8554964,37.3434451 24.6246009,37.2856014 L16.6386006,37.8136014 C16.0080023,37.7865741 15.3763999,37.7939183 14.7466005,37.8356014 C13.4486005,37.8796014 11.4466004,40.1676015 10.6326004,42.3896016 C9.81860036,44.6116016 11.9526004,45.0296016 11.9526004,45.0296016 C11.9526004,45.0296016 20.2686007,44.9416016 22.6006008,45.0296016 C22.8740491,45.04015 23.1475648,45.0105006 23.4124009,44.9416016 L28.540601,44.9416016 C29.7072834,44.9426569 30.7589587,44.2386429 31.2026011,43.1596016 L31.2026011,43.1376016 C31.2071581,43.0908533 31.2221978,43.0457344 31.2466011,43.0056016 C34.9426013,34.8436013 46.6706018,4.65960017 65.2166025,0.215600008 C65.2078025,0.220000008 45.2518017,1.45200005 26.749801,37.5100014 Z" id="Path"></path>
                    <path d="M18.1038007,33.8580012 L24.8358009,33.9020012 C24.8358009,33.9020012 26.683801,33.9900012 27.629801,31.5700012 C28.575801,29.1500011 28.575801,26.092001 26.859801,26.092001 L22.9878008,26.092001 C22.9878008,26.092001 22.3498008,29.1720011 19.1818007,29.1500011 C16.2118006,29.1280011 15.4000006,33.6600012 17.1600006,33.9020012 L18.1038007,33.8580012 Z" id="Path"></path>
                </g>
                <path d="M1.73580006,43.7140016 C1.73580006,43.7140016 4.84000018,45.1660017 7.36780027,38.7200014 C9.89560036,32.2740012 16.4318006,23.4520009 24.7258009,21.6260008 C33.0198012,19.8000007 32.3158012,14.4100005 30.6878011,14.4100005 L12.8238005,14.4100005 C12.8238005,14.4100005 8.2698003,14.9160005 6.61980024,19.6020007 C4.96980018,24.2880009 0.0418000015,41.5800015 0.0418000015,41.5800015 C0.0418000015,41.5800015 -0.420200015,43.3180016 1.73580006,43.7140016 Z" id="Path" fill="url(#linearGradient-1)"></path>
                <path d="M25.977601,36.2472013 C25.8392269,36.5191954 25.628318,36.7476166 25.3682009,36.9072013 C25.0910009,37.0920014 23.8150009,37.1668014 22.7942008,37.1866014 L16.4538006,37.1866014 C16.4538006,37.1866014 15.8378006,37.1426014 14.5398005,37.1646014 C13.2418005,37.1866014 11.4400004,39.4900014 10.6238004,41.7120015 C9.80760036,43.9340016 11.7678004,43.8240016 11.7678004,43.8240016 C11.7678004,43.8240016 18.1698007,43.7558016 21.3158008,43.7998016 C21.5433384,43.873027 21.7807735,43.9108682 22.0198008,43.9120063 L28.311801,43.9120063 C29.4784834,43.9130569 30.5301586,43.2090428 30.9738011,42.1300015 L30.9738011,42.1080015 C30.9783581,42.0612533 30.9933978,42.0161343 31.0178011,41.9760015 C34.7138013,33.8140012 45.7938018,4.86200018 64.3398025,0.418000015 C64.3398025,0.418000015 44.4400016,0.440000016 25.977601,36.2472013 Z" id="Path" fill="url(#linearGradient-2)"></path>
                <path d="M17.9278007,32.6700012 L24.6598009,32.7140012 C24.6598009,32.7140012 26.507801,32.8020012 27.453801,30.3820011 C28.399801,27.962001 28.399801,25.982001 26.683801,25.982001 L22.8118008,25.982001 C22.8118008,25.982001 21.2938008,25.7840009 19.0058007,27.962001 C16.7178006,30.1400011 15.2218006,32.4720012 16.9818006,32.7140012 L17.9278007,32.6700012 Z" id="Path" fill="url(#linearGradient-3)"></path>
            </g>
        </g>
    </g>
</svg>