<?xml version="1.0" encoding="UTF-8"?>
<svg width="175px" height="54px" viewBox="0 0 175 54" version="1.1" xmlns="http://www.w3.org/2000/svg" xmlns:xlink="http://www.w3.org/1999/xlink">
    <!-- Generator: Sketch 61.2 (89653) - https://sketch.com -->
    <title>Asset 1</title>
    <desc>Created with Sketch.</desc>
    <defs>
        <linearGradient x1="90.4328959%" y1="5.15130522%" x2="-0.645763423%" y2="76.7224065%" id="linearGradient-1">
            <stop stop-color="#01C092" offset="15%"></stop>
            <stop stop-color="#04BEA3" offset="21%"></stop>
            <stop stop-color="#0ABABF" offset="33%"></stop>
            <stop stop-color="#0EB8D4" offset="46%"></stop>
            <stop stop-color="#12B6E4" offset="60%"></stop>
            <stop stop-color="#13B4ED" offset="77%"></stop>
            <stop stop-color="#14B4F0" offset="100%"></stop>
        </linearGradient>
        <linearGradient x1="141.421053%" y1="412.526316%" x2="10.7105263%" y2="281.342105%" id="linearGradient-2">
            <stop stop-color="#01C092" offset="15%"></stop>
            <stop stop-color="#04BEA3" offset="21%"></stop>
            <stop stop-color="#0ABABF" offset="33%"></stop>
            <stop stop-color="#0EB8D4" offset="46%"></stop>
            <stop stop-color="#12B6E4" offset="60%"></stop>
            <stop stop-color="#13B4ED" offset="77%"></stop>
            <stop stop-color="#14B4F0" offset="100%"></stop>
        </linearGradient>
        <linearGradient x1="106.99099%" y1="152.525582%" x2="-3.02548784%" y2="0.110878918%" id="linearGradient-3">
            <stop stop-color="#01C092" offset="15%"></stop>
            <stop stop-color="#04BEA3" offset="21%"></stop>
            <stop stop-color="#0ABABF" offset="33%"></stop>
            <stop stop-color="#0EB8D4" offset="46%"></stop>
            <stop stop-color="#12B6E4" offset="60%"></stop>
            <stop stop-color="#13B4ED" offset="77%"></stop>
            <stop stop-color="#14B4F0" offset="100%"></stop>
        </linearGradient>
        <linearGradient x1="106.984053%" y1="152.51914%" x2="-3.03242544%" y2="0.104437318%" id="linearGradient-4">
            <stop stop-color="#01C092" offset="15%"></stop>
            <stop stop-color="#04BEA3" offset="21%"></stop>
            <stop stop-color="#0ABABF" offset="33%"></stop>
            <stop stop-color="#0EB8D4" offset="46%"></stop>
            <stop stop-color="#12B6E4" offset="60%"></stop>
            <stop stop-color="#13B4ED" offset="77%"></stop>
            <stop stop-color="#14B4F0" offset="100%"></stop>
        </linearGradient>
        <linearGradient x1="220.2648%" y1="100.332069%" x2="-0.696231151%" y2="-39.236735%" id="linearGradient-5">
            <stop stop-color="#01C092" offset="15%"></stop>
            <stop stop-color="#04BEA3" offset="21%"></stop>
            <stop stop-color="#0ABABF" offset="33%"></stop>
            <stop stop-color="#0EB8D4" offset="46%"></stop>
            <stop stop-color="#12B6E4" offset="60%"></stop>
            <stop stop-color="#13B4ED" offset="77%"></stop>
            <stop stop-color="#14B4F0" offset="100%"></stop>
        </linearGradient>
        <linearGradient x1="187.488651%" y1="168.035752%" x2="-106.22558%" y2="-80.5269566%" id="linearGradient-6">
            <stop stop-color="#01C092" offset="15%"></stop>
            <stop stop-color="#04BEA3" offset="21%"></stop>
            <stop stop-color="#0ABABF" offset="33%"></stop>
            <stop stop-color="#0EB8D4" offset="46%"></stop>
            <stop stop-color="#12B6E4" offset="60%"></stop>
            <stop stop-color="#13B4ED" offset="77%"></stop>
            <stop stop-color="#14B4F0" offset="100%"></stop>
        </linearGradient>
    </defs>
    <g id="Page-1" stroke="none" stroke-width="1" fill="none" fill-rule="evenodd">
        <g id="Home_2_2" transform="translate(-18.000000, -20.000000)">
            <g id="Asset-1" transform="translate(18.000000, 20.000000)">
                <path d="M117.925617,0.0220220016 C99.3610692,4.47046633 85.6193402,34.6846526 81.9218461,42.8548152 C81.8974184,42.8949881 81.8823637,42.9401522 81.8778021,42.9869472 L81.8778021,43.0089692 C81.433716,44.0890896 80.380989,44.7938077 79.2131399,44.7927525 L72.9148475,44.7927525 C71.7824109,44.7878296 70.816851,43.9708173 70.6245593,42.8548152 L68.2682051,21.4274076 C68.1985,21.0067198 68.3214834,20.5769727 68.6031906,20.2568509 C68.8848979,19.936729 69.2955211,19.7601049 69.7216572,19.7757575 C70.0386709,19.7879089 70.3547876,19.8173151 70.6686033,19.8638455 C70.7453731,19.8725061 70.8199637,19.8948833 70.8888233,19.9299115 C73.7957275,21.0089896 75.6455757,26.822798 77.4513798,37.3713368 C95.947659,1.25525409 117.925617,0.0220220016 117.925617,0.0220220016 Z" id="Path" fill="#2988B7" opacity="0.2"></path>
                <path d="M118.057749,0 C99.4932012,4.44844433 85.3991202,33.4293985 81.7016261,41.5995611 C81.6771983,41.639734 81.6621436,41.6848981 81.6575821,41.7316931 L81.6575821,41.7537151 C81.213496,42.8338355 80.160769,43.5385536 78.9929199,43.5374984 L72.6946274,43.5374984 C71.5621909,43.5325755 70.5966309,42.7155632 70.4043393,41.5995611 L66.814753,20.1721535 C66.7450478,19.7514658 66.8680313,19.3217186 67.1497385,19.0015968 C67.4314458,18.6814749 67.842069,18.5048508 68.2682051,18.5205034 C68.5852188,18.5326548 68.9013355,18.562061 69.2151512,18.6085914 C69.291921,18.6172521 69.3665116,18.6396292 69.4353712,18.6746574 C72.3422754,19.7537355 74.7206516,25.5675439 76.5264557,36.1160827 C95.0227349,0.0220220016 118.057749,0 118.057749,0 Z" id="Path" fill="url(#linearGradient-1)"></path>
                <path d="M118.189881,26.272248 C119.709399,26.272248 120.898587,26.712688 121.757445,27.5715461 C122.616303,28.4304041 123.034721,29.6416142 123.034721,31.1611323 C123.034721,31.5134844 123.012699,31.8438144 122.990677,32.1961664 C122.968655,32.5485184 122.924611,32.8348045 122.880567,33.1431125 L121.250939,43.9779373 C121.203717,44.2485417 120.974801,44.4499877 120.700389,44.4624213 L116.582275,44.4624213 C116.420393,44.4622423 116.266594,44.3916653 116.160895,44.2690547 C116.055196,44.146444 116.00805,43.9839242 116.031724,43.8237833 L117.551243,33.6936625 C117.595287,33.3633325 117.639331,33.0550245 117.661353,32.7687385 C117.683375,32.4824524 117.705397,32.2842544 117.705397,32.1080784 C117.735744,31.6037191 117.587618,31.104768 117.286979,30.6986703 C117.017581,30.3543833 116.600855,30.1582769 116.163856,30.1701423 C115.388426,30.1943539 114.634432,30.430453 113.983678,30.8528243 C113.152906,31.3621411 112.403169,31.9931077 111.759456,32.7246944 C111.680908,32.8089772 111.634186,32.9179971 111.627324,33.0330025 L109.997696,43.9999593 C109.950659,44.2697915 109.72292,44.4710074 109.449348,44.4844433 L105.419322,44.4844433 C105.258673,44.4807069 105.107119,44.4091183 105.002197,44.2874085 C104.897275,44.1656987 104.848798,44.0052511 104.868772,43.8458053 L107.357258,27.153128 C107.40448,26.8825236 107.633396,26.6810776 107.907808,26.668644 L111.89379,26.668644 C112.05721,26.6641511 112.213984,26.7333974 112.320728,26.8572198 C112.427471,26.9810421 112.472862,27.1463081 112.44434,27.307282 L112.44434,27.307282 C112.409994,27.5256296 112.507968,27.7436347 112.694051,27.8629184 C112.880133,27.9822022 113.119134,27.9802065 113.303198,27.8578321 C113.881194,27.4599857 114.501619,27.1276152 115.153047,26.866842 C116.113463,26.4612548 117.147422,26.2588117 118.189881,26.272248 Z" id="Path" fill="#FFFFFF"></path>
                <path d="M171.923565,26.272248 C172.444448,26.283178 172.959131,26.3876063 173.443083,26.580556 C173.885524,26.7495791 174.312817,26.9558585 174.720359,27.197172 C174.979761,27.3496054 175.076147,27.6773191 174.940579,27.9459201 L173.002643,32.1521224 C172.924984,32.3214004 172.77198,32.444091 172.589872,32.4831141 C172.407764,32.5221371 172.217922,32.4729137 172.077719,32.3503204 C171.845893,32.1372981 171.595291,31.9456615 171.328971,31.7777484 C170.988078,31.5518124 170.59235,31.4224395 170.183827,31.4033744 C169.607569,31.4245792 169.055876,31.642148 168.620264,32.0199904 C168.028638,32.5027413 167.515965,33.0748547 167.100746,33.7156845 C167.049019,33.7864518 167.01847,33.8704628 167.012658,33.9579265 L165.537184,43.9559153 C165.496229,44.2422453 165.2538,44.4567014 164.964612,44.4625484 L160.980832,44.4625484 C160.811896,44.4659914 160.650136,44.3941827 160.53947,44.2664909 C160.428803,44.138799 160.380715,43.9684751 160.40826,43.8017613 L162.896746,27.153128 C162.937702,26.866798 163.180131,26.6523419 163.469318,26.646622 L167.455301,26.646622 C167.622976,26.646867 167.782317,26.7197673 167.892133,26.8464782 C168.001949,26.9731892 168.051462,27.1412737 168.027873,27.307282 L168.027873,27.307282 C167.997484,27.5542438 168.124664,27.7938742 168.346226,27.9071169 C168.567788,28.0203596 168.836502,27.9830753 169.018863,27.8137881 C169.366316,27.4588575 169.750143,27.1414623 170.164007,26.866842 C170.670413,26.4828615 171.288045,26.2741499 171.923565,26.272248 Z" id="Path" fill="#FFFFFF"></path>
                <path d="M138.273946,18.4764594 L137.150824,26.07405 C137.122776,26.2694208 136.951654,26.4120223 136.754428,26.40438 C136.534208,26.382358 136.291966,26.382358 136.071746,26.360336 C135.719394,26.338314 135.389064,26.316292 135.058734,26.316292 C131.557236,26.316292 128.738419,27.219194 126.646329,29.0470202 C124.554239,30.8748463 123.497183,33.2752445 123.497183,36.2922587 C123.454017,39.1164837 124.858031,41.7666642 127.218901,43.3172772 C128.100303,43.8763401 129.078911,44.2647954 130.103784,44.4624213 C131.541425,44.7281973 133.002477,44.8462621 134.46414,44.8147734 C135.266703,44.8134615 136.0684,44.7619764 136.864538,44.6606193 C137.65733,44.5725313 138.516188,44.4403993 139.41909,44.2642233 C139.577276,44.2380759 139.701251,44.1141011 139.727398,43.9559153 L143.515183,18.6306134 C143.530266,18.5212855 143.498027,18.4107123 143.42655,18.326622 C143.355073,18.2425318 143.251138,18.1929002 143.140809,18.1901734 L138.714386,18.1901734 C138.450122,18.1461294 138.29817,18.2782614 138.273946,18.4764594 Z M135.01469,40.278241 C134.984915,40.4550737 134.840722,40.5902549 134.662338,40.608571 L134.57425,40.608571 C134.450071,40.6240548 134.325014,40.6314111 134.199876,40.6306544 C132.460138,40.6306544 131.138818,40.278241 130.213894,39.529493 C129.288969,38.7807449 128.826507,37.7457108 128.826507,36.3803467 C128.826507,34.6406086 129.399079,33.2752445 130.522202,32.2842544 C131.645324,31.2932643 133.230908,30.8087803 135.256932,30.8087803 L135.939614,30.8087803 C136.047892,30.8126987 136.149087,30.8636085 136.216772,30.9482148 C136.284457,31.0328211 136.311912,31.1427231 136.291966,31.2492203 L135.01469,40.278241 Z" id="Shape" fill="#FFFFFF"></path>
                <path d="M158.049704,28.5625361 C156.508164,26.998974 154.504161,26.228204 152.037697,26.228204 C149.152815,26.228204 146.730395,27.17515 144.792459,29.0910642 C142.854522,31.0069783 141.885554,33.3853545 141.885554,36.2482147 C141.885554,38.8688329 142.634302,40.9609231 144.131799,42.5024632 C145.629295,44.0440033 147.655319,44.8147734 150.187849,44.8147734 C153.072731,44.8147734 155.495151,43.8458053 157.433088,41.8858471 C159.371024,39.925889 160.339992,37.4814468 160.339992,34.5525206 C160.362014,32.1080784 159.591244,30.1040763 158.049704,28.5625361 Z M153.689347,38.8688329 C152.830489,39.991955 151.795455,40.542505 150.562223,40.542505 C149.61423,40.5828983 148.704643,40.1649798 148.117781,39.419383 C147.523187,38.6706349 147.214879,37.6576228 147.214879,36.3803467 C147.214879,34.7286966 147.655319,33.3413105 148.536199,32.1961664 C149.417079,31.0510223 150.474135,30.5004723 151.685345,30.5004723 C152.615972,30.4783821 153.500644,30.9043355 154.063721,31.6456164 C154.658315,32.4163864 154.966623,33.4293985 154.966623,34.6846526 C154.966623,36.3583247 154.548205,37.7457108 153.689347,38.8688329 L153.689347,38.8688329 Z" id="Shape" fill="#FFFFFF"></path>
                <path d="M103.457162,28.3423161 C102.157863,26.95493 100.308015,26.272248 97.9076171,26.272248 C94.9566689,26.272248 92.5782927,27.17515 90.7724886,29.0029762 C88.9666845,30.8308023 88.0637824,33.2091785 88.0637824,36.1821487 C88.0637824,38.8468109 88.8345524,40.9609231 90.3981146,42.5024632 C91.9616767,44.0440033 94.0757888,44.8147734 96.740451,44.8147734 C97.9248194,44.8135689 99.1057922,44.6880905 100.263971,44.4403993 C101.277813,44.2336035 102.261774,43.9006843 103.192898,43.4494093 C103.319056,43.3922487 103.40945,43.2772018 103.43514,43.1411012 L104.227932,39.2872509 C104.251454,39.1765994 104.21014,39.0621867 104.121351,38.99209 C104.032562,38.9219934 103.911685,38.9083608 103.809514,38.9569209 C102.791725,39.42147 101.747556,39.8259016 100.682389,40.168131 C99.7764625,40.4528363 98.8349493,40.6085196 97.8855951,40.630593 C96.454165,40.630593 95.3530649,40.300263 94.5822949,39.617581 C93.8115248,38.9348989 93.4371508,37.9659308 93.4371508,36.6886547 C93.4369518,36.6073987 93.4443243,36.5263008 93.4591728,36.4464127 L93.4591728,36.4464127 C93.479191,36.288985 93.6090036,36.1684447 93.7674808,36.1601267 L105.020724,36.1381047 C105.175182,36.1396879 105.306973,36.0267244 105.329032,35.8738407 C105.351054,35.6315987 105.373076,35.4113787 105.395098,35.1691366 C105.41712,34.8388066 105.41712,34.5084766 105.41712,34.2001686 C105.395098,31.6676384 104.75646,29.7076802 103.457162,28.3423161 Z M99.9336413,33.0770629 L94.6263389,33.0770629 C94.5255722,33.0754701 94.4318379,33.025088 94.3749296,32.9419144 C94.3180213,32.8587407 94.305018,32.7531217 94.3400529,32.6586284 C94.5765349,31.9092697 94.9922962,31.2289331 95.551263,30.6766483 C96.1405189,30.1399305 96.9124812,29.8484753 97.7094191,29.8618342 C98.5462552,29.8618342 99.1628712,30.1040763 99.6033113,30.5885603 C100.043751,31.0730443 100.241949,31.7777484 100.241949,32.7026724 L100.241949,32.7467165 C100.248756,32.8323941 100.219229,32.9169861 100.160585,32.9798186 C100.101941,33.042651 100.019584,33.0779347 99.9336413,33.0770629 Z" id="Shape" fill="#FFFFFF"></path>
                <circle id="Oval" fill="url(#linearGradient-2)" fill-rule="nonzero" cx="79.6073338" cy="18.1681514" r="4.18418031"></circle>
                <path d="M27.3491206,43.9338933 L27.3491206,43.9118713 C27.3548641,43.8107163 27.3850937,43.7124702 27.4372119,43.6255853 L36.1579245,31.6676384 C36.2670666,31.5167393 36.283279,31.3176803 36.1999933,31.1511089 C36.1167077,30.9845376 35.9477329,30.8780721 35.7615285,30.8748463 L29.83761,30.8748463 C29.6914727,30.8797842 29.5511172,30.8175456 29.456667,30.7059227 C29.3622169,30.5942997 29.324068,30.4455786 29.353126,30.3022743 L29.859632,27.06504 C29.8972675,26.8259631 30.1021072,26.6490561 30.3441161,26.6465425 L44.6143731,26.6465425 C44.749432,26.6442096 44.8796701,26.6967985 44.9751864,26.7923148 C45.0707027,26.887831 45.1232915,27.0180692 45.1208792,27.153128 L45.1208792,27.153128 C45.1258639,27.2559172 45.0946979,27.3572069 45.0327912,27.4394141 L36.6424085,39.419383 C36.5326793,39.5738554 36.5192544,39.7769435 36.6076953,39.9445158 C36.6961361,40.112088 36.8713787,40.2156017 37.0608266,40.212175 L43.4472071,40.212175 C43.5919949,40.2113421 43.729704,40.2747308 43.8232301,40.3852617 C43.9167562,40.4957925 43.9564774,40.6420942 43.9316911,40.7847471 L43.4472071,44.0440033 C43.4095716,44.2830803 43.2047319,44.4599872 42.962723,44.4624213 L27.8336079,44.4624213 C27.559036,44.4394621 27.3481656,44.2094218 27.3491206,43.9338933 Z" id="Fill-2" fill="#FFFFFF"></path>
                <path d="M58.7524982,27.109084 L55.0748239,34.6846526 C54.9258256,34.9932099 54.605748,35.1817507 54.2636418,35.1624772 C53.9215356,35.1432036 53.6246602,34.9199048 53.5112618,34.5965646 L50.9567096,27.219194 C50.8460084,26.8755637 50.5249271,26.6436716 50.1639176,26.646622 L46.7284853,26.646622 C46.455467,26.6475701 46.1997948,26.7806118 46.0423488,27.0036604 C45.8849028,27.2267089 45.8451602,27.5121714 45.9356932,27.7697441 L50.9787316,42.4363972 C51.0531095,42.6461923 51.0371616,42.8774368 50.9346876,43.0750352 L46.6624193,51.9719239 C46.5348262,52.2351925 46.5527726,52.545777 46.70984,52.7925971 C46.8669074,53.0394173 47.1406595,53.1872163 47.4331894,53.1832164 L50.9126656,53.1832164 C51.2420138,53.1855165 51.5427815,52.9964625 51.6834357,52.6986499 L63.7955366,27.8358101 C63.9231296,27.5725415 63.9051832,27.261957 63.7481159,27.0151368 C63.5910485,26.7683167 63.3172963,26.6205177 63.0247665,26.6246 L59.5673123,26.6246 C59.221909,26.6031218 58.8985939,26.7953632 58.7524982,27.109084 Z" id="Fill-3" fill="#FFFFFF"></path>
                <g id="Group" opacity="0.2" transform="translate(0.000000, 13.873861)" fill="#2988B7" fill-rule="nonzero">
                    <path d="M1.91371194,30.0600322 C1.91371194,30.0600322 5.01881418,31.8658364 7.55134437,25.4133899 C10.0838746,18.9609434 16.624409,10.1301208 24.9267037,8.30229462 C33.2289983,6.47446848 32.5242942,0 30.8946661,0 C29.265038,0 13.0128008,1.07907808 13.0128008,1.07907808 C13.0128008,1.07907808 8.45424643,1.58558412 6.80259631,6.27627047 C5.15094619,10.9669568 0.0418418031,27.373348 0.0418418031,27.373348 C0.0418418031,27.373348 -0.220220016,29.6856582 1.91371194,30.0600322 Z" id="Path"></path>
                    <path d="M15.1048909,23.3433217 L23.0988775,22.8147937 C23.0988775,22.8147937 25.4332097,23.2992777 24.7505277,25.7657419 C24.0678456,28.2322061 23.4292076,30.6326043 21.0728534,30.5665383 C18.7164992,30.5004723 10.4142046,30.5665383 10.4142046,30.5665383 C10.4142046,30.5665383 8.27807042,30.1481203 9.09288448,27.9238981 C9.90769854,25.6996759 11.9117007,23.4093878 13.2109988,23.3653437 C13.841428,23.323619 14.473662,23.3162674 15.1048909,23.3433217 Z" id="Path"></path>
                    <path d="M18.1219052,19.3793615 L24.8606377,19.4234055 C24.8606377,19.4234055 26.7104858,19.5114935 27.6574319,17.0890733 C28.6043779,14.6666531 28.6043779,11.6055949 26.8866618,11.6055949 L23.0107895,11.6055949 C23.0107895,11.6055949 22.3721515,14.6886751 19.2009832,14.6666531 C16.228013,14.6446311 15.413199,19.1811634 17.1749591,19.4234055 L18.1219052,19.3793615 Z" id="Path"></path>
                </g>
                <path d="M1.73753593,43.1190792 C1.73753593,43.1190792 4.84263816,44.5725313 7.37516835,38.1200849 C9.90769854,31.6676384 16.448233,22.8368157 24.7505277,21.0089896 C33.0528223,19.1811634 32.3481182,13.785773 30.7184901,13.785773 L12.8366248,13.785773 C12.8366248,13.785773 8.27807042,14.2922791 6.6264203,18.9829654 C4.97477017,23.6736518 0.0418418031,40.9829451 0.0418418031,40.9829451 C0.0418418031,40.9829451 -0.420620231,42.7226832 1.73753593,43.1190792 Z" id="Path" fill="url(#linearGradient-3)" fill-rule="nonzero"></path>
                <path d="M1.84764594,43.1190792 C1.84764594,43.1190792 4.95274817,44.5725313 7.48527836,38.1200849 C10.0178085,31.6676384 16.558343,22.8368157 24.8606377,21.0089896 C33.1629323,19.1811634 32.4582282,13.785773 30.8286001,13.785773 L12.9467348,13.785773 C12.9467348,13.785773 8.38818043,14.2922791 6.7365303,18.9829654 C5.08488018,23.6736518 0.151951811,40.9829451 0.151951811,40.9829451 C0.151951811,40.9829451 -0.310510223,42.7226832 1.84764594,43.1190792 Z" id="Path" fill="url(#linearGradient-4)" fill-rule="nonzero"></path>
                <path d="M14.9287149,36.5785447 L22.9227015,36.5785447 C22.9227015,36.5785447 25.2570337,36.5124787 24.5743516,38.9789429 C23.8916696,41.4454071 23.2530315,43.3172772 20.8966774,43.2291892 C18.5403232,43.1411012 10.2380286,43.2291892 10.2380286,43.2291892 C10.2380286,43.2291892 8.27807042,43.3392992 9.09288448,41.1150771 C9.90769854,38.8908549 11.7355247,36.6005667 13.0128008,36.5565227 C14.2900769,36.5124787 14.9287149,36.5785447 14.9287149,36.5785447 Z" id="Path" fill="url(#linearGradient-5)" fill-rule="nonzero"></path>
                <path d="M17.9457291,32.0640344 L24.6844616,32.1080784 C24.6844616,32.1080784 26.5343098,32.1961664 27.4812559,29.7737462 C28.4282019,27.351326 28.4282019,25.3693459 26.7104858,25.3693459 L22.8346135,25.3693459 C22.8346135,25.3693459 21.3150954,25.1711479 19.0248072,27.351326 C16.7345191,29.5315042 15.2370229,31.8658364 16.9987831,32.1080784 L17.9457291,32.0640344 Z" id="Path" fill="url(#linearGradient-6)" fill-rule="nonzero"></path>
            </g>
        </g>
    </g>
</svg>