<?xml version="1.0" encoding="utf-8"?>
<!-- Generator: Adobe Illustrator 22.0.1, SVG Export Plug-In . SVG Version: 6.00 Build 0)  -->
<svg version="1.1" id="Layer_1" xmlns="http://www.w3.org/2000/svg" xmlns:xlink="http://www.w3.org/1999/xlink" x="0px" y="0px"
	 viewBox="0 0 93.6 24" style="enable-background:new 0 0 93.6 24;" xml:space="preserve">
<style type="text/css">
	.st0{fill:#FFFFFF;}
</style>
<path class="st0" d="M83.8,0c1.6,0,3.1,0.3,4.3,0.8c1.3,0.5,2.3,1.2,3.2,2.1c0.8,0.9,1.4,2,1.8,3.3l-6.4,1.1c-0.2-0.7-0.6-1.2-1-1.6
	S84.5,5,83.7,5S82.4,5.2,82,5.6c-0.5,0.3-0.7,0.8-0.7,1.3c0,0.4,0.1,0.7,0.4,1c0.3,0.3,0.7,0.5,1.2,0.7C83.4,8.7,84.1,8.8,85,9
	l0.7,0.2c2.5,0.4,4.5,1.3,5.8,2.5c1.4,1.3,2,2.7,2,4.5c0,1.1-0.3,2.1-0.7,3s-1.2,1.8-2,2.4c-0.8,0.7-2,1.2-3.2,1.6
	c-1.2,0.3-2.5,0.6-4,0.6c-1.7,0-3.3-0.3-4.7-0.8c-1.4-0.5-2.5-1.3-3.4-2.2s-1.6-2.1-1.9-3.4l6.6-1.1c0.3,0.7,0.7,1.3,1.3,1.7
	c0.7,0.4,1.4,0.7,2.2,0.7c0.8,0,1.5-0.2,2-0.5s0.7-0.8,0.7-1.3c0-0.4-0.1-0.8-0.4-1.1c-0.3-0.3-0.7-0.5-1.2-0.7
	c-0.6-0.2-1.4-0.3-2.3-0.6l-0.9-0.3c-1.6-0.3-2.9-0.7-4.1-1.3s-2-1.4-2.6-2.4s-0.9-2-0.9-3.2c0-1.1,0.3-2,0.7-2.9
	c0.5-0.9,1.1-1.7,2-2.4C77.8,1.5,78.8,1,80,0.6C81.2,0.2,82.5,0,83.8,0z M71.2,13.4c-0.7-0.9-1.8-1.7-3.1-2.1
	c0.9-0.4,1.7-1.1,2.2-1.9c0.6-0.8,0.8-1.8,0.8-2.8c0-1.3-0.4-2.3-1.1-3.2c-0.7-0.9-1.8-1.6-3.1-2.1c-1.3-0.5-2.9-0.8-4.7-0.8H52.1
	v22.8h10.4c2,0,3.8-0.3,5.2-0.8c1.4-0.5,2.6-1.3,3.3-2.3c0.8-0.9,1.2-2.1,1.2-3.5C72.3,15.5,71.9,14.3,71.2,13.4z M58.8,5.3h2.8
	c0.8,0,1.5,0.2,2,0.6c0.5,0.3,0.7,0.8,0.7,1.5s-0.2,1.2-0.7,1.5c-0.5,0.3-1.1,0.5-2,0.5h-2.8V5.3z M64.5,17.9
	c-0.5,0.4-1.2,0.6-2.2,0.6h-3.5v-4.6h3.5c1,0,1.8,0.2,2.2,0.7c0.5,0.3,0.7,0.9,0.7,1.7C65.2,16.9,65,17.5,64.5,17.9z M38.4,0.3
	c1.6,0,3.2,0.3,4.6,0.8c1.4,0.5,2.6,1.3,3.7,2.2s1.9,2.1,2.5,3.5l-6.3,1.7c-1-1.7-2.5-2.6-4.5-2.6c-1.1,0-2.1,0.3-3,0.8
	s-1.5,1.3-2,2.2c-0.5,0.9-0.7,2-0.7,3.2c0,0.9,0.1,1.8,0.4,2.5s0.7,1.5,1.2,2c0.5,0.6,1.2,1,1.9,1.3s1.5,0.5,2.4,0.5
	c0.8,0,1.5-0.1,2.1-0.4s1.2-0.6,1.6-1.1c0.5-0.4,0.8-1,1-1.6h-4.5v-5.1H50V13c0,1.6-0.3,3.1-0.9,4.4c-0.6,1.3-1.4,2.5-2.4,3.5
	s-2.3,1.7-3.7,2.3c-1.4,0.5-3,0.8-4.7,0.8c-1.4,0-2.8-0.2-4-0.6s-2.4-0.9-3.4-1.6s-1.9-1.6-2.6-2.6s-1.3-2.1-1.7-3.3
	C26.2,15,26,13.7,26,12.4c0-1.4,0.2-2.7,0.6-3.9s1-2.3,1.7-3.3s1.6-1.9,2.6-2.6s2.2-1.3,3.4-1.7C35.6,0.5,36.9,0.3,38.4,0.3z
	 M6.3,0.3L12,12.2l5.7-11.9H24v23h-6v-13l-3.9,8.2H9.9L6,10.4v12.9H0v-23C0,0.3,6.3,0.3,6.3,0.3z"/>
</svg>
