<?xml version="1.0" encoding="UTF-8"?>
<svg width="207px" height="63px" viewBox="0 0 207 63" version="1.1" xmlns="http://www.w3.org/2000/svg" xmlns:xlink="http://www.w3.org/1999/xlink">
    <!-- Generator: Sketch 61.2 (89653) - https://sketch.com -->
    <title>Asset 1</title>
    <desc>Created with Sketch.</desc>
    <defs>
        <linearGradient x1="90.4328959%" y1="5.15130522%" x2="-0.645763423%" y2="76.7224065%" id="linearGradient-1">
            <stop stop-color="#01C092" offset="15%"></stop>
            <stop stop-color="#04BEA3" offset="21%"></stop>
            <stop stop-color="#0ABABF" offset="33%"></stop>
            <stop stop-color="#0EB8D4" offset="46%"></stop>
            <stop stop-color="#12B6E4" offset="60%"></stop>
            <stop stop-color="#13B4ED" offset="77%"></stop>
            <stop stop-color="#14B4F0" offset="100%"></stop>
        </linearGradient>
        <linearGradient x1="141.421053%" y1="412.526316%" x2="10.7105263%" y2="281.342105%" id="linearGradient-2">
            <stop stop-color="#01C092" offset="15%"></stop>
            <stop stop-color="#04BEA3" offset="21%"></stop>
            <stop stop-color="#0ABABF" offset="33%"></stop>
            <stop stop-color="#0EB8D4" offset="46%"></stop>
            <stop stop-color="#12B6E4" offset="60%"></stop>
            <stop stop-color="#13B4ED" offset="77%"></stop>
            <stop stop-color="#14B4F0" offset="100%"></stop>
        </linearGradient>
        <linearGradient x1="106.99099%" y1="152.525582%" x2="-3.02548784%" y2="0.110878918%" id="linearGradient-3">
            <stop stop-color="#01C092" offset="15%"></stop>
            <stop stop-color="#04BEA3" offset="21%"></stop>
            <stop stop-color="#0ABABF" offset="33%"></stop>
            <stop stop-color="#0EB8D4" offset="46%"></stop>
            <stop stop-color="#12B6E4" offset="60%"></stop>
            <stop stop-color="#13B4ED" offset="77%"></stop>
            <stop stop-color="#14B4F0" offset="100%"></stop>
        </linearGradient>
        <linearGradient x1="106.984053%" y1="152.51914%" x2="-3.03242544%" y2="0.104437318%" id="linearGradient-4">
            <stop stop-color="#01C092" offset="15%"></stop>
            <stop stop-color="#04BEA3" offset="21%"></stop>
            <stop stop-color="#0ABABF" offset="33%"></stop>
            <stop stop-color="#0EB8D4" offset="46%"></stop>
            <stop stop-color="#12B6E4" offset="60%"></stop>
            <stop stop-color="#13B4ED" offset="77%"></stop>
            <stop stop-color="#14B4F0" offset="100%"></stop>
        </linearGradient>
        <linearGradient x1="220.2648%" y1="100.332069%" x2="-0.696231151%" y2="-39.236735%" id="linearGradient-5">
            <stop stop-color="#01C092" offset="15%"></stop>
            <stop stop-color="#04BEA3" offset="21%"></stop>
            <stop stop-color="#0ABABF" offset="33%"></stop>
            <stop stop-color="#0EB8D4" offset="46%"></stop>
            <stop stop-color="#12B6E4" offset="60%"></stop>
            <stop stop-color="#13B4ED" offset="77%"></stop>
            <stop stop-color="#14B4F0" offset="100%"></stop>
        </linearGradient>
        <linearGradient x1="187.488651%" y1="168.035752%" x2="-106.22558%" y2="-80.5269566%" id="linearGradient-6">
            <stop stop-color="#01C092" offset="15%"></stop>
            <stop stop-color="#04BEA3" offset="21%"></stop>
            <stop stop-color="#0ABABF" offset="33%"></stop>
            <stop stop-color="#0EB8D4" offset="46%"></stop>
            <stop stop-color="#12B6E4" offset="60%"></stop>
            <stop stop-color="#13B4ED" offset="77%"></stop>
            <stop stop-color="#14B4F0" offset="100%"></stop>
        </linearGradient>
    </defs>
    <g id="Page-1" stroke="none" stroke-width="1" fill="none" fill-rule="evenodd">
        <g id="Login-User" transform="translate(-579.000000, -82.000000)">
            <g id="Asset-1" transform="translate(579.000000, 82.000000)">
                <path d="M139.227411,0.026000002 C117.309409,5.27800041 101.085408,40.9500032 96.7200075,50.5960039 C96.6911672,50.6434336 96.673393,50.696756 96.6680075,50.752004 L96.6680075,50.778004 C96.1437028,52.0532346 94.9008137,52.8852512 93.5220073,52.8840055 L86.0860067,52.8840055 C84.7490096,52.8781933 83.6090333,51.9135979 83.3820065,50.5960039 L80.6000063,25.298002 C80.5177098,24.8013222 80.6629086,24.2939466 80.9955028,23.9159987 C81.3280969,23.5380508 81.8128941,23.3295218 82.3160064,23.3480018 C82.6902847,23.3623482 83.063504,23.3970663 83.4340065,23.4520018 C83.5246439,23.4622269 83.6127083,23.4886463 83.6940065,23.5300018 C87.1260068,24.8040019 89.310007,31.6680025 91.4420071,44.1220034 C113.279409,1.48200012 139.227411,0.026000002 139.227411,0.026000002 Z" id="Path" fill="#2988B7" opacity="0.2"></path>
                <path d="M139.383411,0 C117.465409,5.25200041 100.825408,39.4680031 96.4600075,49.1140038 C96.4311672,49.1614335 96.413393,49.2147559 96.4080075,49.2700038 L96.4080075,49.2960038 C95.8837027,50.5712345 94.6408137,51.4032511 93.2620073,51.4020054 L85.8260067,51.4020054 C84.4890096,51.3961932 83.3490332,50.4315978 83.1220065,49.1140038 L78.8840061,23.8160019 C78.8017096,23.3193221 78.9469085,22.8119465 79.2795026,22.4339986 C79.6120968,22.0560507 80.096894,21.8475217 80.6000063,21.8660017 C80.9742845,21.8803481 81.3475038,21.9150662 81.7180064,21.9700017 C81.8086437,21.9802268 81.8967082,22.0066461 81.9780064,22.0480017 C85.4100067,23.3220018 88.2180069,30.1860024 90.350007,42.6400033 C112.187409,0.026000002 139.383411,0 139.383411,0 Z" id="Path" fill="url(#linearGradient-1)"></path>
                <path d="M139.539411,31.0180024 C141.333411,31.0180024 142.737411,31.5380025 143.751411,32.5520025 C144.765411,33.5660026 145.259411,34.9960027 145.259411,36.7900029 C145.259411,37.2060029 145.233411,37.5960029 145.207411,38.012003 C145.181411,38.428003 145.129411,38.766003 145.077411,39.130003 L143.153411,51.922004 C143.097659,52.2414898 142.827392,52.4793245 142.503411,52.4940041 L137.641411,52.4940041 C137.450288,52.4937927 137.268706,52.4104669 137.143914,52.2657082 C137.019122,52.1209494 136.96346,51.9290725 136.991411,51.740004 L138.785411,39.7800031 C138.837411,39.3900031 138.889411,39.026003 138.915411,38.688003 C138.941411,38.350003 138.967411,38.116003 138.967411,37.908003 C139.00324,37.3125374 138.828357,36.723457 138.473411,36.2440028 C138.15535,35.8375247 137.663348,35.6059941 137.147411,35.6200028 C136.231909,35.6485879 135.341715,35.9273355 134.57341,36.4260028 C133.59257,37.0273213 132.707402,37.7722642 131.94741,38.636003 C131.854674,38.7355104 131.799511,38.8642234 131.79141,39.000003 L129.86741,51.948004 C129.811877,52.2665781 129.542999,52.5041411 129.22001,52.5200041 L124.46201,52.5200041 C124.272342,52.5155927 124.093412,52.4310725 123.969537,52.2873773 C123.845662,52.1436822 123.788427,51.9542518 123.81201,51.766004 L126.75001,32.0580025 C126.805762,31.7385168 127.076029,31.500682 127.40001,31.4860025 L132.10601,31.4860025 C132.29895,31.480698 132.484043,31.5624527 132.610068,31.7086421 C132.736094,31.8548314 132.789685,32.0499506 132.75601,32.2400025 L132.75601,32.2400025 C132.715459,32.4977919 132.831131,32.7551768 133.050828,32.8960077 C133.270524,33.0368386 133.552697,33.0344824 133.77001,32.8900026 C134.452414,32.4202902 135.184911,32.0278811 135.954011,31.7200025 C137.087914,31.241151 138.308645,31.002139 139.539411,31.0180024 Z" id="Path" fill="#003C6E"></path>
                <path d="M202.979416,31.0180024 C203.594391,31.0309068 204.202044,31.1541988 204.773416,31.3820024 C205.295778,31.5815575 205.800257,31.8250986 206.281416,32.1100025 C206.587675,32.2899711 206.701473,32.6768822 206.541416,32.9940026 L204.253416,37.960003 C204.161729,38.159859 203.981086,38.3047121 203.766083,38.3507841 C203.55108,38.3968562 203.326945,38.3387413 203.161416,38.194003 C202.887714,37.9425009 202.591844,37.7162474 202.277416,37.5180024 C201.874946,37.2512545 201.407733,37.0985119 200.925416,37.0760029 C200.245064,37.1010381 199.593715,37.357908 199.079416,37.8040029 C198.38092,38.3739568 197.775639,39.0494153 197.285415,39.8060031 C197.224345,39.8895536 197.188277,39.9887401 197.181415,40.0920031 L195.439415,51.896004 C195.391061,52.234056 195.104841,52.487251 194.763415,52.4941541 L190.060015,52.4941541 C189.860562,52.4982191 189.669582,52.413439 189.538926,52.2626812 C189.408269,52.1119235 189.351494,51.9108326 189.384015,51.714004 L192.322015,32.0580025 C192.370369,31.7199505 192.656589,31.4667556 192.998015,31.4600025 L197.704015,31.4600025 C197.90198,31.4602917 198.090103,31.5463605 198.219756,31.6959602 C198.34941,31.8455599 198.407866,32.0440068 198.380015,32.2400025 L198.380015,32.2400025 C198.344137,32.5315748 198.494291,32.8144914 198.755875,32.9481901 C199.01746,33.0818887 199.334714,33.0378695 199.550016,32.8380026 C199.960232,32.4189582 200.413392,32.0442294 200.902016,31.7200025 C201.499898,31.2666607 202.229098,31.0202479 202.979416,31.0180024 Z" id="Path" fill="#003C6E"></path>
                <path d="M163.251413,21.8140017 L161.925413,30.7840024 C161.892298,31.0146646 161.690265,31.1830253 161.457413,31.1740024 C161.197413,31.1480024 160.911413,31.1480024 160.651413,31.1220024 C160.235412,31.0960024 159.845412,31.0700024 159.455412,31.0700024 C155.321412,31.0700024 151.993412,32.1360025 149.523412,34.2940027 C147.053411,36.4520028 145.805411,39.2860031 145.805411,42.8480033 C145.754448,46.1823894 147.412079,49.3112921 150.199412,51.142004 C151.240027,51.8020546 152.395409,52.2606795 153.605412,52.4940041 C155.302746,52.8077892 157.027718,52.9471809 158.753412,52.9100041 C159.700949,52.9084553 160.647462,52.8476701 161.587413,52.7280041 C162.523413,52.6240041 163.537413,52.4680041 164.603413,52.2600041 C164.790173,52.2291334 164.936542,52.0827642 164.967413,51.896004 L169.439413,21.9960017 C169.457221,21.8669251 169.419158,21.7363782 169.33477,21.6370981 C169.250382,21.537818 169.127673,21.4792211 168.997413,21.4760017 L163.771413,21.4760017 C163.459413,21.4240017 163.280013,21.5800017 163.251413,21.8140017 Z M159.403412,47.5540037 C159.368259,47.762779 159.198019,47.922379 158.987412,47.9440037 L158.883412,47.9440037 C158.736802,47.9622844 158.589155,47.9709696 158.441412,47.9700762 C156.387412,47.9700762 154.827412,47.5540037 153.735412,46.6700036 C152.643412,45.7860036 152.097412,44.5640035 152.097412,42.9520033 C152.097412,40.8980032 152.773412,39.2860031 154.099412,38.116003 C155.425412,36.9460029 157.297412,36.3740028 159.689412,36.3740028 L160.495413,36.3740028 C160.62325,36.378629 160.742724,36.438735 160.822636,36.5386244 C160.902547,36.6385138 160.934961,36.7682682 160.911413,36.8940029 L159.403412,47.5540037 Z" id="Shape" fill="#003C6E"></path>
                <path d="M186.599415,33.7220026 C184.779414,31.8760025 182.413414,30.9660024 179.501414,30.9660024 C176.095414,30.9660024 173.235414,32.0840025 170.947413,34.3460027 C168.659413,36.6080029 167.515413,39.4160031 167.515413,42.7960033 C167.515413,45.8900036 168.399413,48.3600038 170.167413,50.1800039 C171.935413,52.0000041 174.327414,52.9100041 177.317414,52.9100041 C180.723414,52.9100041 183.583414,51.766004 185.871414,49.4520039 C188.159415,47.1380037 189.303415,44.2520034 189.303415,40.7940032 C189.329415,37.908003 188.419415,35.5420028 186.599415,33.7220026 Z M181.451414,45.8900036 C180.437414,47.2160037 179.215414,47.8660037 177.759414,47.8660037 C176.640178,47.9136935 175.566285,47.4202833 174.873414,46.5400036 C174.171414,45.6560036 173.807414,44.4600035 173.807414,42.9520033 C173.807414,41.0020032 174.327414,39.3640031 175.367414,38.012003 C176.407414,36.6600029 177.655414,36.0100028 179.085414,36.0100028 C180.184146,35.9839223 181.228624,36.4868188 181.893414,37.3620029 C182.595414,38.272003 182.959414,39.4680031 182.959414,40.9500032 C182.959414,42.9260033 182.465414,44.5640035 181.451414,45.8900036 L181.451414,45.8900036 Z" id="Shape" fill="#003C6E"></path>
                <path d="M122.14541,33.4620026 C120.611409,31.8240025 118.427409,31.0180024 115.593409,31.0180024 C112.109409,31.0180024 109.301409,32.0840025 107.169408,34.2420027 C105.037408,36.4000028 103.971408,39.2080031 103.971408,42.7180033 C103.971408,45.8640036 104.881408,48.3600038 106.727408,50.1800039 C108.573408,52.0000041 111.069409,52.9100041 114.215409,52.9100041 C115.613719,52.9085821 117.008019,52.7604376 118.375409,52.4680041 C119.572389,52.2238532 120.734091,51.8307963 121.833409,51.298004 C121.982357,51.2305181 122.08908,51.0946894 122.11941,50.934004 L123.05541,46.3840036 C123.083181,46.2533643 123.034404,46.1182843 122.929576,46.0355256 C122.824749,45.9527668 122.682037,45.9366717 122.56141,45.9940036 C121.35977,46.5424676 120.126985,47.0199548 118.869409,47.4240037 C117.799838,47.7601375 116.688252,47.943943 115.567409,47.9700037 C113.877409,47.9700037 112.577409,47.5800037 111.667409,46.7740036 C110.757409,45.9680036 110.315409,44.8240035 110.315409,43.3160034 C110.315174,43.2200694 110.323878,43.1243223 110.341409,43.0300034 L110.341409,43.0300034 C110.365043,42.8441382 110.518304,42.7018239 110.705409,42.6920033 L123.99141,42.6660033 C124.173769,42.6678724 124.329366,42.5345036 124.35541,42.3540033 C124.38141,42.0680033 124.40741,41.8080033 124.43341,41.5220032 C124.45941,41.1320032 124.45941,40.7420032 124.45941,40.3780031 C124.43341,37.3880029 123.67941,35.0740027 122.14541,33.4620026 Z M117.985409,39.0520224 L111.719409,39.0520224 C111.60044,39.0501419 111.489774,38.990659 111.422585,38.892461 C111.355397,38.7942631 111.340045,38.6695653 111.381409,38.558003 C111.660608,37.6732819 112.151472,36.8700509 112.811409,36.2180028 C113.507106,35.5843336 114.418514,35.2402307 115.359409,35.2560027 C116.347409,35.2560027 117.075409,35.5420028 117.595409,36.1140028 C118.115409,36.6860029 118.349409,37.5180029 118.349409,38.610003 L118.349409,38.662003 C118.357445,38.7631573 118.322584,38.8630298 118.253348,38.9372122 C118.184111,39.0113945 118.086877,39.0530517 117.985409,39.0520224 Z" id="Shape" fill="#003C6E"></path>
                <circle id="Oval" fill="url(#linearGradient-2)" fill-rule="nonzero" cx="93.9874073" cy="21.4500017" r="4.94000039"></circle>
                <path d="M32.2893987,51.870004 L32.2893987,51.844004 C32.2961797,51.7245766 32.3318699,51.6085836 32.3934025,51.506004 L42.6894033,37.3880029 C42.8182606,37.2098459 42.8374015,36.9748292 42.7390713,36.7781689 C42.6407412,36.5815085 42.4412433,36.4558113 42.2214033,36.4520028 L35.2274027,36.4520028 C35.0548675,36.4578327 34.8891585,36.3843515 34.7776471,36.2525652 C34.6661357,36.120779 34.6210957,35.9451933 34.6554027,35.7760028 L35.2534027,31.9540025 C35.2978366,31.6717392 35.539678,31.4628762 35.8254028,31.4599086 L52.6734041,31.4599086 C52.8328596,31.4571543 52.9866237,31.5192427 53.0993938,31.6320128 C53.2121639,31.7447829 53.2742523,31.898547 53.2714042,32.0580025 L53.2714042,32.0580025 C53.2772894,32.1793592 53.2404935,32.2989457 53.1674041,32.3960025 L43.2614034,46.5400036 C43.1318529,46.7223796 43.1160029,46.9621531 43.2204196,47.1599951 C43.3248362,47.3578372 43.5317341,47.4800493 43.7554034,47.4760037 L51.295404,47.4760037 C51.4663459,47.4750203 51.6289305,47.5498594 51.739351,47.6803563 C51.8497714,47.8108532 51.8966677,47.9835824 51.867404,48.1520038 L51.295404,52.0000041 C51.2509701,52.2822673 51.0091287,52.4911303 50.723404,52.4940041 L32.8614026,52.4940041 C32.5372326,52.4668976 32.2882712,52.1953033 32.2893987,51.870004 Z" id="Fill-2" fill="#003C6E"></path>
                <path d="M69.3654054,32.0060025 L65.0234051,40.9500032 C64.8474921,41.3142976 64.4695964,41.5368959 64.065693,41.5141408 C63.6617896,41.4913857 63.3112874,41.2277508 63.1774049,40.8460032 L60.1614047,32.1360025 C60.0307067,31.7302996 59.651626,31.4565191 59.2254046,31.4600025 L55.1694043,31.4600025 C54.8470686,31.4611218 54.5452125,31.6181959 54.3593258,31.8815354 C54.1734391,32.1448748 54.1265175,32.4819026 54.2334042,32.7860026 L60.1874047,50.1020039 C60.275218,50.3496959 60.2563893,50.6227119 60.1354047,50.856004 L55.0914043,61.3600048 C54.9407631,61.6708296 54.9619513,62.0375173 55.147391,62.3289224 C55.3328306,62.6203276 55.6560327,62.7948246 56.0014044,62.7901022 L60.1094047,62.7901022 C60.4982455,62.7928177 60.8533431,62.5696135 61.0194048,62.2180048 L75.3194059,32.8640026 C75.470047,32.5531778 75.4488588,32.1864901 75.2634192,31.8950849 C75.0779795,31.6036798 74.7547775,31.4291827 74.4094058,31.4340025 L70.3274055,31.4340025 C69.9196095,31.4086444 69.5378915,31.6356119 69.3654054,32.0060025 Z" id="Fill-3" fill="#003C6E"></path>
                <g id="Group" opacity="0.2" transform="translate(0.000000, 16.380001)" fill="#2988B7" fill-rule="nonzero">
                    <path d="M2.25940018,35.4900028 C2.25940018,35.4900028 5.92540046,37.6220029 8.91540069,30.0040023 C11.9054009,22.3860017 19.6274015,11.9600009 29.4294023,9.80200076 C39.2314031,7.6440006 38.399403,0 36.4754028,0 C34.5514027,0 15.3634012,1.2740001 15.3634012,1.2740001 C15.3634012,1.2740001 9.98140078,1.87200015 8.03140063,7.41000058 C6.08140047,12.948001 0.0494000039,32.3180025 0.0494000039,32.3180025 C0.0494000039,32.3180025 -0.26000002,35.0480027 2.25940018,35.4900028 Z" id="Path"></path>
                    <path d="M17.8334014,27.5600021 L27.2714021,26.9360021 C27.2714021,26.9360021 30.0274023,27.5080021 29.2214023,30.4200024 C28.4154022,33.3320026 27.6614022,36.1660028 24.8794019,36.0880028 C22.0974017,36.0100028 12.295401,36.0880028 12.295401,36.0880028 C12.295401,36.0880028 9.77340076,35.5940028 10.7354008,32.9680026 C11.6974009,30.3420024 14.0634011,27.6380022 15.5974012,27.5860022 C16.3417096,27.5367403 17.0881488,27.5280608 17.8334014,27.5600021 Z" id="Path"></path>
                    <path d="M21.3954017,22.8800018 L29.3514023,22.9320018 C29.3514023,22.9320018 31.5354025,23.0360018 32.6534025,20.1760016 C33.7714026,17.3160013 33.7714026,13.7020011 31.7434025,13.7020011 L27.1674021,13.7020011 C27.1674021,13.7020011 26.4134021,17.3420014 22.6694018,17.3160013 C19.1594015,17.2900013 18.1974014,22.6460018 20.2774016,22.9320018 L21.3954017,22.8800018 Z" id="Path"></path>
                </g>
                <path d="M2.05140016,50.908004 C2.05140016,50.908004 5.71740045,52.6240041 8.70740068,45.0060035 C11.6974009,37.3880029 19.4194015,26.9620021 29.2214023,24.8040019 C39.023403,22.6460018 38.191403,16.2760013 36.2674028,16.2760013 L15.1554012,16.2760013 C15.1554012,16.2760013 9.77340076,16.8740013 7.82340061,22.4120017 C5.87340046,27.9500022 0.0494000039,48.3860038 0.0494000039,48.3860038 C0.0494000039,48.3860038 -0.496600039,50.4400039 2.05140016,50.908004 Z" id="Path" fill="url(#linearGradient-3)" fill-rule="nonzero"></path>
                <path d="M2.18140017,50.908004 C2.18140017,50.908004 5.84740046,52.6240041 8.83740069,45.0060035 C11.8274009,37.3880029 19.5494015,26.9620021 29.3514023,24.8040019 C39.1534031,22.6460018 38.321403,16.2760013 36.3974028,16.2760013 L15.2854012,16.2760013 C15.2854012,16.2760013 9.90340077,16.8740013 7.95340062,22.4120017 C6.00340047,27.9500022 0.179400014,48.3860038 0.179400014,48.3860038 C0.179400014,48.3860038 -0.366600029,50.4400039 2.18140017,50.908004 Z" id="Path" fill="url(#linearGradient-4)" fill-rule="nonzero"></path>
                <path d="M17.6254014,43.1860034 L27.0634021,43.1860034 C27.0634021,43.1860034 29.8194023,43.1080034 29.0134023,46.0200036 C28.2074022,48.9320038 27.4534021,51.142004 24.6714019,51.038004 C21.8894017,50.934004 12.0874009,51.038004 12.0874009,51.038004 C12.0874009,51.038004 9.77340076,51.168004 10.7354008,48.5420038 C11.6974009,45.9160036 13.8554011,43.2120034 15.3634012,43.1600034 C16.8714013,43.1080034 17.6254014,43.1860034 17.6254014,43.1860034 Z" id="Path" fill="url(#linearGradient-5)" fill-rule="nonzero"></path>
                <path d="M21.1874017,37.856003 L29.1434023,37.908003 C29.1434023,37.908003 31.3274024,38.012003 32.4454025,35.1520027 C33.5634026,32.2920025 33.5634026,29.9520023 31.5354025,29.9520023 L26.9594021,29.9520023 C26.9594021,29.9520023 25.165402,29.7180023 22.4614018,32.2920025 C19.7574015,34.8660027 17.9894014,37.6220029 20.0694016,37.908003 L21.1874017,37.856003 Z" id="Path" fill="url(#linearGradient-6)" fill-rule="nonzero"></path>
            </g>
        </g>
    </g>
</svg>