<?xml version="1.0" encoding="UTF-8"?>
<svg width="168px" height="59px" viewBox="0 0 168 59" version="1.1" xmlns="http://www.w3.org/2000/svg" xmlns:xlink="http://www.w3.org/1999/xlink">
    <!-- Generator: sketchtool 59.1 (101010) - https://sketch.com -->
    <title>72B3174B-C4BE-49A5-BC7E-B5A3B97B5CA6</title>
    <desc>Created with sketchtool.</desc>
    <defs>
        <linearGradient x1="66.4516948%" y1="45.732321%" x2="52.1774038%" y2="51.5915443%" id="linearGradient-1">
            <stop stop-color="#01C092" offset="0%"></stop>
            <stop stop-color="#14B4F0" offset="100%"></stop>
        </linearGradient>
        <linearGradient x1="57.4618474%" y1="-25.8343825%" x2="50.9875855%" y2="78.2808952%" id="linearGradient-2">
            <stop stop-color="#01C092" offset="0%"></stop>
            <stop stop-color="#14B4F0" offset="100%"></stop>
        </linearGradient>
        <linearGradient x1="52.8438158%" y1="15.9305721%" x2="44.4598326%" y2="91.3821461%" id="linearGradient-3">
            <stop stop-color="#000000" stop-opacity="0.101425918" offset="0%"></stop>
            <stop stop-color="#000000" stop-opacity="0" offset="100%"></stop>
        </linearGradient>
    </defs>
    <g id="Page-1" stroke="none" stroke-width="1" fill="none" fill-rule="evenodd">
        <g id="Email-Template" transform="translate(-236.000000, -830.000000)">
            <g id="Group-2-Copy-2" transform="translate(236.000000, 830.000000)">
                <path d="M105.753972,33.1642024 C107.53919,33.1642024 108.912994,33.649388 109.875263,34.6195157 C110.837531,35.5897651 111.318726,36.9711268 111.318726,38.7634792 C111.318726,39.1334803 111.294133,39.5262264 111.245069,39.9413525 C111.195883,40.3566003 111.117986,40.7903359 111.011619,41.2424379 L101.737109,41.2424379 C101.818762,42.1963887 102.13023,42.9013612 102.670666,43.3577202 C103.211102,43.8139576 104.00534,44.0421371 105.053744,44.0421371 C105.766208,44.0421371 106.497207,43.9578469 107.2465,43.7892665 C107.995913,43.6209294 108.730789,43.3760865 109.451491,43.0554675 L108.947884,46.2621436 C108.178118,46.508811 107.391755,46.6936899 106.589279,46.8171452 C105.78656,46.9404789 104.980086,47.0020241 104.169372,47.0020241 C102.171057,47.0020241 100.590455,46.4552934 99.4275678,45.3617103 C98.2645591,44.2683705 97.683297,42.784109 97.683297,40.9095342 C97.683297,39.8570623 97.8920328,38.8189429 98.3097468,37.7952976 C98.7274608,36.7716522 99.2883702,35.9063703 99.9927173,35.1990868 C100.680589,34.5250085 101.509838,34.0173213 102.480223,33.6760251 C103.45073,33.3348505 104.541899,33.1642024 105.753972,33.1642024 Z M143.303066,27.5425874 L139.302653,46.4050445 L135.289897,46.4050445 L135.768528,44.2437503 C135.138502,45.0787903 134.426666,45.7112165 133.633264,46.14115 C132.839741,46.5709625 131.976632,46.7858082 131.044057,46.7858082 C129.497794,46.7858082 128.268601,46.2681924 127.356479,45.2323553 C126.444236,44.1967604 125.988235,42.7946925 125.988235,41.0262728 C125.988235,38.6931263 126.624192,36.7937888 127.896467,35.3283815 C129.168501,33.862853 130.81884,33.1301493 132.847849,33.1301493 C133.796882,33.1301493 134.633367,33.3451161 135.357305,33.7748074 C136.081363,34.2046199 136.660077,34.8370461 137.09381,35.6720861 L138.860933,27.5425874 L143.303066,27.5425874 Z M149.369259,33.1642024 C151.445251,33.1642024 153.077239,33.7031182 154.265826,34.7810705 C155.454412,35.8590228 156.048705,37.3413128 156.048705,39.2276991 C156.048705,41.489913 155.287504,43.3150507 153.765222,44.7032329 C152.242941,46.0916567 150.228124,46.7858082 147.720893,46.7858082 C145.669467,46.7858082 144.055422,46.258973 142.879239,45.2054236 C141.702695,44.1521157 141.114664,42.7107789 141.114664,40.881413 C141.114664,38.5294402 141.85744,36.6552554 143.343234,35.2588584 C144.828786,33.8623405 146.837461,33.1642024 149.369259,33.1642024 Z M89.8847459,33.5966344 L90.8855931,42.935152 L95.4618578,33.5966344 L100.16028,33.5966344 L92.6184213,46.5695922 L87.5905959,46.5695922 L85.4426737,33.5966344 L89.8847459,33.5966344 Z M121.621173,33.1642024 C122.955626,33.1642024 123.989027,33.5574305 124.721375,34.3437662 C125.453723,35.1302223 125.819897,36.2364928 125.819897,37.6624569 C125.819897,38.0945015 125.781257,38.6079161 125.703978,39.2027007 C125.626578,39.7974853 125.506687,40.4697824 125.343943,41.2194713 L124.245421,46.3533762 L119.778145,46.3533762 L121.120783,39.8993485 C121.169534,39.6548768 121.206248,39.4267997 121.230563,39.2148761 C121.254999,39.0029524 121.267277,38.8034452 121.267277,38.6158723 C121.267277,38.0128904 121.124756,37.5462485 120.840074,37.2163082 C120.555152,36.8862473 120.156477,36.7213374 119.643809,36.7213374 C118.756782,36.7213374 118.018415,37.0696011 117.428468,37.7662489 C116.838521,38.4631378 116.393021,39.516367 116.091969,40.9260571 L114.944575,46.3533762 L110.452985,46.3533762 L113.19917,33.3598521 L117.227084,33.3598521 L116.726695,35.670037 C117.450857,34.8387369 118.223892,34.2135741 119.045797,33.7937049 C119.867582,33.3740768 120.725961,33.1642024 121.621173,33.1642024 Z M165.751644,33.1642024 C166.015599,33.1642024 166.287852,33.1865831 166.568404,33.231224 C166.848833,33.2759853 167.149886,33.3431272 167.471684,33.4325294 L166.457111,37.1782779 C166.036345,37.0644495 165.663049,36.979018 165.337224,36.9219835 C165.011276,36.8651896 164.72865,36.836552 164.48959,36.836552 C163.524317,36.836552 162.769672,37.1336369 162.225166,37.7272051 C161.680659,38.3211343 161.243297,39.3460711 160.913567,40.8018955 L159.700813,46.3533762 L155.134867,46.3533762 L157.795285,33.4569556 L161.92814,33.4569556 L161.445504,35.8116152 C162.105452,34.8764415 162.773699,34.2011719 163.450122,33.7862879 C164.126545,33.3715241 164.893638,33.1642024 165.751644,33.1642024 Z M149.112876,36.1162188 C148.168509,36.1162188 147.358536,36.5737113 146.682957,37.4883338 C146.007016,38.4029563 145.669467,39.5176336 145.669467,40.8323658 C145.669467,41.689847 145.899357,42.3902804 146.359257,42.9331828 C146.819157,43.4764475 147.411403,43.7477779 148.135995,43.7477779 C149.072172,43.7477779 149.869982,43.2945136 150.529305,42.3881059 C151.188747,41.4815774 151.518469,40.3629135 151.518469,39.0317518 C151.518469,38.1416529 151.300501,37.4331254 150.865168,36.9064111 C150.429593,36.3796968 149.845536,36.1162188 149.112876,36.1162188 Z M133.854124,36.4703092 C132.954104,36.4703092 132.189383,36.8981839 131.559357,37.7536912 C130.929331,38.6091984 130.61456,39.6674405 130.61456,40.9281753 C130.61456,41.6731109 130.81884,42.2770767 131.228006,42.7394672 C131.637051,43.2019789 132.177039,43.4331741 132.847849,43.4331741 C133.780545,43.4331741 134.584355,43.0117181 135.259279,42.1684428 C135.934082,41.3252886 136.271605,40.3060433 136.271605,39.1105857 C136.271605,38.3247156 136.046509,37.6881717 135.596681,37.2009541 C135.14661,36.7140997 134.565839,36.4703092 133.854124,36.4703092 Z M105.360972,35.7911858 C104.656503,35.7911858 104.034173,36.0522057 103.493737,36.5742453 C102.95318,37.0965283 102.560059,37.8180425 102.314373,38.7387882 L107.559785,38.7387882 C107.584378,38.5743432 107.600612,38.4489418 107.60885,38.3625839 C107.616966,38.276226 107.621206,38.2003283 107.621206,38.1344044 C107.621206,37.4110657 107.416347,36.8395222 107.006993,36.420139 C106.597395,36.0007558 106.048722,35.7911858 105.360972,35.7911858 Z" id="Combined-Shape" fill="url(#linearGradient-1)"></path>
                <path d="M73.8033355,33.3649334 L74.5860476,38.566681 L74.5860476,38.6156822 C74.7816653,39.9572257 74.916258,41.1061521 74.9895844,42.0631875 C75.2177649,41.5071149 75.437865,40.9958087 75.6500053,40.5296321 C75.8619043,40.0634554 76.0575221,39.6628556 76.236979,39.3273488 L79.4409124,33.3649334 L84.1246419,33.3649334 L75.8578039,47.5838663 C74.9202379,49.1950977 74.0112547,50.2992577 73.1307338,50.8963461 C72.2502129,51.4933136 71.149592,51.7920393 69.828871,51.7920393 C69.3398267,51.7920393 68.813878,51.7368676 68.2513866,51.6264032 C67.6887747,51.5160598 67.0693588,51.3503027 66.392536,51.129495 L67.4443128,47.9888217 C67.7867041,48.1440526 68.112814,48.2587517 68.422522,48.332314 C68.7322299,48.4058762 69.033978,48.4427783 69.3275252,48.4427783 C70.0041068,48.4427783 70.5828795,48.2709717 71.063964,47.9274795 C71.5450485,47.5838663 71.924103,47.0686884 72.2013688,46.381704 L69.3275252,33.3649334 L73.8033355,33.3649334 Z M51.1737195,32.9313545 C52.9573692,32.9313545 54.329966,33.417827 55.291389,34.390528 C56.252812,35.363351 56.733584,36.7483768 56.733584,38.5454835 C56.733584,38.916466 56.7090128,39.3102538 56.6599915,39.7264811 C56.6108492,40.1428303 56.5330203,40.5777164 56.4267469,41.0310176 L47.1603868,41.0310176 C47.241968,41.9874988 47.5531625,42.6943412 48.0931232,43.1519107 C48.633084,43.6093583 49.4266241,43.838143 50.4741067,43.838143 C51.1859446,43.838143 51.9163017,43.7536293 52.6649359,43.5846017 C53.4136911,43.4158181 54.1479214,43.1703257 54.8679901,42.8488563 L54.3648256,46.0640382 C53.5957356,46.3113599 52.8100632,46.4967292 52.0082923,46.620512 C51.2062794,46.7441728 50.4005142,46.8058813 49.5905126,46.8058813 C47.5939531,46.8058813 46.0147405,46.2577003 44.8528748,45.1612165 C43.6908881,44.0649765 43.1101368,42.5767781 43.1101368,40.6972309 C43.1101368,39.6419673 43.3186892,38.6010943 43.7360361,37.5747337 C44.153383,36.5483731 44.7137995,35.6807959 45.4175277,34.9716364 C46.1047945,34.2957701 46.9333152,33.7867363 47.9028479,33.4445348 C48.8725016,33.1024552 49.9627115,32.9313545 51.1737195,32.9313545 Z M69.0115056,33.3649334 L68.2889683,36.836026 L61.3568624,43.086502 L67.2112017,43.086502 L66.5008638,46.3723023 L55.1718131,46.3723023 L55.8944712,42.9012098 L62.8143778,36.5765437 L57.4744628,36.5765437 L58.148082,33.3649334 L69.0115056,33.3649334 Z M50.7810649,35.565306 C50.0772156,35.565306 49.4554317,35.8270182 48.9154709,36.3504426 C48.3753892,36.8741109 47.9826135,37.597539 47.7371438,38.5207269 L52.977946,38.5207269 C53.0025172,38.3558458 53.0187366,38.2301117 53.0269673,38.1435248 C53.035077,38.0569378 53.0393135,37.9808388 53.0393135,37.91474 C53.0393135,37.1894826 52.8346343,36.6164231 52.4256392,36.1959275 C52.016402,35.7754319 51.4682106,35.565306 50.7810649,35.565306 Z" id="Combined-Shape" fill="#00335D"></path>
                <g id="Group">
                    <path d="M30.8510295,22.7820762 L36.1781144,0 L26.9324875,23.609545 L26.9326054,23.609545 L15.5844239,52.5884304 L3.60284626,27.7194438 C1.33589874,30.9176607 0,34.8156195 0,39.0262689 C0,49.8794229 8.84631957,58.6776862 19.7587537,58.6776862 C30.6713058,58.6776862 39.5176254,49.8794229 39.5176254,39.0262689 C39.5176254,32.2664759 36.0768134,26.317145 30.8510295,22.7820762" id="Fill-18" fill="url(#linearGradient-2)"></path>
                    <path d="M23.6507,21.5233078 C22.1269844,21.1561625 20.5387193,20.9563165 18.9033505,20.9563165 C18.6100286,20.9563165 18.3181023,20.9626385 18.0279206,20.9751655 L15.967107,23.9651284 L16.855098,36.1940171 L15.1782082,38.3360939 L13.5012022,36.1940171 L14.5471357,23.9651284 L12.594835,21.8017107 C10.3750322,22.6140899 8.34445804,23.8224147 6.5862709,25.3416891 L15.1820463,44.0082646 L23.6507,21.5233078 Z" id="Fill-21" fill="#00335D"></path>
                    <path d="M15.355089,23.3513241 L17.3638051,20.984765 C17.3638051,20.984765 15.8572681,20.7696232 13.4719177,21.5226193 L15.355089,23.3513241 Z" id="Fill-23" fill="#14B4F0"></path>
                    <polygon id="Path-7" fill="url(#linearGradient-3)" points="30.8576172 22.7691015 24.8482038 46.357946 32.7002548 24.2048311"></polygon>
                    <path d="M12.0342154,22.4428995 C12.5728426,23.1334123 13.2188045,23.7639903 13.9721012,24.3346334 L13.2627315,34.1486798 L13.4719177,24.5898112 L12.0342154,22.4428995 Z" id="Path-8" fill-opacity="0.295836976" fill="#000000" opacity="0.459193638"></path>
                    <polygon id="Path-9" fill="#142B4A" opacity="0.459193638" points="18.5549158 21.5626257 16.7284786 24.2922108 17.0667742 33.2096424 17.3638051 24.4828469"></polygon>
                    <polygon id="Path-10" fill="#142B4A" opacity="0.516694568" points="13.5020278 36.206671 15.1890233 38.3503301 16.8608005 36.198503 15.1894818 38.8936606"></polygon>
                </g>
            </g>
        </g>
    </g>
</svg>